<svg xmlns="http://www.w3.org/2000/svg" viewBox="0 0 24 24" fill="none" stroke="#CAA647" stroke-width="1.5" stroke-linecap="round" stroke-linejoin="round">
  <!-- mask frame -->
  <path d="M3 8a2 2 0 0 1 2-2h14a2 2 0 0 1 2 2v5a2 2 0 0 1-2 2H5a2 2 0 0 1-2-2Z"/>
  <!-- divider between lenses -->
  <line x1="12" y1="8" x2="12" y2="13"/>
  <!-- left lens -->
  <ellipse cx="7.5" cy="10.5" rx="2.5" ry="2.5"/>
  <!-- right lens -->
  <ellipse cx="16.5" cy="10.5" rx="2.5" ry="2.5"/>
  <!-- snorkel tube -->
  <path d="M19 6V3.5a1 1 0 0 1 2 0V3"/>
  <circle cx="20" cy="3" r="0.5" fill="currentColor"/>
  <!-- fin shape at bottom -->
  <path d="M6 18c0 0 2-2 6-2s6 2 6 2"/>
  <path d="M4 22c0-2 1.5-4 8-4s8 2 8 4"/>
</svg>
