<svg xmlns="http://www.w3.org/2000/svg" viewBox="0 0 24 24" fill="none" stroke="currentColor" stroke-width="1.5" stroke-linecap="round" stroke-linejoin="round">
  <!-- sail 1 (main, tall) -->
  <path d="M12 3v13L5.5 16Z"/>
  <!-- sail 2 (jib, small) -->
  <path d="M12 7v9l5-4Z"/>
  <!-- hull -->
  <path d="M3 17.5c0 0 3 2.5 9 2.5s9-2.5 9-2.5"/>
  <!-- keel / hull bottom -->
  <path d="M4.5 17.5c1.5 1.5 4 2.5 7.5 2.5s6-1 7.5-2.5"/>
  <!-- mast -->
  <line x1="12" y1="2" x2="12" y2="17.5"/>
  <!-- waves -->
  <path d="M1 21c1-1 2-1 3 0s2 1 3 0 2-1 3 0 2 1 3 0 2-1 3 0 2 1 3 0"/>
</svg>
