<svg width="600" height="600" viewBox="0 0 600 600" fill="none" xmlns="http://www.w3.org/2000/svg">
<path d="M300 600C465.685 600 600 465.685 600 300C600 134.315 465.685 0 300 0C134.315 0 0 134.315 0 300C0 465.685 134.315 600 300 600Z" fill="#2E8B57"/>
<mask id="mask0_664_3" style="mask-type:luminance" maskUnits="userSpaceOnUse" x="31" y="31" width="538" height="538">
<path d="M300.001 568.422C448.246 568.422 568.422 448.246 568.422 300.001C568.422 151.756 448.246 31.5801 300.001 31.5801C151.756 31.5801 31.5801 151.756 31.5801 300.001C31.5801 448.246 151.756 568.422 300.001 568.422Z" fill="white"/>
</mask>
<g mask="url(#mask0_664_3)">
<path d="M300 410.529C378.482 410.529 442.105 346.906 442.105 268.424C442.105 189.941 378.482 126.318 300 126.318C221.517 126.318 157.895 189.941 157.895 268.424C157.895 346.906 221.517 410.529 300 410.529Z" fill="url(#paint0_linear_664_3)"/>
<path d="M615.79 300.004H-15.7891V615.793H615.79V300.004Z" fill="url(#paint1_linear_664_3)"/>
<path opacity="0.8" d="M31.5801 363.159C84.2117 331.58 136.843 331.58 189.475 363.159C242.106 394.738 294.738 394.738 347.37 363.159C400.001 331.58 452.633 331.58 505.264 363.159C557.896 394.738 610.527 394.738 663.159 363.159" stroke="white" stroke-width="3"/>
<path opacity="0.6" d="M31.5801 426.321C84.2117 394.742 136.843 394.742 189.475 426.321C242.106 457.9 294.738 457.9 347.37 426.321C400.001 394.742 452.633 394.742 505.264 426.321C557.896 457.9 610.527 457.9 663.159 426.321" stroke="white" stroke-width="2"/>
</g>
<path d="M453.851 211.386C453.837 211.303 453.76 211.248 453.681 211.257L453.578 211.271C453.493 211.284 453.437 211.361 453.451 211.444L454.465 218.386C454.479 218.47 454.556 218.525 454.638 218.516L454.738 218.5C454.823 218.489 454.878 218.412 454.865 218.329L453.851 211.386ZM372.666 188.915C368.988 187.137 364.033 186.533 360.02 188.134C359.65 188.281 359.657 188.378 360.056 188.422C366.968 189.27 371.864 190.891 377.723 192.942C377.911 193.01 377.934 192.967 377.792 192.828C376.251 191.321 374.564 189.838 372.666 188.915ZM374.629 185.164C374.56 185.124 374.506 185.077 374.464 185.019C374.446 184.994 374.438 184.998 374.441 185.025C374.439 185.037 374.442 185.05 374.453 185.056C376.421 187.355 378.41 190.117 380.425 193.343C380.593 193.612 380.826 193.794 381.124 193.892L382.01 194.19C382.385 194.309 382.481 194.194 382.308 193.844C380.533 190.189 377.97 187.298 374.629 185.164ZM387.237 196.457C387.345 196.508 387.457 196.401 387.417 196.293C386.021 192.491 384.025 189.037 381.419 185.937C381.366 185.87 381.305 185.868 381.234 185.918L381.092 186.032C381.078 186.042 381.08 186.06 381.091 186.071C383.095 188.376 384.195 191.358 384.388 195.024C384.393 195.137 384.45 195.221 384.551 195.263L387.237 196.457ZM276.069 163.082C277.53 162.683 278.806 161.791 280.472 161.61C280.547 161.604 280.588 161.559 280.583 161.486L280.577 161.479C280.575 161.428 280.544 161.406 280.487 161.402C278.805 161.359 277.297 161.845 275.961 162.86C275.62 163.119 275.66 163.194 276.069 163.082ZM261.407 154.838C260.098 155.361 258.768 155.865 257.662 156.768C257.61 156.811 257.602 156.86 257.645 156.918L257.644 156.923C257.676 156.97 257.714 156.985 257.75 156.969L261.572 154.914C261.591 154.906 261.589 154.878 261.574 154.864C261.564 154.855 261.554 154.849 261.549 154.843C261.512 154.82 261.462 154.817 261.407 154.838ZM257.434 145.622C259.376 145.345 260.798 145.821 262.468 145.833C262.576 145.833 262.585 145.812 262.485 145.758C262.437 145.733 262.384 145.713 262.323 145.703C262.177 145.688 262.083 145.674 262.046 145.655C260.562 145.102 259.022 144.953 257.418 145.212C257.325 145.225 257.283 145.277 257.296 145.374L257.306 145.525C257.312 145.598 257.359 145.627 257.434 145.622ZM269.857 146.747C269.915 146.656 269.545 146.327 269.04 146.009C268.535 145.694 268.075 145.504 268.02 145.595C267.961 145.686 268.332 146.014 268.836 146.334C269.342 146.648 269.802 146.839 269.857 146.747ZM399.202 133.032C401.707 133.676 403.855 134.388 406.354 135.689C406.433 135.731 406.487 135.71 406.517 135.625L406.563 135.489C406.571 135.468 406.562 135.449 406.546 135.442C404.351 133.897 401.913 133.054 399.22 132.911C398.788 132.883 398.781 132.926 399.202 133.032ZM268.333 107.704C265.264 107.44 261.667 107.456 257.55 107.745C249.553 108.307 243.005 108.947 237.894 109.672C237.807 109.681 237.72 109.619 237.712 109.53L237.692 109.363C237.669 109.179 237.787 109.01 237.965 108.957C249.408 105.724 260.676 103.579 272.62 103.677C272.66 103.678 272.679 103.664 272.685 103.626C272.686 103.618 272.688 103.609 272.683 103.601C272.686 103.585 272.682 103.572 272.664 103.576C258.197 102.585 243.832 105.339 229.387 104.789C228.217 104.744 228.113 104.387 229.075 103.718C229.106 103.701 229.353 103.647 229.828 103.558C240.396 101.528 250.712 100.208 260.789 99.5851C262.208 99.4923 262.215 99.3399 260.81 99.1225C250.349 97.491 239.781 95.8896 229.233 93.8256C229.106 93.8012 229.056 93.6515 229.133 93.5492C229.267 93.3822 229.439 93.3012 229.649 93.307C238.377 93.3901 247.032 93.7199 255.612 94.2802C256.011 94.3077 256.018 94.2621 255.638 94.1517C254.957 93.9521 254.143 93.7794 253.193 93.6324C243.645 92.1594 233.949 91.1368 224.116 90.5532C223.88 90.5385 223.778 90.4162 223.821 90.1761L223.873 89.9183C223.906 89.7406 224.052 89.605 224.235 89.5991C232.19 89.1672 240.139 89.2486 248.081 89.8492C248.11 89.8461 248.124 89.8264 248.132 89.7762L248.133 89.7715C248.135 89.7204 248.116 89.6956 248.067 89.6879C235.378 87.6393 222.599 86.615 209.726 86.6047C209.652 86.6029 209.613 86.5625 209.607 86.4892L209.597 86.3409C209.594 86.2481 209.636 86.1984 209.729 86.1832C231.479 83.4438 254.344 86.0977 274.955 93.4618C303.125 103.53 320.044 126.448 326.394 154.893C326.41 154.969 326.462 155.006 326.539 154.989L326.544 154.989C326.62 154.974 326.656 154.929 326.645 154.852C324.59 138.358 327.407 122.096 336.772 108.675C346.153 95.2397 360.277 84.0624 374.374 76.5369C383.235 71.8091 392.317 68.9844 401.616 68.0604C401.697 68.0558 401.768 68.0669 401.827 68.0931C401.928 68.1355 401.982 68.1856 401.99 68.2431C402.014 68.3878 401.927 68.5354 401.784 68.579C398.815 69.512 395.855 70.4732 392.914 71.4735C386.745 73.5669 380.95 76.4202 375.53 80.0268C375.491 80.0551 375.486 80.0886 375.506 80.1308C375.529 80.1752 375.567 80.1811 375.609 80.1592C382.42 76.5163 389.186 73.5818 396.71 72.1221C401.22 71.2425 406.153 70.2725 410.751 70.5401C410.92 70.5492 410.965 70.7782 410.817 70.8523C410.288 71.1125 409.752 71.2658 409.205 71.3125C402.759 71.8656 396.734 73.4326 391.128 76.0179C390.339 76.3788 390.378 76.4925 391.235 76.3688C394.162 75.9321 397.081 75.418 399.974 74.8361C401.105 74.6092 401.211 74.8132 400.277 75.4469C399.979 75.6495 399.514 75.8966 398.871 76.1829C390.869 79.7843 381.832 82.3997 373.655 86.6379C373.588 86.6742 373.575 86.7284 373.604 86.7957L373.608 86.8011C373.636 86.8693 373.693 86.8876 373.758 86.8586C378.905 84.8043 384.995 84.077 390.494 83.604C396.293 83.0995 402.882 82.8533 410.261 82.8638C410.735 82.8638 411.134 83.0284 411.476 83.3547L411.603 83.4695C411.769 83.6267 411.681 83.9085 411.454 83.9409C405.083 84.8743 399.784 85.6048 395.549 86.1325C391.086 86.6829 386.782 87.375 382.645 88.1998C381.723 88.382 381.734 88.4513 382.667 88.4128C390.248 88.1211 397.8 88.446 405.328 89.3767C405.44 89.3875 405.5 89.5063 405.458 89.6065L405.38 89.7773C405.294 89.9573 405.112 90.0749 404.914 90.0785C392.305 90.2512 379.994 92.2256 367.974 96.0052C367.931 96.0157 367.921 96.0485 367.931 96.0967L367.935 96.102C367.951 96.155 367.982 96.1722 368.034 96.1563C378.026 93.767 388.13 93.2752 398.335 94.6842C398.775 94.7465 399.03 94.786 399.093 94.813C399.963 95.1572 399.936 95.3967 399.012 95.5319C396.498 95.9039 394.134 96.1696 391.308 96.3227C383.849 96.7191 376.55 98.0498 369.418 100.301C369.351 100.325 369.311 100.392 369.33 100.459L369.372 100.623C369.376 100.632 369.383 100.637 369.393 100.634C376.272 99.2279 384.253 99.605 390.775 102.329C391.542 102.653 391.54 102.969 390.769 103.281C390.714 103.303 390.471 103.294 390.04 103.254C380.125 102.356 370.801 103.297 362.123 108.466C362.05 108.503 362.033 108.563 362.072 108.646L362.071 108.65C362.11 108.73 362.174 108.751 362.256 108.718C367.719 106.41 374.858 106.584 380.573 107.787C380.745 107.826 380.854 108.001 380.803 108.17C380.733 108.449 380.502 108.589 380.117 108.597C371.569 108.835 363.371 110.612 355.964 115.03C355.907 115.068 355.891 115.141 355.934 115.196L356.032 115.331C356.051 115.351 356.072 115.359 356.098 115.346C358.436 114.318 360.023 113.712 360.854 113.539C368.661 111.896 378.323 112.329 385.481 116.077C386.285 116.504 386.942 116.974 387.434 117.499C387.879 117.972 387.786 118.126 387.156 117.968C381.316 116.469 374.584 115.312 368.957 116.327C366.201 116.827 363.064 117.992 359.548 119.835C359.471 119.875 359.454 119.928 359.488 120.001L359.493 120.002C359.528 120.076 359.581 120.096 359.653 120.066C365.88 117.47 374.231 118.989 380.296 120.217C380.573 120.271 380.573 120.334 380.3 120.411C379.813 120.541 379.371 120.579 378.968 120.529C371.762 119.573 365.136 119.29 358.19 121.81C355.254 122.872 352.407 124.141 349.661 125.608C349.605 125.638 349.585 125.687 349.617 125.743L349.622 125.749C349.655 125.805 349.696 125.823 349.756 125.793C358.776 121.335 367.583 121.776 377.133 124.006C377.308 124.042 377.411 124.229 377.345 124.401L377.282 124.555C377.25 124.648 377.18 124.693 377.079 124.682C374.409 124.491 371.732 124.464 369.055 124.611C361.243 125.043 354.134 128.522 348.28 133.598C348.221 133.649 348.211 133.712 348.264 133.781L348.269 133.782C348.319 133.852 348.382 133.857 348.449 133.805C355.031 128.61 362.927 127.964 370.822 130.302C372.231 130.721 372.2 130.921 370.73 130.891C365.673 130.803 359.874 131.261 355.57 134.441C353.201 136.193 351.067 138.038 349.162 139.974C348.217 140.935 348.332 141.08 349.504 140.413C352.586 138.666 355.841 136.578 359.884 136.472C359.977 136.469 360.053 136.537 360.061 136.623L360.08 136.787C360.105 136.966 360.02 137.073 359.84 137.101C355.942 137.695 353.364 139.535 350.283 141.262C349.667 141.603 349.691 141.663 350.356 141.438C352.646 140.655 357.2 139.894 359.129 141.751C360.027 142.609 359.868 142.892 358.661 142.61C356.042 141.993 348.441 144.816 346.493 146.702C346.467 146.727 346.496 146.763 346.524 146.752C349.907 145.298 353.095 145.377 356.101 146.984C356.52 147.21 356.578 147.462 356.268 147.736C356.168 147.828 356.026 147.865 355.893 147.832C353.857 147.363 351.901 147.584 350.032 148.488C349.534 148.723 349.554 148.923 350.081 149.086C351.066 149.379 351.986 149.966 352.835 150.841C352.959 150.968 353.025 151.092 353.033 151.212C353.038 151.287 353.027 151.358 353 151.423C352.928 151.604 352.802 151.648 352.629 151.553C351.511 150.948 350.308 150.715 349.019 150.852C348.803 150.875 348.618 150.966 348.476 151.127L346.2 153.536C346.051 153.693 346.118 153.954 346.326 154.021C347.198 154.301 348.002 154.717 348.738 155.262C349.044 155.492 348.989 155.959 348.641 156.11C343.17 158.485 340.614 167.209 340.139 172.533C340.096 173.035 340.21 173.072 340.475 172.64C352.425 153.452 366.802 137.127 387.585 127.013C388.193 126.715 388.352 126.875 388.059 127.484L387.612 128.417C387.569 128.5 387.595 128.556 387.689 128.58C387.75 128.597 387.797 128.579 387.839 128.53C389.713 126.342 394.4 122.883 397.518 124.161C397.984 124.352 397.974 124.522 397.497 124.675L392.092 126.404C392.028 126.422 392.006 126.453 392.016 126.497L392.02 126.502C392.03 126.548 392.062 126.565 392.115 126.551C395.779 125.521 401.519 125.473 404.632 126.483C405.585 126.79 406.414 126.97 407.13 127.017C410.872 127.274 414.08 127.888 416.766 128.877C420.672 130.313 426.868 133.956 428.316 138.158C428.355 138.271 428.301 138.4 428.19 138.455C427.993 138.544 427.805 138.481 427.628 138.268C424.125 134.01 420.397 132.262 415.45 130.168C415.393 130.142 415.344 130.156 415.319 130.216L415.318 130.22C415.292 130.279 415.313 130.329 415.37 130.355C418.034 131.521 422.09 134.251 422.83 137.292C423.03 138.1 422.803 138.241 422.151 137.725C421.203 136.967 420.408 135.861 419.391 135.157C418.287 134.391 417.238 133.79 416.241 133.363C415.576 133.071 415.516 133.165 416.066 133.643C416.931 134.384 417.414 135.327 417.522 136.475C417.546 136.79 417.205 137.011 416.929 136.849C412.726 134.432 407.215 130.795 402.057 131.684C401.394 131.803 400.723 131.853 400.042 131.833C400.024 131.835 400.024 131.835 400.041 131.838C403.349 132.662 406.587 134.409 408.508 137.323C408.682 137.589 408.545 137.953 408.235 138.042C406.787 138.467 405.56 139.235 404.553 140.347C404.435 140.477 404.285 140.532 404.105 140.521C402.728 140.416 401.436 140.023 400.232 139.349C400.189 139.325 400.146 139.352 400.094 139.418L400.094 139.422C400.043 139.496 400.055 139.56 400.128 139.611C401.475 140.575 402.235 141.8 402.393 143.295C402.498 144.248 402.279 144.333 401.736 143.539C400.618 141.913 399.05 140.251 397.089 139.448C396.784 139.32 396.739 139.386 396.944 139.64C397.391 140.179 398.083 140.55 398.478 141.009C399.522 142.231 400.057 143.518 400.092 144.865C400.106 145.441 399.944 145.488 399.614 145.022L395.758 139.547C395.725 139.503 395.687 139.497 395.643 139.529L395.527 139.62C395.461 139.666 395.452 139.721 395.5 139.792C396.452 141.166 397.75 142.952 397.847 144.416C397.862 144.649 397.761 144.719 397.542 144.634C394.584 143.415 388.844 139.035 385.739 140.61C385.479 140.74 385.498 140.812 385.786 140.822C387.221 140.874 388.497 141.337 389.619 142.211C389.745 142.31 389.74 142.5 389.607 142.589C389.465 142.686 389.283 142.697 389.049 142.627C387.284 142.093 385.475 141.898 383.639 142.039C383.577 142.048 383.542 142.082 383.545 142.143L383.544 142.15C383.539 142.211 383.572 142.252 383.64 142.255C386.206 142.442 392.423 145.699 392.94 148.494C393.028 148.978 392.877 149.074 392.478 148.776C390.985 147.635 389.183 146.412 387.161 146.475C384.395 146.564 381.734 147.118 379.168 148.135C379.109 148.16 379.092 148.204 379.111 148.258L379.11 148.263C379.13 148.322 379.171 148.341 379.233 148.321C380.982 147.821 382.796 147.589 384.674 147.629C384.752 147.632 384.824 147.691 384.829 147.772L384.841 147.979C384.845 148.06 384.796 148.126 384.713 148.14C379.95 148.858 377.247 149.82 373.623 151.776C373.599 151.789 373.617 151.819 373.639 151.817C374.726 151.639 375.843 151.149 376.874 151.279C378.168 151.438 379.202 152.003 379.972 152.973C380.336 153.444 380.243 153.571 379.685 153.36C377.626 152.588 375.523 152.433 373.376 152.901C373.085 152.963 373.081 153.043 373.354 153.149C375.177 153.821 376.752 154.855 378.09 156.238C378.555 156.724 378.452 156.942 377.784 156.889C376.068 156.761 374.552 155.504 372.686 155.872C371.262 156.158 369.834 156.408 368.405 156.635C368.355 156.644 368.325 156.674 368.333 156.732L368.332 156.739C368.337 156.79 368.35 156.814 368.368 156.812C371.149 156.806 373.706 157.563 376.037 159.09C376.137 159.156 376.146 159.238 376.065 159.321C376.024 159.36 375.99 159.399 375.957 159.436C375.942 159.451 375.924 159.457 375.907 159.455C373.748 159.052 367.398 158.18 365.734 159.919C365.579 160.09 365.609 160.18 365.842 160.187C367.452 160.261 369.02 160.554 370.54 161.067C371.5 161.392 371.48 161.603 370.471 161.703C363.033 162.432 355.59 171.039 350.748 177.042C350.431 177.432 350.499 177.508 350.939 177.276C366.034 169.327 383.135 164.914 400.292 165.219C432.85 165.798 459.129 188.842 465.738 220.337C466.668 224.736 467.319 230.567 467.707 237.828C467.715 238.027 467.624 238.11 467.427 238.062L467.24 238.024C467.191 238.009 467.161 237.978 467.153 237.923C465.387 226.132 461.982 214.537 456.257 204.248C455.674 203.206 454.205 201.04 451.858 197.763C451.819 197.706 451.774 197.699 451.721 197.742L451.716 197.741C451.658 197.784 451.651 197.828 451.694 197.882C459.757 209.262 463.058 221.643 463.05 234.562C463.054 236.488 462.807 238.36 462.319 240.186C462.281 240.339 462.111 240.41 461.975 240.326C461.838 240.249 461.697 240.027 461.677 239.853C460.876 233.728 459.516 227.745 457.602 221.901C457.549 221.74 457.519 221.744 457.51 221.913C456.938 234.344 453.988 246.173 448.672 257.397C448.613 257.524 448.456 257.573 448.33 257.502L448.185 257.417C448.084 257.362 448.053 257.279 448.085 257.175C450.25 250.143 451.635 243.229 452.228 236.437C452.625 231.843 452.986 228.358 453.289 225.986C453.291 225.942 453.274 225.916 453.229 225.904L453.224 225.903C453.186 225.897 453.161 225.903 453.151 225.931C451.572 232.088 449.206 237.918 446.061 243.429C445.536 244.341 445.295 244.286 445.338 243.272C445.347 243.187 445.427 242.888 445.581 242.372C447.808 235.043 449.709 226.779 449.83 219.588C449.876 216.677 449.65 212.279 449.151 206.393C449.144 206.3 449.094 206.253 448.997 206.255L448.834 206.264C448.76 206.27 448.699 206.333 448.699 206.414C448.723 208.02 448.749 209.601 448.775 211.168C448.898 218.986 447.38 226.337 444.199 233.236C444.157 233.332 444.046 233.384 443.942 233.35C443.839 233.317 443.775 233.217 443.798 233.111C444.888 227.185 446.348 221.766 446.886 216.017C446.925 215.573 446.873 215.071 446.727 214.519C446.655 214.271 446.594 214.272 446.526 214.522C446.119 216.078 445.736 217.634 445.376 219.185C445.242 219.766 445.16 220.071 445.137 220.108C444.274 221.206 443.874 221.059 443.945 219.661C444.074 217.034 444.476 214.139 444.419 211.635C444.319 207.151 443.748 202.943 442.705 199.012C442.236 197.227 442.003 197.254 442.007 199.101C442.029 205.057 440.994 213.303 437.559 218.707C437.399 218.949 437.264 218.941 437.153 218.678C436.924 218.171 436.811 217.654 436.816 217.138C436.866 209.001 436.686 203.611 434.774 196.609C434.502 195.606 434.168 194.781 433.788 194.125C433.701 193.978 433.47 194.054 433.492 194.228C434.416 200.602 434.554 206.054 433.685 212.291C433.631 212.675 433.493 212.71 433.27 212.387C433.266 212.379 433.256 212.271 433.232 212.045C432.507 204.078 430.004 196.71 425.725 189.942C425.602 189.746 425.461 189.618 425.309 189.548C425.164 189.486 425.011 189.621 425.061 189.77C426.375 193.563 428.081 198.582 428.268 202.252C428.363 204.1 428.098 204.157 427.483 202.408C424.958 195.253 421.54 188.545 417.237 182.285C417.195 182.22 417.14 182.212 417.079 182.253L416.959 182.332C416.819 182.425 416.771 182.615 416.857 182.765C421.482 190.858 422.557 199.686 421.267 208.643C421.137 209.508 421.002 210.096 420.846 210.407C420.378 211.333 420.099 211.29 420.007 210.277C419.856 208.578 419.679 206.709 419.479 204.661C418.616 195.849 415.158 188.039 410.494 180.627C410.462 180.583 410.425 180.569 410.373 180.603L410.368 180.603C410.322 180.63 410.312 180.667 410.337 180.722C414.684 188.783 416.889 198.325 417.791 207.402C417.804 207.511 417.747 207.576 417.637 207.593L417.485 207.614C417.415 207.626 417.373 207.596 417.357 207.525C415.561 198.229 411.974 189.317 405.725 182.627C404.596 181.413 404.409 181.543 405.177 183.018C407.942 188.359 410.478 196.021 410.337 202.554C410.329 202.748 410.17 202.891 409.979 202.879C409.8 202.868 409.678 202.771 409.614 202.586C408.7 199.945 407.651 197.356 406.478 194.824C405.44 192.574 403.754 188.479 402.059 186.218C401.122 184.963 399.489 183.388 397.156 181.489C397.1 181.446 397.053 181.448 397.005 181.504L397.004 181.509C396.956 181.564 396.966 181.613 397.021 181.653C402.141 185.543 403.585 192.291 403.09 198.27C403.026 199.02 402.861 199.041 402.592 198.334C400.636 193.185 398.651 188.797 394.948 184.644C393.326 182.82 391.143 181.346 389.082 180.086C387.093 178.868 386.958 179.044 388.674 180.625C392.781 184.401 393.676 189.48 394.031 195.153C394.05 195.4 393.711 195.494 393.598 195.274C392.325 192.775 391.132 189.859 389.685 187.714C388.226 185.564 386.531 183.597 384.603 181.828C384.569 181.793 384.53 181.795 384.495 181.829L384.49 181.828C384.456 181.861 384.45 181.9 384.483 181.939C386.488 184.38 387.886 186.699 389.467 189.192C391.061 191.716 391.35 194.243 392.383 196.907C392.494 197.185 392.394 197.307 392.098 197.278C391.839 197.25 391.639 196.968 391.499 196.437C390.731 193.516 389.537 190.788 387.936 188.25C387.926 188.239 387.905 188.228 387.892 188.233C387.874 188.24 387.867 188.256 387.869 188.274C388.451 190.393 388.772 192.576 388.831 194.841C388.847 195.462 388.648 196.018 388.562 196.684C388.536 196.88 388.612 197.024 388.787 197.107C417.135 210.895 441.478 240.782 439.56 273.657C439.187 280.022 437.852 286.728 435.559 293.773C435.527 293.866 435.472 293.891 435.382 293.855L435.194 293.774C435.104 293.737 435.064 293.669 435.081 293.563C437.458 279.947 437.506 265.835 432.879 252.77C432.854 252.706 432.813 252.687 432.752 252.707L432.747 252.706C432.681 252.723 432.665 252.766 432.681 252.832C436.565 265.526 436.058 278.533 430.853 290.501C430.487 291.347 430.287 291.788 430.253 291.834C429.1 293.365 428.732 293.205 429.148 291.368C430.365 286.006 431.092 280.576 431.338 275.076C431.365 274.427 431.217 274.387 430.895 274.951C425.505 284.459 418.877 292.719 411.007 299.731C410.617 300.075 410.229 300.31 409.833 300.436C409.515 300.541 409.462 300.458 409.667 300.189C411.317 298.093 412.961 295.996 414.59 293.902C419.756 287.239 423.701 279.907 426.427 271.913C427.126 269.857 427.819 267.8 428.507 265.754C428.516 265.726 428.506 265.715 428.485 265.707L428.345 265.651C428.255 265.612 428.146 265.659 428.11 265.749C424.43 274.172 420.636 280.867 413.171 286.469C411.38 287.811 411.139 287.574 412.443 285.761C415.772 281.123 418.98 275.804 422.055 269.806C422.913 268.121 423.917 265.471 425.062 261.848C425.086 261.776 425.046 261.697 424.973 261.668L424.827 261.619C424.778 261.604 424.746 261.616 424.728 261.66C422.892 266.646 418.898 271.168 415.034 274.591C414.514 275.051 414.35 274.946 414.532 274.274C414.57 274.134 414.676 273.89 414.85 273.546C418.623 266.092 421.775 259.588 422.502 251.147C422.549 250.589 422.488 250.579 422.314 251.113C420.051 258.181 416.305 264.344 411.083 269.607C410.43 270.26 410.204 270.142 410.404 269.241C412.216 260.972 416.463 253.228 417.02 245.353C417.12 243.942 416.936 243.908 416.474 245.239C415.23 248.824 413.629 252.251 411.672 255.521C411.365 256.036 411.225 255.991 411.244 255.398C411.44 249.362 412.231 243.629 411.62 237.526C411.595 237.271 411.556 237.129 411.511 237.094C411.31 236.961 411.173 237.035 411.112 237.315L409.372 245.096C409.326 245.281 409.116 245.378 408.949 245.284C408.755 245.181 408.65 244.95 408.624 244.597C408.268 240.187 407.598 235.926 406.605 231.824C406.471 231.274 406.35 231.279 406.246 231.837C404.637 240.527 401.386 248.293 395.597 255.157C395.304 255.504 394.991 255.712 394.665 255.768C394.466 255.806 394.308 255.606 394.388 255.423C396.708 249.956 398.415 245.734 399.501 242.762C402.049 235.789 402.69 228.731 401.414 221.586C401.33 221.107 401.277 221.112 401.258 221.598C400.856 231.754 396.725 241.751 392.268 250.835C392.193 250.989 392.087 251.007 391.964 250.885L391.86 250.784C391.825 250.756 391.819 250.722 391.836 250.685C394.271 244.008 396.346 237.03 396.085 230.025C395.985 227.408 395.623 224.138 394.987 220.206C394.974 220.106 394.912 220.058 394.816 220.065L394.678 220.078C394.67 220.077 394.665 220.082 394.663 220.093C394.677 222.304 394.759 224.641 394.344 226.764C393.517 231.037 392.014 235.082 389.849 238.887C389.717 239.123 389.548 239.255 389.344 239.28C389.153 239.301 389.082 239.222 389.138 239.033C391.459 231.321 391.338 223.68 388.772 216.116C388.388 214.976 388.251 215.005 388.378 216.2C389.081 222.835 388.042 229.19 385.277 235.266C385.225 235.377 385.138 235.419 385.022 235.397C384.973 235.382 384.924 235.364 384.876 235.34C384.806 235.295 384.774 235.227 384.783 235.143C384.941 233.68 385.094 232.221 385.235 230.76C385.855 224.523 384.807 218.591 382.084 212.973C381.374 211.505 380.567 210.317 379.674 209.413C378.837 208.562 378.753 208.63 379.426 209.614C381.971 213.341 382.449 220.747 381.806 225.22C381.782 225.415 381.675 225.466 381.504 225.378C381.345 225.296 381.254 225.174 381.24 225.014C380.691 219.578 378.69 212.077 373.461 209.286C373.291 209.199 373.098 209.339 373.133 209.525C373.588 211.941 373.827 214.404 373.845 216.916C373.847 217.537 373.841 217.869 373.828 217.914C373.36 219.278 372.977 219.253 372.686 217.839C371.957 214.386 371.44 211.279 369.977 207.468C369.928 207.342 369.786 207.268 369.648 207.31L369.506 207.357C369.44 207.376 369.417 207.416 369.434 207.481C370.678 211.927 371.05 216.347 370.037 220.468C369.958 220.79 369.784 220.86 369.503 220.685L369.336 220.581C369.284 220.551 369.261 220.489 369.264 220.434C369.502 218.205 369.365 216.001 368.848 213.826C368.755 213.432 368.218 213.383 368.054 213.747C367.535 214.923 366.872 215.859 366.071 216.555C365 217.492 364.696 217.283 365.165 215.942C366 213.566 365.422 210.882 364.762 208.529C364.436 207.374 364.19 207.385 364.021 208.58L363.623 211.365C363.453 212.572 363.207 212.583 362.884 211.409C362.277 209.186 361.842 206.85 359.98 205.007C359.797 204.832 359.716 204.869 359.735 205.122C359.803 206.008 359.768 206.895 359.629 207.788C359.451 208.89 359.119 208.941 358.62 207.937C356.879 204.43 353.014 201.01 349.221 199.752C349.043 199.69 348.888 199.893 348.992 200.053C349.956 201.503 351.424 202.824 352.286 204.021C373.062 232.675 381.771 268.177 369.937 302.366C364.657 317.634 355.076 328.045 342.217 337.226C342.139 337.283 342.04 337.273 341.975 337.212L341.825 337.075C341.701 336.959 341.706 336.846 341.834 336.736C351.37 328.408 359.675 317.675 363.662 305.575C363.682 305.51 363.66 305.467 363.602 305.447L363.597 305.446C363.532 305.425 363.487 305.446 363.466 305.505C358.215 319.551 347.779 330.181 334.937 337.56C334.756 337.662 334.589 337.687 334.425 337.634C334.198 337.559 334.177 337.448 334.359 337.294C340.388 332.121 346.871 325.741 350.78 318.78C351.071 318.275 350.998 318.218 350.572 318.624C349.805 319.351 348.978 320.103 347.956 320.569C342.607 323.037 337.055 325.142 331.304 326.881C331.107 326.942 330.962 326.886 330.861 326.705L330.778 326.562C330.727 326.468 330.746 326.404 330.839 326.361C334.204 324.792 337.433 323.036 340.538 321.091C341.912 320.231 344.076 318.634 347.024 316.313C350.787 313.341 354.496 311.364 357.778 307.278C357.829 307.217 357.826 307.16 357.765 307.111L357.761 307.104C357.705 307.056 357.649 307.058 357.589 307.112C350.578 314.223 341.397 318.634 332.171 321.734C331.151 322.075 331.01 321.855 331.75 321.078C331.77 321.058 331.973 320.953 332.361 320.763C341.055 316.514 348.589 310.865 354.977 303.817C355.657 303.07 355.557 302.946 354.686 303.454C353.667 304.046 352.543 305.024 351.493 305.674C346.093 309.041 340.697 311.369 335.084 313.909C334.393 314.216 333.754 314.339 333.157 314.275C332.816 314.234 332.773 314.103 333.036 313.876C336.657 310.767 340.408 308.258 344.377 305.618C349.417 302.263 353.137 298.153 356.672 293.321C356.981 292.903 356.922 292.849 356.506 293.153C352.783 295.888 349.483 298.684 344.834 300.656C340.966 302.295 337.062 303.855 333.132 305.331C332.826 305.448 332.555 305.487 332.329 305.451C332.112 305.418 332.049 305.136 332.228 305.004C336.691 301.827 342.321 298.739 345.875 296.018C349.134 293.535 353.486 289.778 355.391 286.217C355.895 285.278 355.762 285.178 354.986 285.904C351.033 289.637 346.77 292.971 342.192 295.903C341.864 296.113 341.751 296.033 341.859 295.658C341.95 295.337 342.187 295.021 342.559 294.715C348.3 290.003 352.639 284.342 355.573 277.737C355.95 276.89 355.816 276.796 355.162 277.456C350.528 282.152 345.187 285.859 339.153 288.571C338.97 288.65 338.748 288.587 338.645 288.413L338.571 288.293C338.537 288.231 338.555 288.149 338.617 288.107C347.399 282.52 354.377 275.184 359.549 266.1C359.559 266.086 359.546 266.059 359.509 266.036C359.458 266.002 359.41 266.011 359.376 266.057C352.568 274.455 342.698 280.162 332.322 282.902C330.733 283.321 329.133 283.595 327.513 283.725C327.314 283.739 327.176 283.525 327.275 283.353C327.423 283.098 327.64 282.909 327.937 282.791C332.803 280.761 338.489 278.602 342.493 276.131C348.383 272.505 352.985 267.543 356.304 261.258C356.336 261.195 356.314 261.113 356.25 261.081L356.247 261.073C356.167 261.034 356.109 261.047 356.064 261.118C350.872 269.189 341.69 274.822 333.011 278.68C332.937 278.714 332.875 278.699 332.837 278.631L332.717 278.448C332.657 278.358 332.673 278.287 332.767 278.233C340.957 273.236 347.935 268.432 351.591 259.122C351.968 258.155 351.826 258.072 351.163 258.873C346.358 264.671 340.256 268.431 332.854 270.141C332.778 270.158 332.727 270.129 332.71 270.053L332.661 269.781C332.643 269.706 332.677 269.648 332.747 269.619C339.267 267.188 346.364 263.382 350.643 257.814C351.606 256.566 351.473 256.433 350.235 257.412C346.281 260.536 341.669 262.595 336.949 264.283C336.833 264.324 336.706 264.275 336.647 264.169L336.562 264.026C336.522 263.951 336.542 263.898 336.621 263.864C340.179 262.296 342.435 261.243 343.39 260.707C349.277 257.384 353.732 252.681 356.755 246.611C356.788 246.538 356.769 246.477 356.701 246.44L356.697 246.439C356.627 246.399 356.569 246.412 356.524 246.48C352.977 252.337 348.659 256.339 342.397 259.117C340.563 259.929 338.765 260.817 337.008 261.775C336.939 261.811 336.89 261.799 336.848 261.736C336.807 261.672 336.821 261.618 336.88 261.576C338.761 260.218 340.71 258.954 342.723 257.783C343.24 257.483 343.637 257.208 343.894 256.97C344.319 256.574 344.286 256.53 343.79 256.833C341.461 258.251 338.99 259.51 336.375 260.617C335.552 260.96 334.937 261.04 334.528 260.858C334.107 260.676 334.108 260.481 334.521 260.279C336.261 259.441 338.062 258.457 339.931 257.334C346.473 253.386 350.768 246.463 353.283 239.436C353.298 239.38 353.28 239.343 353.231 239.324L353.227 239.323C353.178 239.305 353.135 239.333 353.101 239.408C350.639 245.194 346.97 250.074 342.085 254.037C341.936 254.162 341.707 254.127 341.591 253.965L341.474 253.805C341.431 253.75 341.439 253.663 341.491 253.615C342.43 252.693 343.201 251.641 343.799 250.463C344.266 249.541 344.146 249.466 343.431 250.236C342.12 251.652 340.221 252.704 338.664 253.917C338.6 253.968 338.499 253.952 338.452 253.884L338.295 253.65C338.246 253.574 338.261 253.474 338.331 253.421C340.512 251.71 341.883 250.457 342.444 249.673C345.474 245.422 347.812 240.833 349.454 235.896C349.506 235.732 349.425 235.562 349.272 235.497L349.138 235.442C349.099 235.431 349.075 235.439 349.058 235.471C347.709 238.186 346.194 240.809 344.518 243.337C344.399 243.519 344.335 243.496 344.321 243.285C344.307 243.009 344.341 242.792 344.422 242.63C345.25 241.037 346.004 239.514 346.68 238.049C346.896 237.577 346.83 237.528 346.468 237.908C344.615 239.894 342.921 241.683 340.444 242.98C340.282 243.064 340.097 242.939 340.12 242.759C340.139 242.603 340.221 242.44 340.363 242.262C344.3 237.512 345.661 231.634 347.29 224.95C347.323 224.802 347.265 224.737 347.114 224.748L346.927 224.758C346.893 224.757 346.867 224.771 346.856 224.808C345.256 229.111 340.363 233.489 335.893 234.669C335.62 234.741 335.418 234.421 335.601 234.205C338.864 230.325 342.965 225.542 343.951 220.502C344.128 219.582 343.952 219.503 343.417 220.279C341.576 222.959 339.188 225.008 336.259 226.43C335.916 226.596 335.715 226.493 335.661 226.116L335.63 225.94C335.613 225.824 335.666 225.707 335.762 225.642C338.389 223.812 340.746 222.024 341.121 218.809C341.783 213.073 339.452 208.068 336.172 203.454C336.074 203.311 335.859 203.341 335.8 203.503C334.441 207.387 333.127 211.341 331.633 215.153C322.73 237.917 314.912 259.004 308.772 282.5C302.42 306.815 297.761 331.664 294.797 357.048C293.404 369.01 292.671 380.744 292.993 392.608C293.263 402.708 293.954 412.784 295.051 422.831C296.633 437.292 298.575 451.758 299.588 466.278C299.604 466.537 299.738 466.711 299.986 466.794L308.809 469.779C309.403 469.979 310.033 470.054 310.658 469.997C312.78 469.809 315.053 469.666 317.48 469.571C325.995 469.23 334.047 471.612 339.757 477.823C339.882 477.963 340.05 478.062 340.226 478.118C377.685 489.124 415.192 499.791 452.755 510.125C452.805 510.139 452.824 510.165 452.81 510.214L452.781 510.363C452.755 510.5 452.666 510.56 452.522 510.538C336.655 492.622 220.793 474.661 104.929 456.649C103.801 456.475 102.877 456.309 102.168 456.153C101.932 456.1 101.936 456.077 102.178 456.087L209.039 459.211C209.305 459.218 209.555 459.074 209.683 458.839C214.15 450.71 221.811 447.181 230.798 448.68C237.128 449.739 243.16 453.047 248.712 456.161C251.25 457.581 253.725 458.595 256.145 459.203C259.282 459.99 263.493 459.75 267.107 460.024C267.191 460.032 267.263 459.969 267.265 459.884C267.995 413.833 273.474 368.333 283.696 323.381C286.679 310.262 290.431 296.666 294.939 282.591C300.72 264.56 308.076 246.751 315.773 229.461C319.603 220.853 322.415 213.836 325.034 205.665C325.487 204.24 325.858 202.81 326.137 201.371C326.173 201.189 326.108 201.135 325.942 201.216C320.604 203.758 315.545 206.786 310.759 210.298C306.118 213.71 304.893 217.503 308.231 222.455C308.652 223.081 308.542 223.201 307.892 222.81C305.192 221.183 303.548 218.838 302.957 215.764C302.865 215.292 302.742 215.278 302.574 215.735C300.963 220.217 301.634 224.256 304.574 227.852C304.989 228.365 304.886 228.52 304.257 228.319C302.385 227.735 300.319 224.224 299.523 222.537C298.881 221.177 298.599 219.731 298.673 218.191C298.678 218.119 298.64 218.074 298.567 218.068L298.422 218.05C298.349 218.039 298.305 218.074 298.287 218.149C296.952 224.151 297.428 229.996 299.704 235.682C299.753 235.802 299.627 235.919 299.505 235.865C299.349 235.802 299.202 235.687 299.063 235.523C295.47 231.294 294.208 224.799 296.733 219.659C297.26 218.575 297.162 218.514 296.438 219.477C292.558 224.585 295.494 233.381 296.701 238.726C296.782 239.08 296.658 239.185 296.321 239.047C296.305 239.04 296.25 238.993 296.147 238.889C296.091 238.841 296.05 238.779 296.021 238.711C293.819 233.947 293.156 229.345 292.317 224.236C292.27 223.943 291.9 223.84 291.706 224.066C289.85 226.205 288.949 228.535 289.007 231.053C289.158 237.234 292.156 242.953 294.636 247.829C294.679 247.916 294.646 248.014 294.565 248.062C294.516 248.088 294.463 248.097 294.412 248.097C294.372 248.095 294.336 248.072 294.297 248.037C289.198 243.141 284.622 235.464 283.65 227.789C283.645 227.749 283.622 227.716 283.585 227.7L283.425 227.634C283.27 227.566 283.194 227.615 283.201 227.787C283.68 239.522 288.357 248.715 295.893 257.47C295.99 257.581 295.958 257.751 295.832 257.83L295.658 257.926C295.589 257.967 295.521 257.961 295.462 257.908C286.712 249.853 277.32 241.479 278.33 229.062C278.338 228.971 278.294 228.925 278.202 228.923L278.198 228.922C278.107 228.913 278.061 228.957 278.052 229.046C277.785 232.465 278.073 235.592 278.922 238.444C281.5 247.125 286.158 254.713 292.902 261.209C292.958 261.257 292.955 261.31 292.907 261.363L292.791 261.487C292.688 261.598 292.518 261.598 292.408 261.496C288.145 257.559 285.09 254.196 283.249 251.399C280.685 247.499 279.592 244.286 278.365 240.314C278.349 240.265 278.303 240.234 278.252 240.238C278.199 240.247 278.164 240.287 278.162 240.339C277.841 249.892 283.767 258.659 288.584 266.432C288.775 266.74 288.876 266.931 288.882 267.005C288.944 267.52 288.769 267.624 288.351 267.311C280.921 261.679 276.079 253.079 273.966 244.186C273.809 243.545 273.576 243.509 273.253 244.087C271.313 247.616 273.666 258.261 274.664 262.202C274.692 262.316 274.656 262.401 274.551 262.453C274.502 262.48 274.448 262.494 274.392 262.49C274.352 262.491 274.321 262.474 274.297 262.441C273.712 261.631 273.286 260.89 273.034 260.214C271.336 255.752 270.007 251.269 269.05 246.771C268.922 246.16 268.694 246.125 268.373 246.661C267.086 248.796 265.539 251.112 265.39 253.61C265.155 257.619 266.849 262.432 268.128 266.179C268.437 267.084 268.218 267.244 267.464 266.644C267.408 266.601 267.229 266.357 266.918 265.912C263.961 261.694 262.147 257.141 260.6 252.41C259.891 250.238 259.615 250.292 259.767 252.576C260.345 261.1 264.605 270.887 268.181 279C268.431 279.556 268.568 279.918 268.594 280.081C268.731 280.96 268.503 281.072 267.907 280.406C263.213 275.175 259.266 269.38 256.06 263.022C254.652 260.224 253.674 257.029 252.674 253.983C252.654 253.929 252.617 253.906 252.558 253.919C252.499 253.934 252.477 253.969 252.485 254.027C254.817 266.015 259.841 277.119 265.36 287.919C265.399 287.992 265.374 288.08 265.305 288.126L265.173 288.208C265.035 288.294 264.853 288.254 264.755 288.12C259.167 280.507 253.679 272.661 250.247 263.797C250.226 263.754 250.195 263.738 250.147 263.748L250.146 263.753C250.099 263.769 250.083 263.801 250.093 263.847C250.265 264.561 250.476 265.264 250.725 265.961C254.426 276.315 258.697 286.479 263.538 296.446C263.568 296.507 263.563 296.574 263.521 296.625L263.393 296.793C263.236 297.001 263.083 297 262.928 296.788C256.96 288.583 252.001 279.819 248.049 270.495C247.886 270.111 247.816 270.129 247.826 270.545C248.039 279.399 248.874 288.178 249.459 296.834C249.533 297.896 249.281 297.983 248.704 297.086C248.41 296.631 248.207 295.453 248.037 294.927C246.053 288.696 244.448 282.427 243.225 276.121C243.215 276.073 243.174 276.044 243.128 276.048C243.081 276.058 243.046 276.099 243.045 276.144C243.269 286.288 245.331 295.332 247.842 306.75C247.887 306.939 247.783 307.133 247.602 307.202L247.438 307.268C247.347 307.304 247.246 307.26 247.214 307.17C243.503 296.554 239.737 284.64 239.166 272.368C239.161 272.294 239.121 272.253 239.047 272.253L239.041 272.258C238.967 272.258 238.927 272.298 238.92 272.376C238.697 287.944 241.49 301.177 243.239 315.648C243.252 315.781 243.195 315.857 243.066 315.883L242.92 315.905C242.89 315.918 242.869 315.903 242.858 315.867C240.993 308.78 239.218 301.673 237.522 294.532C233.189 276.26 237.092 257.909 246.807 242.045C252.139 233.333 259.31 225.225 268.316 217.719C278.88 208.922 291.138 201.209 303.95 196.188C304.574 195.939 304.557 195.749 303.903 195.605C300.616 194.912 297.258 195.226 293.828 196.546C290.731 197.742 289.811 199.021 288.434 201.335C288.049 201.985 287.8 201.941 287.688 201.19C287.539 200.213 287.539 199.255 287.685 198.311C287.843 197.261 286.684 196.52 285.798 197.097C284.002 198.268 282.682 199.813 281.839 201.723C281.584 202.303 281.303 202.321 280.985 201.773L280.782 201.428C280.429 200.81 280.353 200.164 280.555 199.479C281.107 197.64 282.146 196.152 283.68 195.022C283.912 194.848 283.891 194.803 283.612 194.88C281.001 195.612 277.071 200.422 277.077 203.171C277.079 203.854 276.901 203.9 276.553 203.319C274.874 200.543 276.681 196.886 278.34 194.478C278.897 193.667 278.794 193.565 278.022 194.18C275.475 196.195 273.865 198.801 273.193 201.997C273.166 202.134 273.078 202.184 272.942 202.146C272.888 202.133 272.841 202.101 272.796 202.06C272.762 202.028 272.741 201.978 272.734 201.914C272.468 199.926 272.793 198.226 273.712 196.819C274.197 196.07 274.082 195.967 273.368 196.499C270.612 198.542 268.81 201.36 267.952 204.95C267.903 205.155 267.822 205.243 267.706 205.215C267.443 205.153 267.227 204.936 267.147 204.646C266.301 201.737 266.205 198.796 266.865 195.825C266.921 195.568 266.854 195.529 266.667 195.71C264.464 197.808 263.8 200.702 262.676 203C262.191 204.003 261.18 204.687 260.657 205.863C260.638 205.911 260.601 205.927 260.553 205.908C260.537 205.9 260.526 205.899 260.516 205.892C260.495 205.881 260.49 205.871 260.506 205.844C261.49 204.009 262.632 201.998 263.108 200.068C263.425 198.788 263.255 198.715 262.595 199.852C259.82 204.658 257.621 209.299 257.176 214.892C257.072 216.145 256.883 216.154 256.611 214.937C255.197 208.616 256.45 203.212 258.841 197.215C258.85 197.2 258.841 197.181 258.826 197.166C258.81 197.159 258.786 197.165 258.778 197.181C254.41 204.344 252.924 213.593 254.582 221.461C254.867 222.816 254.641 222.913 253.897 221.735C253.76 221.516 253.579 221.107 253.359 220.506C251.803 216.277 250.754 211.928 250.201 207.458C250.194 207.393 250.154 207.365 250.091 207.368C250.026 207.375 249.994 207.409 249.989 207.472C249.889 210.063 249.92 212.65 250.087 215.244C250.116 215.675 250.059 216.081 249.924 216.474C249.853 216.674 249.802 216.671 249.773 216.463C248.648 209.478 248.332 203.745 251.161 197.087C251.367 196.601 251.293 196.563 250.953 196.964C250.089 197.984 249.668 199.458 249.225 200.658C247.829 204.421 247.349 208.214 247.792 212.033C248.238 215.867 249.06 219.998 250.249 224.426C250.275 224.515 250.244 224.571 250.155 224.599L250.018 224.634C249.875 224.679 249.723 224.593 249.677 224.452C247.973 219.006 246.534 213.433 246.096 208.408C246.082 208.24 245.847 208.221 245.805 208.38C244.97 211.487 244.545 214.342 244.536 216.936C244.524 219.723 245.076 223.274 245.097 226.406C245.113 228.471 244.856 230.572 245.396 232.551C245.637 233.446 245.899 234.328 246.19 235.203C246.257 235.401 246.223 235.575 246.096 235.739C245.977 235.879 245.877 235.869 245.787 235.713C244.877 234.102 244.282 232.583 243.995 231.171C243.26 227.507 242.449 223.86 241.562 220.23C240.963 217.785 240.401 214.808 240.48 212.757C240.523 211.747 240.485 210.997 240.366 210.521C240.157 209.674 239.985 209.676 239.859 210.527C238.284 220.797 242.066 230.292 245.568 239.802C245.633 239.971 245.443 240.13 245.288 240.032C245.267 240.017 245.211 239.941 245.119 239.797C239.234 230.695 236.539 221.087 235.064 210.456C234.987 209.898 234.825 209.873 234.582 210.374C233.363 212.924 233.494 217.106 233.559 219.911C233.643 223.372 233.89 226.795 234.305 230.171C234.321 230.327 234.256 230.42 234.104 230.447L233.963 230.476C233.763 230.514 233.567 230.391 233.511 230.197C232.715 227.296 232.09 224.329 231.645 221.29C231.276 218.79 230.947 216.327 230.659 213.895C230.583 213.249 230.395 213.212 230.104 213.8C226.665 220.695 226.034 228.356 226.781 236.014C226.935 237.582 226.746 237.628 226.214 236.144C224.47 231.294 223.669 226.077 223.807 220.492C223.809 220.368 223.753 220.325 223.638 220.368C223.567 220.393 223.527 220.431 223.511 220.492C221.723 228.835 224.073 236.347 225.955 244.351C226.1 244.986 225.901 245.13 225.347 244.779C225.244 244.712 225.096 244.496 224.897 244.129C221.636 238.127 218.177 230.252 217.905 223.497C217.836 221.811 217.633 221.796 217.298 223.45C216.639 226.71 216.238 230.213 216.094 233.968C215.968 237.231 217.552 240.698 218.593 243.887C218.652 244.06 218.67 244.165 218.648 244.196C218.486 244.439 218.307 244.45 218.107 244.238C213.317 238.964 211.715 233.712 210.981 226.783C210.971 226.696 210.925 226.659 210.84 226.663L210.834 226.662C210.748 226.666 210.707 226.711 210.71 226.797C210.726 238.619 215.029 249.156 219.269 259.957C219.302 260.041 219.241 260.135 219.151 260.131C219.096 260.129 219.039 260.125 218.988 260.123C218.88 260.124 218.789 260.081 218.718 259.991C215.8 256.074 213.671 252.86 212.338 250.342C209.064 244.172 207.344 237.256 207.185 229.585C207.184 229.522 207.153 229.495 207.091 229.49L207.086 229.489C207.024 229.486 206.996 229.521 206.992 229.584C206.871 232.706 207.084 235.812 207.628 238.901C209.593 250.036 212.39 260.421 217.938 269.866C218.045 270.053 217.991 270.147 217.774 270.153C217.643 270.156 217.503 270.071 217.363 269.908C211.532 263.173 207.444 255.57 205.093 247.114C204.995 246.757 204.965 246.764 205.005 247.127C206.228 258.428 209.038 269.313 213.439 279.78C213.449 279.815 213.439 279.843 213.41 279.855L213.274 279.92C213.134 279.989 212.961 279.928 212.885 279.791C207.352 269.886 203.567 259.634 201.531 249.032C200.875 245.602 200.777 241.861 201.241 237.809C201.247 237.766 201.229 237.744 201.182 237.749C201.135 237.759 201.088 237.764 201.043 237.769C201.014 237.769 200.994 237.788 200.984 237.816C199.462 242.311 198.468 246.929 197.997 251.655C197.786 253.752 197.574 255.85 197.357 257.946C197.339 258.097 197.187 258.198 197.041 258.147C196.896 258.096 196.8 257.985 196.765 257.809C194.654 247.213 196.456 234.303 201.422 224.684C201.423 224.677 201.423 224.677 201.419 224.672L201.292 224.605C201.207 224.565 201.142 224.582 201.101 224.668C196.251 233.754 193.378 243.442 192.477 253.737C192.369 254.981 192.297 255.737 192.262 255.998C192.023 257.978 191.808 257.979 191.61 255.989C189 229.351 204.617 207.3 225.264 192.239C241.673 180.268 260.088 175.012 280.507 176.463C289.467 177.099 298.259 178.677 306.876 181.198C310.32 182.202 313.584 183.417 316.68 184.832C317.763 185.329 317.874 185.165 317.011 184.344C311.702 179.267 304.862 174.195 297.336 172.933C296.842 172.851 296.806 172.68 297.228 172.411L298.94 171.313C299.13 171.189 299.067 170.901 298.844 170.867C296.193 170.434 293.676 170.789 291.288 171.923C290.208 172.431 290.057 172.238 290.839 171.33C291.817 170.198 293.12 169.31 294.755 168.666C296.009 168.172 295.973 168.042 294.649 168.286C293.047 168.577 287.798 169.962 286.644 171.175C286.181 171.66 286.057 171.584 286.269 170.954C287.026 168.713 288.572 167.726 290.984 166.616C291.187 166.524 291.179 166.459 290.958 166.42C288.669 166.036 286.672 166.591 284.957 168.081C284.82 168.196 284.608 168.129 284.561 167.956L284.519 167.82C284.471 167.654 284.511 167.473 284.623 167.337C285.557 166.191 286.721 165.393 288.117 164.941C288.331 164.872 288.324 164.557 288.105 164.501C285.321 163.748 282.518 163.604 279.692 164.074C279.482 164.109 279.321 163.902 279.396 163.711C279.434 163.614 279.526 163.492 279.668 163.348C279.754 163.267 279.737 163.234 279.621 163.251C279.568 163.26 279.514 163.281 279.471 163.301C279.439 163.318 279.412 163.348 279.389 163.385C279.09 163.925 278.673 164.114 278.144 163.971C276.513 163.526 275.288 164.131 274.462 165.781C274.304 166.107 274.058 166.189 273.736 166.032C273.577 165.956 273.516 165.832 273.559 165.664C274.119 163.301 275.335 161.399 277.204 159.946C277.826 159.457 278.613 159.369 279.362 159.195C279.433 159.179 279.425 159.08 279.353 159.068C277.57 158.873 276.005 158.841 274.317 159.645C272.653 160.438 270.69 162.022 268.891 162.282C268.659 162.32 268.587 162.231 268.684 162.011L270.188 158.621C270.221 158.546 270.202 158.494 270.133 158.454L269.999 158.369C269.915 158.325 269.844 158.341 269.792 158.418C268.499 160.303 268.166 162.341 266.762 164.094C266.362 164.59 266.139 164.52 266.095 163.888C265.985 162.469 266.235 161.662 266.618 160.477C267.26 158.504 266.985 158.369 265.799 160.073C265.076 161.107 264.468 162.423 263.978 164.009C263.903 164.232 263.785 164.265 263.623 164.096C262.758 163.226 263.419 161.192 263.621 160.108C263.668 159.884 263.588 159.816 263.373 159.912C262.852 160.155 262.458 160.531 262.187 161.04C262.084 161.224 261.93 161.332 261.717 161.348C261.562 161.358 261.443 161.433 261.35 161.559C261.239 161.717 261.088 161.78 260.895 161.737C259.866 161.515 260.194 160.317 260.305 159.676C260.381 159.217 260.232 159.118 259.844 159.383C258.438 160.347 257.083 160.211 255.767 158.979C255.577 158.807 255.514 158.593 255.58 158.35C256.414 155.172 260.144 153.194 263.168 152.833C263.203 152.826 263.204 152.822 263.166 152.816C261.551 152.66 259.905 152.133 258.391 152.282C254.051 152.699 250.419 155.505 247.04 157.823C245.888 158.615 245.623 158.381 246.243 157.131C246.427 156.755 247.007 156.164 247.984 155.367C248.603 154.861 248.519 154.672 247.732 154.794C246.712 154.953 245.517 155.507 244.143 156.448C242.953 157.264 242.832 157.13 243.778 156.045C244.429 155.3 245.173 154.647 246.008 154.101C246.388 153.847 246.363 153.792 245.926 153.934C243.423 154.747 241.404 156.212 239.864 158.337C239.741 158.498 239.495 158.477 239.403 158.3C239.311 158.126 239.322 157.906 239.447 157.645C240.4 155.612 241.812 153.98 243.691 152.755C243.724 152.73 243.722 152.708 243.675 152.683C243.659 152.676 243.644 152.661 243.635 152.643C243.618 152.606 243.597 152.591 243.573 152.605C239.979 154.031 237.055 156.458 234.806 159.887C234.703 160.042 234.576 160.057 234.429 159.936C234.313 159.844 234.263 159.688 234.297 159.54C235.024 156.575 238.177 153.661 240.641 152.073C242.027 151.168 244.33 150.217 247.54 149.209C250.104 148.409 252.674 147.602 255.244 146.8C255.674 146.669 256.082 146.494 256.475 146.269C256.549 146.232 256.55 146.19 256.476 146.152C256.298 146.049 256.261 145.884 256.37 145.657C256.482 145.413 256.659 145.225 256.896 145.097C258.25 144.324 259.718 143.874 261.302 143.741C263.233 143.574 265.199 144.546 267.068 145.177C267.252 145.24 267.451 145.237 267.631 145.174C268.011 145.04 268.09 145.006 268.514 145.093C286.571 148.827 303.581 156.93 316.907 169.834C317.465 170.381 317.629 170.279 317.385 169.539C316.359 166.398 313.554 162.182 310.191 160.662C310.037 160.591 309.974 160.411 310.043 160.263C310.101 160.141 310.206 160.05 310.364 159.988C310.985 159.756 311.121 158.88 310.628 158.247C309.06 156.215 307.124 155.757 304.822 156.883C304.601 156.99 304.366 156.782 304.436 156.549C305.006 154.741 306.067 154.615 307.658 153.856C307.91 153.729 307.913 153.601 307.667 153.465C304.588 151.791 301.683 151.971 298.962 153.998C298.597 154.27 298.483 154.192 298.619 153.757C299.704 150.241 303.388 148.862 306.977 149.333C307.3 149.375 307.323 149.305 307.048 149.133C306.034 148.482 305.167 148.172 304.446 148.202C300.479 148.36 296.621 148.559 292.861 148.788C291.96 148.842 291.891 148.622 292.645 148.131C295.258 146.424 301.05 146.92 303.845 147.818C303.926 147.843 303.982 147.818 304.011 147.737L304.012 147.732C304.042 147.652 304.016 147.596 303.935 147.566C299.922 145.973 296.135 142.753 292.736 142.59C288.61 142.388 284.609 142.888 280.744 144.085C279.848 144.361 279.69 144.131 280.265 143.392C280.301 143.346 280.509 143.214 280.891 142.984C286.739 139.492 293.716 137.811 300.235 139.708C302.275 140.302 304.264 141.007 306.212 141.83C306.276 141.857 306.346 141.851 306.397 141.807L306.566 141.675C306.605 141.642 306.604 141.613 306.556 141.588C305.065 140.682 303.806 140.073 302.768 139.759C293.247 136.841 282.851 136.505 273.342 139.701C273.132 139.771 272.905 139.736 272.724 139.617L272.585 139.522C272.483 139.448 272.489 139.298 272.601 139.235C281.235 134.677 289.042 131.715 299.056 133.334C299.122 133.344 299.161 133.316 299.176 133.255L299.177 133.25C299.187 133.183 299.16 133.145 299.099 133.131C287.971 130.589 278.316 132.196 267.714 135.577C267.578 135.616 267.427 135.562 267.349 135.44L267.235 135.263C267.166 135.155 267.193 135.086 267.314 135.049L286.759 129.017C287.064 128.92 287.062 128.859 286.741 128.838C276.78 128.091 267.807 130.287 258.508 133.811C258.381 133.859 258.26 133.874 258.132 133.854C257.993 133.838 257.871 133.819 257.776 133.799C257.61 133.769 257.551 133.567 257.676 133.455C264.76 127.231 276.838 123.755 286.542 123.262C286.588 123.26 286.615 123.234 286.616 123.188L286.617 123.183C286.619 123.132 286.606 123.108 286.589 123.106C278.381 122.169 270.451 123.176 262.8 126.12C261.306 126.697 261.171 126.47 262.398 125.444C266.726 121.819 272.268 119.89 278.112 118.256C278.225 118.222 278.309 118.16 278.356 118.072C278.46 117.878 278.395 117.782 278.173 117.787C274.361 117.946 270.249 118.055 266.719 118.634C262.373 119.34 258.145 120.525 254.042 122.192C253.649 122.351 253.333 122.331 253.088 122.117C252.922 121.973 252.928 121.717 253.09 121.584C257.911 117.604 265.449 114.83 271.232 113.516C272.623 113.202 272.604 113.023 271.177 112.985C262.514 112.745 253.59 113.482 244.402 115.196C244.039 115.26 243.729 115.246 243.47 115.154C243.265 115.084 243.234 114.804 243.418 114.685C244.169 114.2 244.907 113.809 245.619 113.51C253.062 110.401 259.637 108.007 268.327 107.931C268.39 107.928 268.438 107.88 268.441 107.824C268.439 107.76 268.395 107.709 268.333 107.704Z" fill="#0E3B26"/>
<ellipse cx="182.039" cy="36.8699" rx="182.039" ry="36.8699" transform="matrix(0.99477 0.102143 -0.102311 0.994752 89.2236 431.635)" fill="#0E3B26"/>
<defs>
<linearGradient id="paint0_linear_664_3" x1="157.895" y1="126.318" x2="157.895" y2="410.529" gradientUnits="userSpaceOnUse">
<stop stop-color="#F6C667"/>
<stop offset="1" stop-color="#E9A93A"/>
</linearGradient>
<linearGradient id="paint1_linear_664_3" x1="-15.7891" y1="300.004" x2="-15.7891" y2="615.793" gradientUnits="userSpaceOnUse">
<stop stop-color="#5FBF9F"/>
<stop offset="1" stop-color="#1F7A5C"/>
</linearGradient>
</defs>
</svg>
