<svg xmlns="http://www.w3.org/2000/svg" viewBox="0 0 24 24" fill="none" stroke="#CAA647" stroke-width="1.5" stroke-linecap="round" stroke-linejoin="round">
  <!-- umbrella dome -->
  <path d="M3.5 13a8.5 7 0 0 1 17 0Z"/>
  <!-- umbrella pole -->
  <line x1="12" y1="13" x2="10.5" y2="21"/>
  <!-- beach mat base -->
  <line x1="8" y1="21" x2="14" y2="21"/>
  <!-- sun -->
  <circle cx="19.5" cy="5" r="2"/>
  <!-- sun rays -->
  <line x1="19.5" y1="2" x2="19.5" y2="1"/>
  <line x1="19.5" y1="8" x2="19.5" y2="9"/>
  <line x1="16.5" y1="5" x2="15.5" y2="5"/>
  <line x1="22.5" y1="5" x2="23.5" y2="5"/>
  <line x1="17.4" y1="2.9" x2="16.7" y2="2.2"/>
  <line x1="21.6" y1="7.1" x2="22.3" y2="7.8"/>
  <!-- waves -->
  <path d="M1 19.5c1-1 2-1 3 0s2 1 3 0 2-1 3 0 2 1 3 0 2-1 3 0"/>
</svg>
