<svg xmlns="http://www.w3.org/2000/svg" viewBox="0 0 24 24" fill="none" stroke="currentColor" stroke-width="1.5" stroke-linecap="round" stroke-linejoin="round">
  <!-- ship deck / superstructure -->
  <rect x="7" y="7" width="10" height="6" rx="0.5"/>
  <!-- funnel / chimney -->
  <rect x="10" y="4" width="2.5" height="4" rx="0.5"/>
  <!-- smoke puffs -->
  <circle cx="11.25" cy="3" r="0.75"/>
  <circle cx="12.5" cy="2" r="0.5"/>
  <!-- windows on superstructure -->
  <circle cx="9.5" cy="10" r="0.75"/>
  <circle cx="12" cy="10" r="0.75"/>
  <circle cx="14.5" cy="10" r="0.75"/>
  <!-- hull -->
  <path d="M3 13h18l-1.5 5a1 1 0 0 1-1 .8H5.5a1 1 0 0 1-1-.8Z"/>
  <!-- waterline / waves -->
  <path d="M1 20c1-1 2-1 3 0s2 1 3 0 2-1 3 0 2 1 3 0 2-1 3 0 2 1 3 0"/>
</svg>
