<svg width="301" height="301" viewBox="0 0 301 301" fill="none" xmlns="http://www.w3.org/2000/svg">
<path d="M150.417 300.833C233.49 300.833 300.833 233.49 300.833 150.417C300.833 67.3438 233.49 0 150.417 0C67.3438 0 0 67.3438 0 150.417C0 233.49 67.3438 300.833 150.417 300.833Z" fill="#1ACA18"/>
<mask id="mask0_692_26" style="mask-type:luminance" maskUnits="userSpaceOnUse" x="15" y="15" width="270" height="270">
<path d="M150.416 285.001C224.745 285.001 285 224.746 285 150.417C285 76.089 224.745 15.834 150.416 15.834C76.088 15.834 15.833 76.089 15.833 150.417C15.833 224.746 76.088 285.001 150.416 285.001Z" fill="white"/>
</mask>
<g mask="url(#mask0_692_26)">
<path d="M150.416 205.834C189.766 205.834 221.666 173.934 221.666 134.584C221.666 95.2337 189.766 63.334 150.416 63.334C111.066 63.334 79.166 95.2337 79.166 134.584C79.166 173.934 111.066 205.834 150.416 205.834Z" fill="url(#paint0_linear_692_26)"/>
<path d="M308.75 150.418H-7.91699V308.751H308.75V150.418Z" fill="url(#paint1_linear_692_26)"/>
<path opacity="0.8" d="M15.833 182.084C42.2219 166.251 68.6108 166.251 94.9997 182.084C121.389 197.917 147.777 197.917 174.166 182.084C200.555 166.251 226.944 166.251 253.333 182.084C279.722 197.917 306.111 197.917 332.5 182.084" stroke="white" stroke-width="3"/>
<path opacity="0.6" d="M15.833 213.75C42.2219 197.917 68.6108 197.917 94.9997 213.75C121.389 229.583 147.777 229.583 174.166 213.75C200.555 197.917 226.944 197.917 253.333 213.75C279.722 229.583 306.111 229.583 332.5 213.75" stroke="white" stroke-width="2"/>
<path d="M-7.91699 261.25C55.4163 229.583 118.75 229.583 182.083 261.25C245.416 292.917 298.194 292.917 340.416 261.25V308.75H-7.91699V261.25Z" fill="#1ACA18"/>
</g>
<path d="M221.519 134.837C221.515 134.799 221.481 134.772 221.445 134.775L221.398 134.779C221.359 134.783 221.332 134.817 221.336 134.855L221.644 138.034C221.649 138.072 221.682 138.099 221.72 138.097L221.766 138.092C221.805 138.088 221.832 138.055 221.827 138.017L221.519 134.837ZM185.098 122.831C183.465 121.941 181.225 121.558 179.365 122.197C179.194 122.256 179.195 122.3 179.375 122.329C182.5 122.867 184.69 123.711 187.309 124.773C187.393 124.808 187.405 124.789 187.343 124.723C186.676 124.004 185.941 123.292 185.098 122.831ZM186.074 121.168C186.043 121.149 186.02 121.126 186.002 121.099C185.994 121.087 185.99 121.088 185.991 121.101C185.99 121.106 185.991 121.112 185.996 121.115C186.84 122.204 187.684 123.504 188.529 125.015C188.599 125.141 188.701 125.229 188.835 125.28L189.231 125.435C189.399 125.498 189.445 125.447 189.374 125.284C188.648 123.583 187.546 122.212 186.074 121.168ZM191.558 126.581C191.606 126.607 191.659 126.56 191.643 126.51C191.092 124.751 190.261 123.136 189.144 121.669C189.122 121.638 189.094 121.636 189.061 121.657L188.993 121.705C188.987 121.71 188.987 121.718 188.992 121.723C189.852 122.815 190.287 124.196 190.294 125.867C190.294 125.918 190.318 125.958 190.363 125.979L191.558 126.581ZM141.744 108.956C142.417 108.807 143.017 108.429 143.778 108.383C143.813 108.383 143.832 108.363 143.831 108.329L143.829 108.326C143.829 108.303 143.815 108.293 143.79 108.289C143.026 108.233 142.329 108.42 141.7 108.853C141.539 108.963 141.555 108.998 141.744 108.956ZM135.259 104.884C134.652 105.093 134.036 105.293 133.513 105.679C133.488 105.698 133.484 105.72 133.502 105.747L133.501 105.749C133.515 105.771 133.532 105.779 133.549 105.773L135.332 104.922C135.34 104.919 135.34 104.906 135.334 104.9C135.329 104.895 135.325 104.892 135.323 104.89C135.307 104.878 135.284 104.876 135.259 104.884ZM133.655 100.606C134.544 100.523 135.18 100.771 135.939 100.813C135.988 100.815 135.993 100.806 135.949 100.779C135.928 100.767 135.904 100.756 135.876 100.751C135.81 100.741 135.768 100.732 135.751 100.723C135.089 100.438 134.392 100.337 133.656 100.419C133.614 100.423 133.594 100.446 133.598 100.49L133.599 100.559C133.6 100.592 133.621 100.607 133.655 100.606ZM139.279 101.391C139.307 101.351 139.147 101.193 138.924 101.038C138.701 100.883 138.496 100.787 138.469 100.827C138.44 100.867 138.602 101.024 138.824 101.181C139.047 101.335 139.252 101.432 139.279 101.391ZM198.396 98.0045C199.521 98.3526 200.482 98.7239 201.589 99.3706C201.625 99.3914 201.65 99.3829 201.665 99.345L201.689 99.2838C201.693 99.2746 201.689 99.2659 201.682 99.2623C200.718 98.5116 199.628 98.0745 198.407 97.95C198.211 97.9277 198.207 97.9471 198.396 98.0045ZM139.446 83.6045C138.057 83.4166 136.421 83.3446 134.542 83.3856C130.893 83.4648 127.902 83.6115 125.562 83.8288C125.522 83.8308 125.484 83.8006 125.482 83.76L125.477 83.6837C125.47 83.5997 125.528 83.5252 125.61 83.5049C130.884 82.2871 136.055 81.5599 141.484 81.8675C141.502 81.869 141.511 81.863 141.515 81.8458C141.516 81.8424 141.517 81.8382 141.515 81.8343C141.516 81.8272 141.515 81.8212 141.507 81.8226C134.95 81.0535 128.357 81.9892 121.801 81.4206C121.27 81.3744 121.231 81.2098 121.683 80.927C121.698 80.92 121.811 80.9007 122.029 80.8705C126.879 80.1804 131.599 79.8075 136.195 79.7463C136.842 79.7354 136.848 79.6663 136.215 79.5365C131.494 78.5641 126.723 77.6031 121.973 76.4322C121.915 76.4183 121.896 76.3491 121.934 76.3043C121.998 76.2314 122.078 76.1983 122.173 76.2056C126.14 76.4356 130.068 76.7763 133.958 77.2201C134.139 77.2414 134.143 77.2208 133.972 77.1623C133.667 77.0565 133.301 76.96 132.872 76.8722C128.563 75.9921 124.176 75.3135 119.718 74.8314C119.611 74.8196 119.568 74.7617 119.592 74.6535L119.621 74.5374C119.641 74.4573 119.71 74.3989 119.793 74.4002C123.42 74.3791 127.033 74.5913 130.631 75.0393C130.644 75.0386 130.651 75.0299 130.656 75.0073L130.656 75.0052C130.658 74.982 130.65 74.9703 130.628 74.9657C124.903 73.7546 119.115 73.0073 113.262 72.719C113.228 72.7165 113.211 72.6973 113.21 72.6638L113.209 72.5962C113.21 72.5539 113.23 72.5322 113.272 72.5274C123.223 71.7609 133.561 73.4715 142.771 77.2742C155.359 82.4731 162.547 93.2668 164.808 106.341C164.813 106.376 164.836 106.394 164.871 106.388L164.874 106.388C164.909 106.383 164.926 106.363 164.923 106.328C164.351 98.7827 165.991 91.4501 170.545 85.5538C175.106 79.6512 181.775 74.8799 188.351 71.7686C192.484 69.814 196.676 68.7297 200.925 68.5144C200.962 68.5141 200.994 68.5207 201.02 68.534C201.065 68.5554 201.089 68.5794 201.091 68.6057C201.099 68.6721 201.056 68.7373 200.99 68.7539C199.619 69.1127 198.252 69.4846 196.893 69.8747C194.042 70.6906 191.344 71.8604 188.8 73.381C188.782 73.393 188.778 73.4081 188.787 73.4277C188.796 73.4484 188.813 73.452 188.833 73.4429C192.01 71.9365 195.151 70.7512 198.605 70.2532C200.675 69.9526 202.939 69.6202 205.024 69.8432C205.101 69.8511 205.117 69.9562 205.047 69.9867C204.801 70.0933 204.554 70.1512 204.304 70.1604C201.361 70.2699 198.587 70.8497 195.981 71.9017C195.614 72.0485 195.629 72.101 196.022 72.0636C197.362 71.9296 198.701 71.7601 200.029 71.5592C200.548 71.481 200.592 71.5761 200.153 71.8437C200.014 71.9292 199.797 72.0313 199.498 72.1474C195.78 73.6086 191.613 74.5988 187.802 76.3458C187.771 76.3609 187.763 76.3852 187.775 76.4164L187.777 76.419C187.788 76.4506 187.813 76.4601 187.844 76.4484C190.229 75.6277 193.015 75.4312 195.525 75.3372C198.173 75.2356 201.175 75.2688 204.53 75.4362C204.746 75.4466 204.923 75.5302 205.072 75.6862L205.127 75.7412C205.199 75.8163 205.153 75.9425 205.049 75.9523C202.131 76.2363 199.705 76.4517 197.768 76.5984C195.727 76.7503 193.754 76.9702 191.855 77.2541C191.432 77.3166 191.435 77.3484 191.861 77.3514C195.314 77.3858 198.741 77.6999 202.143 78.289C202.194 78.2964 202.219 78.3517 202.197 78.3963L202.158 78.4723C202.115 78.5523 202.03 78.6017 201.939 78.599C196.202 78.3997 190.561 79.0262 185.012 80.4801C184.992 80.4839 184.987 80.4986 184.99 80.5207L184.992 80.5232C184.998 80.5476 185.012 80.5562 185.036 80.5501C189.632 79.6838 194.237 79.6828 198.847 80.5483C199.045 80.5863 199.16 80.6099 199.189 80.6236C199.577 80.7992 199.559 80.9076 199.136 80.9486C197.984 81.0624 196.904 81.1312 195.615 81.1385C192.215 81.1544 188.866 81.5987 185.574 82.4651C185.543 82.4746 185.523 82.5042 185.531 82.535L185.546 82.6108C185.548 82.6146 185.55 82.6174 185.555 82.6162C188.714 82.1283 192.335 82.4756 195.241 83.8579C195.582 84.0219 195.574 84.166 195.217 84.2909C195.191 84.2993 195.081 84.2898 194.886 84.2622C190.397 83.6357 186.137 83.8582 182.077 86.0172C182.043 86.0325 182.034 86.0595 182.05 86.0977L182.049 86.0998C182.065 86.1368 182.094 86.1479 182.132 86.1347C184.667 85.2058 187.909 85.4419 190.481 86.1151C190.559 86.1367 190.604 86.2187 190.578 86.2941C190.54 86.4193 190.431 86.4781 190.256 86.4733C186.364 86.3932 182.597 87.0204 179.132 88.8663C179.105 88.8822 179.096 88.915 179.114 88.941L179.156 89.0047C179.164 89.0142 179.174 89.0184 179.186 89.013C180.271 88.5971 181.007 88.3565 181.388 88.296C184.974 87.721 189.358 88.1305 192.53 89.9927C192.886 90.2047 193.175 90.4326 193.387 90.6821C193.579 90.9073 193.533 90.9754 193.251 90.8895C190.628 90.0791 187.592 89.4049 185.011 89.7421C183.747 89.9089 182.295 90.3696 180.656 91.1302C180.62 91.1465 180.611 91.1704 180.625 91.2043L180.627 91.2047C180.641 91.2392 180.665 91.2497 180.698 91.2374C183.587 90.1941 187.351 91.069 190.081 91.761C190.207 91.7915 190.205 91.82 190.079 91.8494C189.855 91.8975 189.653 91.9051 189.471 91.8736C186.215 91.28 183.208 91.0055 179.995 91.9983C178.636 92.4165 177.314 92.931 176.033 93.5374C176.006 93.55 175.996 93.5715 176.01 93.5979L176.012 93.6005C176.025 93.6269 176.044 93.6359 176.072 93.6237C180.271 91.7951 184.266 92.1897 188.56 93.414C188.638 93.4345 188.681 93.5215 188.647 93.5986L188.615 93.6673C188.599 93.7085 188.566 93.7276 188.52 93.7204C187.31 93.5746 186.094 93.5035 184.873 93.5112C181.312 93.5357 178.002 94.9608 175.229 97.14C175.201 97.1622 175.195 97.1903 175.218 97.223L175.22 97.2234C175.241 97.2566 175.269 97.2603 175.301 97.2378C178.408 95.0207 182.013 94.901 185.551 96.1382C186.183 96.3594 186.165 96.4497 185.497 96.4039C183.199 96.2524 180.552 96.3328 178.525 97.6841C177.409 98.4285 176.398 99.2205 175.489 100.059C175.038 100.475 175.087 100.544 175.635 100.266C177.075 99.5394 178.601 98.6616 180.442 98.7026C180.484 98.7034 180.517 98.7359 180.519 98.7752L180.524 98.8502C180.532 98.9322 180.49 98.9789 180.408 98.9879C178.622 99.172 177.409 99.9517 175.971 100.669C175.683 100.811 175.693 100.838 176 100.751C177.058 100.445 179.146 100.2 179.982 101.087C180.372 101.497 180.293 101.622 179.75 101.467C178.573 101.128 175.055 102.245 174.127 103.059C174.115 103.07 174.127 103.087 174.141 103.083C175.711 102.496 177.159 102.602 178.49 103.399C178.676 103.511 178.696 103.627 178.549 103.745C178.502 103.785 178.436 103.798 178.377 103.78C177.461 103.522 176.567 103.58 175.697 103.949C175.466 104.045 175.47 104.137 175.707 104.222C176.148 104.377 176.553 104.664 176.92 105.081C176.974 105.141 177.001 105.199 177.002 105.254C177.003 105.288 176.996 105.321 176.982 105.349C176.945 105.43 176.887 105.447 176.811 105.4C176.316 105.101 175.773 104.968 175.184 105.002C175.086 105.008 175 105.045 174.931 105.115L173.844 106.16C173.772 106.228 173.797 106.349 173.89 106.384C174.28 106.53 174.637 106.737 174.959 107.001C175.094 107.113 175.058 107.324 174.897 107.384C172.357 108.344 171.002 112.254 170.669 114.665C170.638 114.892 170.69 114.912 170.819 114.721C176.676 106.259 183.573 99.153 193.246 95.0118C193.529 94.8896 193.598 94.9661 193.451 95.2362L193.228 95.6506C193.206 95.6878 193.217 95.7136 193.259 95.7265C193.286 95.7357 193.308 95.7287 193.328 95.707C194.229 94.7537 196.436 93.284 197.826 93.9338C198.033 94.031 198.025 94.1081 197.805 94.167L195.309 94.834C195.279 94.8411 195.269 94.8547 195.273 94.8747L195.274 94.8772C195.278 94.8981 195.292 94.9066 195.316 94.9015C197.005 94.5137 199.616 94.6184 201.009 95.1465C201.436 95.3069 201.809 95.4069 202.133 95.444C203.829 95.6434 205.275 95.9932 206.474 96.5021C208.219 97.2412 210.956 99.0344 211.522 100.977C211.537 101.029 211.509 101.086 211.458 101.109C211.366 101.145 211.282 101.112 211.206 101.012C209.707 98.9983 208.05 98.1215 205.847 97.0601C205.822 97.0471 205.799 97.0525 205.786 97.0792L205.786 97.0813C205.773 97.1074 205.781 97.1306 205.807 97.1436C206.992 97.7324 208.777 99.0632 209.046 100.462C209.119 100.834 209.013 100.893 208.728 100.644C208.313 100.278 207.976 99.7581 207.529 99.4159C207.044 99.0431 206.58 98.7465 206.137 98.5305C205.841 98.3833 205.811 98.4245 206.051 98.6538C206.428 99.0101 206.627 99.4493 206.651 99.9739C206.654 100.118 206.494 100.21 206.373 100.131C204.515 98.9394 202.089 97.1641 199.724 97.4545C199.42 97.4942 199.113 97.5019 198.804 97.4779C198.796 97.4785 198.796 97.4785 198.804 97.48C200.29 97.9278 201.723 98.7935 202.533 100.161C202.606 100.286 202.536 100.448 202.393 100.482C201.725 100.643 201.15 100.965 200.668 101.449C200.611 101.505 200.542 101.527 200.461 101.518C199.837 101.44 199.258 101.233 198.725 100.9C198.706 100.888 198.686 100.899 198.661 100.928L198.661 100.93C198.636 100.962 198.64 100.992 198.672 101.016C199.263 101.485 199.582 102.058 199.621 102.742C199.647 103.177 199.546 103.211 199.317 102.838C198.844 102.074 198.168 101.284 197.294 100.875C197.158 100.81 197.136 100.84 197.224 100.96C197.415 101.215 197.721 101.399 197.891 101.616C198.339 102.194 198.554 102.792 198.54 103.405C198.534 103.667 198.459 103.685 198.319 103.466L196.686 100.891C196.673 100.87 196.655 100.867 196.635 100.88L196.58 100.92C196.549 100.939 196.543 100.964 196.564 100.997C196.966 101.643 197.517 102.483 197.529 103.151C197.531 103.258 197.483 103.287 197.386 103.244C196.067 102.624 193.554 100.506 192.107 101.154C191.986 101.207 191.993 101.24 192.124 101.251C192.775 101.306 193.345 101.545 193.836 101.967C193.891 102.015 193.885 102.101 193.822 102.139C193.756 102.18 193.673 102.181 193.568 102.144C192.777 101.862 191.959 101.734 191.121 101.757C191.092 101.76 191.076 101.775 191.076 101.803L191.075 101.806C191.072 101.833 191.086 101.853 191.117 101.856C192.279 101.997 195.034 103.615 195.208 104.897C195.237 105.12 195.166 105.16 194.992 105.016C194.338 104.464 193.545 103.868 192.625 103.852C191.365 103.832 190.143 104.025 188.954 104.431C188.926 104.441 188.917 104.46 188.925 104.485L188.924 104.488C188.932 104.515 188.95 104.524 188.979 104.517C189.785 104.328 190.615 104.262 191.468 104.322C191.504 104.325 191.535 104.354 191.535 104.39L191.536 104.485C191.537 104.522 191.513 104.551 191.475 104.555C189.293 104.777 188.043 105.155 186.352 105.964C186.341 105.97 186.348 105.984 186.358 105.983C186.857 105.926 187.375 105.728 187.841 105.81C188.426 105.911 188.884 106.19 189.212 106.648C189.368 106.87 189.322 106.926 189.073 106.818C188.154 106.422 187.202 106.305 186.215 106.47C186.081 106.492 186.077 106.528 186.199 106.583C187.013 106.928 187.707 107.433 188.285 108.091C188.485 108.323 188.434 108.42 188.131 108.381C187.354 108.285 186.692 107.68 185.836 107.806C185.182 107.905 184.527 107.987 183.872 108.059C183.849 108.062 183.835 108.075 183.837 108.101L183.837 108.104C183.838 108.128 183.843 108.139 183.851 108.138C185.116 108.197 186.262 108.598 187.289 109.343C187.332 109.375 187.335 109.413 187.296 109.449C187.277 109.466 187.26 109.483 187.244 109.499C187.237 109.505 187.229 109.508 187.221 109.506C186.248 109.275 183.38 108.739 182.585 109.493C182.511 109.567 182.523 109.609 182.628 109.617C183.359 109.686 184.065 109.854 184.745 110.121C185.175 110.29 185.161 110.386 184.7 110.409C181.302 110.576 177.728 114.326 175.394 116.949C175.241 117.119 175.27 117.155 175.475 117.06C182.514 113.777 190.388 112.148 198.182 112.664C212.974 113.645 224.416 124.702 226.727 139.169C227.053 141.19 227.221 143.856 227.237 147.166C227.237 147.257 227.193 147.292 227.105 147.266L227.02 147.245C226.998 147.237 226.986 147.222 226.983 147.197C226.44 141.797 225.147 136.449 222.771 131.644C222.528 131.158 221.908 130.141 220.913 128.599C220.897 128.572 220.876 128.568 220.851 128.586L220.849 128.586C220.822 128.604 220.818 128.624 220.836 128.649C224.252 134.001 225.48 139.704 225.192 145.578C225.151 146.454 224.997 147.3 224.735 148.119C224.715 148.188 224.636 148.217 224.576 148.176C224.515 148.137 224.456 148.033 224.451 147.954C224.221 145.151 223.735 142.401 222.993 139.701C222.973 139.627 222.959 139.628 222.951 139.705C222.417 145.345 220.815 150.658 218.15 155.645C218.121 155.701 218.049 155.72 217.993 155.685L217.929 155.643C217.884 155.616 217.872 155.578 217.889 155.531C219.028 152.381 219.81 149.268 220.229 146.192C220.511 144.112 220.752 142.536 220.942 141.464C220.944 141.444 220.937 141.431 220.916 141.425L220.914 141.425C220.897 141.421 220.886 141.423 220.88 141.436C220.027 144.2 218.822 146.799 217.271 149.236C217.012 149.639 216.904 149.609 216.946 149.149C216.952 149.11 216.995 148.976 217.076 148.745C218.25 145.461 219.297 141.745 219.51 138.478C219.595 137.156 219.589 135.151 219.492 132.463C219.491 132.421 219.469 132.398 219.425 132.397L219.351 132.398C219.317 132.399 219.288 132.426 219.286 132.463C219.262 133.194 219.239 133.913 219.216 134.626C219.1 138.184 218.247 141.493 216.649 144.56C216.628 144.603 216.576 144.624 216.529 144.606C216.484 144.589 216.456 144.542 216.469 144.494C217.096 141.824 217.879 139.392 218.25 136.789C218.278 136.589 218.265 136.359 218.211 136.105C218.184 135.991 218.156 135.989 218.119 136.102C217.9 136.801 217.692 137.499 217.494 138.197C217.42 138.458 217.376 138.595 217.365 138.611C216.948 139.092 216.769 139.016 216.832 138.382C216.949 137.19 217.195 135.882 217.225 134.743C217.278 132.701 217.111 130.776 216.723 128.965C216.55 128.143 216.443 128.15 216.404 128.99C216.283 131.699 215.631 135.426 213.95 137.807C213.872 137.914 213.81 137.907 213.766 137.785C213.673 137.55 213.633 137.312 213.646 137.077C213.848 133.379 213.885 130.923 213.17 127.698C213.069 127.235 212.935 126.853 212.777 126.547C212.741 126.477 212.634 126.507 212.64 126.587C212.92 129.505 212.862 131.987 212.33 134.804C212.296 134.978 212.233 134.991 212.139 134.839C212.137 134.835 212.135 134.786 212.129 134.683C211.975 131.044 210.999 127.638 209.203 124.467C209.151 124.375 209.089 124.313 209.022 124.278C208.957 124.247 208.885 124.305 208.905 124.374C209.418 126.127 210.083 128.447 210.088 130.12C210.09 130.963 209.968 130.983 209.727 130.174C208.737 126.865 207.33 123.739 205.511 120.798C205.494 120.768 205.469 120.763 205.44 120.78L205.384 120.813C205.318 120.852 205.292 120.938 205.328 121.008C207.253 124.79 207.547 128.827 206.763 132.872C206.685 133.262 206.611 133.527 206.533 133.665C206.3 134.076 206.174 134.05 206.155 133.587C206.123 132.811 206.084 131.958 206.038 131.022C205.84 126.996 204.439 123.369 202.482 119.895C202.468 119.875 202.452 119.868 202.427 119.882L202.425 119.882C202.404 119.893 202.398 119.91 202.409 119.935C204.208 123.697 205 128.084 205.21 132.231C205.213 132.281 205.186 132.309 205.136 132.315L205.066 132.321C205.034 132.325 205.016 132.31 205.01 132.278C204.398 128.011 202.963 123.88 200.27 120.7C199.783 120.123 199.695 120.178 200.011 120.865C201.151 123.355 202.135 126.895 201.927 129.862C201.919 129.951 201.844 130.012 201.758 130.002C201.676 129.993 201.623 129.947 201.598 129.861C201.241 128.64 200.821 127.44 200.343 126.263C199.921 125.216 199.244 123.318 198.523 122.252C198.125 121.661 197.417 120.909 196.398 119.993C196.373 119.973 196.352 119.973 196.329 119.997L196.329 119.999C196.306 120.023 196.309 120.046 196.333 120.065C198.576 121.947 199.084 125.047 198.727 127.755C198.681 128.094 198.606 128.101 198.499 127.773C197.723 125.389 196.917 123.349 195.325 121.379C194.627 120.514 193.667 119.796 192.757 119.178C191.88 118.58 191.815 118.657 192.56 119.414C194.344 121.221 194.64 123.551 194.676 126.138C194.679 126.251 194.523 126.286 194.476 126.183C193.953 125.019 193.474 123.667 192.864 122.659C192.248 121.65 191.52 120.718 190.682 119.871C190.668 119.855 190.65 119.854 190.633 119.869L190.631 119.869C190.615 119.883 190.611 119.9 190.625 119.919C191.483 121.073 192.068 122.158 192.732 123.327C193.401 124.51 193.477 125.665 193.888 126.899C193.932 127.028 193.884 127.081 193.75 127.062C193.633 127.043 193.548 126.911 193.496 126.666C193.211 125.321 192.729 124.054 192.057 122.865C192.052 122.859 192.043 122.854 192.037 122.856C192.029 122.859 192.025 122.866 192.025 122.874C192.244 123.85 192.341 124.85 192.318 125.881C192.312 126.164 192.209 126.412 192.155 126.714C192.139 126.802 192.171 126.869 192.249 126.911C204.835 133.805 215.246 147.931 213.649 162.838C213.339 165.724 212.584 168.744 211.386 171.897C211.37 171.938 211.344 171.948 211.304 171.93L211.221 171.889C211.181 171.87 211.164 171.838 211.174 171.791C212.555 165.651 212.887 159.236 211.071 153.193C211.061 153.163 211.043 153.154 211.015 153.161L211.013 153.161C210.982 153.167 210.974 153.186 210.98 153.217C212.466 159.074 211.949 164.978 209.319 170.305C209.134 170.682 209.033 170.878 209.017 170.898C208.459 171.569 208.295 171.488 208.525 170.662C209.196 168.251 209.646 165.797 209.879 163.302C209.906 163.007 209.839 162.986 209.68 163.235C207.02 167.44 203.824 171.05 200.091 174.065C199.906 174.213 199.725 174.311 199.542 174.36C199.395 174.4 199.372 174.361 199.471 174.243C200.268 173.327 201.062 172.409 201.849 171.493C204.345 168.577 206.3 165.33 207.716 161.756C208.079 160.836 208.439 159.916 208.797 159.001C208.802 158.988 208.797 158.983 208.788 158.979L208.726 158.95C208.686 158.931 208.635 158.95 208.617 158.99C206.758 162.739 204.885 165.699 201.367 168.082C200.524 168.653 200.419 168.54 201.052 167.744C202.668 165.709 204.244 163.36 205.774 160.701C206.201 159.954 206.716 158.771 207.317 157.149C207.329 157.117 207.313 157.08 207.28 157.065L207.215 157.039C207.193 157.031 207.178 157.036 207.169 157.056C206.225 159.282 204.309 161.251 202.476 162.722C202.229 162.92 202.157 162.868 202.255 162.567C202.275 162.504 202.329 162.395 202.415 162.243C204.295 158.937 205.872 156.049 206.388 152.226C206.422 151.973 206.394 151.968 206.304 152.207C205.119 155.371 203.28 158.091 200.789 160.369C200.478 160.651 200.378 160.593 200.489 160.187C201.495 156.467 203.597 153.04 204.024 149.471C204.1 148.831 204.017 148.812 203.778 149.407C203.133 151.01 202.329 152.533 201.368 153.976C201.217 154.204 201.154 154.18 201.176 153.911C201.398 151.171 201.884 148.581 201.74 145.793C201.735 145.677 201.72 145.611 201.7 145.594C201.612 145.529 201.548 145.56 201.514 145.686L200.551 149.186C200.526 149.269 200.429 149.308 200.355 149.262C200.269 149.211 200.226 149.103 200.222 148.942C200.157 146.929 199.947 144.977 199.586 143.09C199.537 142.837 199.482 142.836 199.422 143.088C198.499 147.004 196.85 150.463 194.066 153.457C193.925 153.608 193.778 153.696 193.629 153.714C193.538 153.727 193.47 153.633 193.511 153.551C194.686 151.117 195.555 149.234 196.115 147.907C197.427 144.792 197.873 141.597 197.451 138.32C197.423 138.1 197.399 138.101 197.38 138.322C196.973 142.931 194.874 147.386 192.647 151.418C192.61 151.487 192.561 151.493 192.508 151.435L192.463 151.386C192.448 151.373 192.446 151.357 192.454 151.341C193.709 148.358 194.806 145.231 194.841 142.04C194.854 140.848 194.761 139.353 194.559 137.551C194.555 137.505 194.528 137.482 194.484 137.483L194.421 137.486C194.418 137.485 194.415 137.488 194.414 137.492C194.371 138.498 194.357 139.562 194.122 140.518C193.652 142.444 192.879 144.249 191.811 145.932C191.746 146.037 191.666 146.093 191.573 146.1C191.485 146.105 191.455 146.068 191.484 145.983C192.71 142.527 192.823 139.05 191.823 135.554C191.673 135.027 191.61 135.038 191.642 135.584C191.815 138.616 191.203 141.483 189.812 144.185C189.786 144.234 189.745 144.252 189.693 144.239C189.671 144.231 189.649 144.222 189.628 144.21C189.597 144.188 189.584 144.156 189.59 144.118C189.694 143.456 189.795 142.796 189.892 142.135C190.311 139.313 189.965 136.592 188.851 133.978C188.561 133.295 188.219 132.737 187.833 132.306C187.472 131.9 187.432 131.929 187.716 132.392C188.791 134.142 188.846 137.521 188.455 139.54C188.439 139.628 188.39 139.649 188.314 139.606C188.243 139.565 188.205 139.507 188.202 139.434C188.072 136.95 187.327 133.496 185.011 132.111C184.936 132.068 184.845 132.127 184.857 132.212C185.01 133.321 185.065 134.447 185.018 135.589C185.005 135.871 184.995 136.022 184.988 136.042C184.745 136.652 184.572 136.633 184.47 135.983C184.215 134.397 184.048 132.973 183.467 131.208C183.448 131.149 183.385 131.113 183.321 131.129L183.255 131.147C183.225 131.154 183.214 131.172 183.22 131.202C183.687 133.251 183.759 135.269 183.208 137.12C183.165 137.265 183.084 137.293 182.96 137.207L182.887 137.156C182.864 137.142 182.854 137.113 182.857 137.088C183.014 136.08 183.001 135.074 182.813 134.074C182.78 133.893 182.537 133.859 182.454 134.021C182.192 134.544 181.87 134.955 181.491 135.254C180.983 135.656 180.849 135.555 181.092 134.955C181.524 133.893 181.321 132.66 181.072 131.575C180.949 131.043 180.837 131.043 180.734 131.582L180.492 132.84C180.388 133.385 180.276 133.384 180.155 132.843C179.928 131.819 179.782 130.748 178.976 129.868C178.896 129.785 178.858 129.8 178.862 129.915C178.873 130.32 178.837 130.722 178.755 131.125C178.649 131.623 178.497 131.638 178.293 131.171C177.578 129.538 175.896 127.897 174.199 127.242C174.119 127.21 174.044 127.299 174.088 127.374C174.495 128.054 175.133 128.687 175.499 129.25C184.315 142.738 187.492 159.073 181.358 174.358C178.621 181.185 174.035 185.707 167.985 189.599C167.949 189.623 167.904 189.616 167.875 189.587L167.81 189.521C167.757 189.466 167.761 189.415 167.822 189.367C172.342 185.791 176.354 181.093 178.434 175.679C178.444 175.65 178.435 175.63 178.41 175.62L178.407 175.619C178.378 175.608 178.357 175.617 178.346 175.643C175.649 181.914 170.67 186.518 164.668 189.59C164.583 189.633 164.506 189.64 164.433 189.613C164.332 189.573 164.324 189.522 164.411 189.457C167.266 187.237 170.355 184.479 172.285 181.4C172.429 181.176 172.397 181.149 172.194 181.324C171.83 181.638 171.437 181.962 170.962 182.151C168.475 183.155 165.904 183.99 163.251 184.654C163.16 184.678 163.095 184.649 163.053 184.565L163.019 184.498C162.998 184.454 163.008 184.425 163.051 184.407C164.616 183.768 166.123 183.041 167.577 182.225C168.221 181.864 169.24 181.186 170.632 180.195C172.409 178.927 174.139 178.109 175.721 176.324C175.746 176.297 175.745 176.271 175.719 176.247L175.717 176.244C175.692 176.221 175.667 176.221 175.639 176.244C172.294 179.323 168.022 181.127 163.759 182.333C163.287 182.466 163.228 182.362 163.582 182.025C163.591 182.017 163.686 181.974 163.866 181.896C167.913 180.155 171.463 177.752 174.524 174.688C174.849 174.363 174.806 174.305 174.399 174.517C173.923 174.763 173.39 175.184 172.899 175.456C170.369 176.868 167.864 177.808 165.256 178.839C164.935 178.964 164.641 179.005 164.371 178.963C164.217 178.937 164.201 178.876 164.325 178.779C166.04 177.445 167.801 176.387 169.664 175.274C172.029 173.859 173.812 172.072 175.526 169.953C175.675 169.77 175.65 169.744 175.454 169.873C173.7 171.035 172.139 172.233 169.981 173.028C168.186 173.688 166.377 174.311 164.557 174.895C164.415 174.942 164.291 174.953 164.189 174.933C164.091 174.913 164.069 174.783 164.153 174.727C166.252 173.38 168.88 172.101 170.557 170.942C172.093 169.884 174.155 168.272 175.1 166.694C175.35 166.278 175.291 166.23 174.922 166.543C173.042 168.154 171.031 169.576 168.884 170.808C168.73 170.896 168.681 170.857 168.738 170.689C168.787 170.545 168.901 170.407 169.077 170.276C171.792 168.26 173.89 165.781 175.369 162.842C175.559 162.466 175.5 162.42 175.189 162.706C172.978 164.739 170.468 166.307 167.664 167.407C167.579 167.439 167.48 167.406 167.437 167.324L167.406 167.268C167.392 167.239 167.401 167.202 167.431 167.184C171.547 164.837 174.882 161.655 177.434 157.639C177.438 157.632 177.433 157.62 177.417 157.609C177.394 157.592 177.372 157.595 177.356 157.616C174.075 161.284 169.461 163.662 164.683 164.679C163.951 164.834 163.217 164.924 162.478 164.947C162.387 164.949 162.329 164.849 162.378 164.773C162.451 164.66 162.554 164.579 162.691 164.532C164.949 163.716 167.582 162.859 169.457 161.824C172.215 160.305 174.417 158.15 176.065 155.366C176.08 155.337 176.072 155.3 176.044 155.284L176.043 155.28C176.007 155.261 175.98 155.265 175.959 155.297C173.42 158.852 169.121 161.211 165.089 162.774C165.055 162.788 165.027 162.78 165.011 162.748L164.961 162.662C164.935 162.62 164.944 162.588 164.988 162.566C168.822 160.474 172.101 158.443 173.969 154.29C174.161 153.859 174.099 153.818 173.78 154.168C171.467 156.698 168.61 158.273 165.206 158.888C165.171 158.894 165.148 158.88 165.142 158.845L165.126 158.72C165.12 158.686 165.136 158.66 165.169 158.648C168.187 157.686 171.498 156.112 173.567 153.675C174.032 153.128 173.974 153.065 173.39 153.483C171.523 154.816 169.381 155.651 167.197 156.314C167.143 156.331 167.087 156.305 167.062 156.256L167.027 156.189C167.01 156.154 167.021 156.13 167.057 156.117C168.71 155.482 169.759 155.053 170.205 154.831C172.955 153.449 175.084 151.409 176.592 148.715C176.609 148.683 176.602 148.655 176.572 148.636L176.57 148.636C176.539 148.616 176.512 148.621 176.49 148.651C174.748 151.236 172.697 152.96 169.788 154.086C168.936 154.414 168.099 154.778 167.279 155.176C167.247 155.19 167.225 155.184 167.207 155.154C167.19 155.124 167.197 155.1 167.225 155.082C168.11 154.506 169.024 153.974 169.966 153.486C170.208 153.361 170.394 153.245 170.516 153.142C170.718 152.972 170.704 152.951 170.472 153.078C169.381 153.671 168.23 154.189 167.017 154.635C166.635 154.773 166.353 154.796 166.172 154.704C165.984 154.612 165.989 154.523 166.181 154.44C166.991 154.098 167.832 153.69 168.706 153.22C171.768 151.569 173.873 148.516 175.172 145.376C175.18 145.351 175.172 145.334 175.151 145.324L175.149 145.324C175.127 145.314 175.107 145.326 175.09 145.36C173.843 147.936 172.067 150.074 169.758 151.769C169.688 151.822 169.584 151.801 169.535 151.725L169.485 151.65C169.467 151.624 169.473 151.585 169.497 151.564C169.945 151.165 170.318 150.704 170.616 150.181C170.849 149.772 170.796 149.736 170.454 150.07C169.827 150.685 168.94 151.122 168.205 151.639C168.175 151.66 168.129 151.651 168.109 151.619L168.043 151.509C168.023 151.474 168.032 151.428 168.065 151.406C169.094 150.676 169.745 150.137 170.018 149.792C171.489 147.926 172.653 145.891 173.509 143.682C173.536 143.609 173.503 143.529 173.434 143.497L173.375 143.469C173.357 143.463 173.347 143.466 173.338 143.48C172.665 144.685 171.918 145.844 171.1 146.957C171.042 147.037 171.013 147.025 171.012 146.929C171.012 146.803 171.032 146.705 171.072 146.633C171.484 145.927 171.86 145.251 172.2 144.6C172.308 144.39 172.279 144.366 172.106 144.531C171.22 145.394 170.41 146.17 169.256 146.705C169.18 146.74 169.099 146.678 169.113 146.597C169.125 146.527 169.166 146.455 169.235 146.377C171.13 144.303 171.878 141.66 172.766 138.657C172.784 138.591 172.759 138.56 172.69 138.561L172.605 138.562C172.589 138.561 172.577 138.566 172.572 138.583C171.749 140.504 169.428 142.387 167.369 142.826C167.244 142.852 167.159 142.702 167.247 142.608C168.816 140.916 170.786 138.831 171.345 136.561C171.446 136.147 171.368 136.107 171.108 136.448C170.211 137.626 169.08 138.505 167.717 139.087C167.558 139.155 167.468 139.104 167.452 138.931L167.442 138.851C167.437 138.797 167.463 138.745 167.509 138.718C168.743 137.943 169.855 137.182 170.096 135.729C170.523 133.135 169.574 130.808 168.184 128.638C168.142 128.57 168.044 128.58 168.014 128.652C167.31 130.388 166.626 132.157 165.862 133.858C161.312 144.012 157.293 153.429 153.983 163.977C150.559 174.894 147.893 186.09 145.986 197.567C145.089 202.976 144.497 208.295 144.382 213.697C144.283 218.296 144.375 222.892 144.652 227.485C145.053 234.096 145.617 240.716 145.758 247.341C145.76 247.459 145.817 247.541 145.928 247.585L149.874 249.136C150.14 249.24 150.425 249.288 150.71 249.276C151.679 249.237 152.715 249.223 153.821 249.232C157.701 249.265 161.31 250.526 163.769 253.476C163.823 253.542 163.897 253.591 163.976 253.62C180.766 259.45 197.586 265.127 214.439 270.654C214.461 270.661 214.47 270.673 214.462 270.695L214.446 270.762C214.431 270.824 214.389 270.849 214.324 270.836C162.032 260.137 109.744 249.417 57.4565 238.674C56.9475 238.57 56.5309 238.474 56.2118 238.388C56.1057 238.358 56.1078 238.348 56.2179 238.358L104.74 242.133C104.861 242.142 104.978 242.082 105.041 241.978C107.252 238.38 110.813 236.944 114.866 237.823C117.721 238.444 120.391 240.082 122.847 241.62C123.97 242.322 125.073 242.837 126.16 243.167C127.569 243.594 129.489 243.577 131.126 243.782C131.165 243.787 131.199 243.76 131.201 243.721C132.548 222.797 136.042 202.229 141.68 182.014C143.326 176.114 145.331 170.015 147.691 163.714C150.717 155.642 154.455 147.706 158.335 140.014C160.266 136.184 161.7 133.056 163.071 129.398C163.308 128.76 163.508 128.118 163.667 127.469C163.687 127.387 163.659 127.361 163.581 127.395C161.098 128.433 158.731 129.698 156.477 131.19C154.292 132.639 153.651 134.337 155.06 136.662C155.238 136.956 155.185 137.008 154.898 136.816C153.706 136.017 153.01 134.914 152.809 133.504C152.778 133.287 152.722 133.278 152.636 133.482C151.805 135.484 152.021 137.336 153.278 139.036C153.456 139.278 153.405 139.346 153.124 139.241C152.286 138.934 151.424 137.292 151.099 136.508C150.837 135.875 150.74 135.211 150.808 134.513C150.812 134.48 150.795 134.459 150.762 134.454L150.697 134.443C150.664 134.436 150.643 134.451 150.634 134.485C149.894 137.185 149.982 139.853 150.891 142.489C150.911 142.544 150.851 142.595 150.797 142.568C150.727 142.536 150.663 142.48 150.603 142.403C149.063 140.4 148.632 137.419 149.894 135.138C150.157 134.656 150.114 134.626 149.763 135.048C147.886 137.286 149.028 141.35 149.459 143.807C149.488 143.969 149.429 144.015 149.279 143.944C149.272 143.941 149.248 143.918 149.203 143.869C149.179 143.846 149.161 143.816 149.15 143.785C148.254 141.57 148.054 139.463 147.784 137.121C147.77 136.987 147.604 136.932 147.51 137.03C146.62 137.962 146.158 139.002 146.129 140.148C146.062 142.962 147.299 145.629 148.319 147.901C148.337 147.941 148.32 147.985 148.282 148.005C148.259 148.015 148.235 148.018 148.212 148.017C148.194 148.016 148.177 148.005 148.16 147.987C145.95 145.649 144.038 142.057 143.766 138.546C143.764 138.528 143.754 138.512 143.738 138.504L143.666 138.47C143.597 138.436 143.562 138.457 143.561 138.535C143.52 143.882 145.444 148.165 148.678 152.312C148.72 152.364 148.702 152.441 148.643 152.474L148.562 152.514C148.529 152.531 148.498 152.527 148.473 152.502C144.672 148.646 140.585 144.632 141.318 139.007C141.324 138.966 141.305 138.944 141.263 138.942L141.261 138.941C141.22 138.935 141.198 138.954 141.192 138.994C140.995 140.543 141.058 141.971 141.381 143.287C142.361 147.291 144.313 150.844 147.236 153.946C147.26 153.969 147.258 153.993 147.235 154.016L147.18 154.07C147.13 154.118 147.053 154.115 147.005 154.066C145.153 152.182 143.838 150.585 143.063 149.273C141.983 147.443 141.556 145.958 141.086 144.125C141.08 144.102 141.06 144.087 141.036 144.088C141.012 144.091 140.995 144.108 140.993 144.131C140.637 148.468 143.138 152.585 145.157 156.226C145.238 156.37 145.279 156.459 145.28 156.493C145.297 156.729 145.215 156.772 145.032 156.621C141.778 153.896 139.765 149.879 139 145.789C138.943 145.493 138.838 145.472 138.679 145.728C137.719 147.29 138.554 152.182 138.921 153.996C138.931 154.049 138.913 154.086 138.864 154.108C138.841 154.119 138.817 154.124 138.791 154.121C138.773 154.121 138.759 154.112 138.749 154.096C138.501 153.715 138.324 153.369 138.223 153.056C137.55 150.99 137.045 148.922 136.708 146.856C136.664 146.575 136.561 146.554 136.403 146.791C135.771 147.733 135.016 148.752 134.893 149.885C134.698 151.703 135.362 153.928 135.861 155.66C135.982 156.079 135.879 156.147 135.549 155.857C135.525 155.836 135.449 155.722 135.317 155.512C134.065 153.529 133.341 151.419 132.742 149.234C132.467 148.23 132.341 148.249 132.359 149.291C132.434 153.18 134.156 157.724 135.603 161.491C135.704 161.75 135.759 161.917 135.767 161.992C135.81 162.395 135.704 162.441 135.447 162.125C133.428 159.643 131.761 156.921 130.444 153.959C129.865 152.656 129.491 151.181 129.103 149.774C129.095 149.749 129.079 149.738 129.052 149.743C129.025 149.748 129.014 149.764 129.016 149.79C129.812 155.293 131.852 160.452 134.124 165.485C134.14 165.519 134.127 165.558 134.094 165.578L134.033 165.612C133.968 165.648 133.886 165.626 133.844 165.563C131.471 161.978 129.149 158.289 127.783 154.184C127.775 154.163 127.761 154.155 127.739 154.159L127.738 154.161C127.717 154.167 127.708 154.181 127.712 154.203C127.775 154.531 127.855 154.856 127.953 155.178C129.408 159.967 131.126 164.683 133.107 169.322C133.12 169.351 133.116 169.381 133.096 169.403L133.034 169.477C132.958 169.568 132.888 169.564 132.822 169.464C130.289 165.602 128.228 161.507 126.636 157.18C126.571 157.003 126.538 157.009 126.534 157.198C126.436 161.229 126.622 165.239 126.697 169.188C126.707 169.673 126.591 169.707 126.348 169.286C126.225 169.073 126.158 168.533 126.093 168.29C125.327 165.413 124.736 162.527 124.319 159.632C124.315 159.611 124.297 159.596 124.276 159.597C124.255 159.601 124.238 159.618 124.236 159.639C124.115 164.257 124.853 168.414 125.743 173.662C125.76 173.749 125.708 173.835 125.624 173.862L125.548 173.888C125.506 173.903 125.461 173.88 125.449 173.839C123.995 168.93 122.545 163.429 122.556 157.836C122.555 157.803 122.538 157.783 122.504 157.782L122.501 157.784C122.468 157.782 122.448 157.799 122.444 157.835C121.999 164.909 122.978 170.988 123.454 177.606C123.457 177.667 123.43 177.7 123.37 177.709L123.304 177.716C123.29 177.721 123.28 177.714 123.276 177.697C122.584 174.434 121.934 171.163 121.32 167.878C119.752 159.475 121.931 151.216 126.698 144.217C129.315 140.373 132.754 136.844 137.015 133.629C142.012 129.862 147.756 126.625 153.692 124.624C153.981 124.524 153.978 124.437 153.684 124.358C152.204 123.97 150.67 124.039 149.082 124.563C147.647 125.039 147.2 125.601 146.524 126.622C146.334 126.909 146.222 126.884 146.188 126.54C146.141 126.093 146.162 125.657 146.25 125.231C146.345 124.757 145.834 124.394 145.418 124.637C144.576 125.13 143.941 125.803 143.516 126.653C143.388 126.912 143.259 126.914 143.126 126.658L143.042 126.496C142.895 126.207 142.875 125.912 142.982 125.605C143.273 124.781 143.778 124.127 144.501 123.647C144.61 123.573 144.602 123.552 144.473 123.581C143.27 123.856 141.377 125.957 141.319 127.207C141.305 127.518 141.223 127.535 141.077 127.263C140.375 125.963 141.277 124.341 142.085 123.282C142.356 122.926 142.311 122.877 141.946 123.14C140.744 124 139.955 125.149 139.579 126.588C139.563 126.649 139.522 126.67 139.461 126.65C139.437 126.643 139.416 126.627 139.397 126.607C139.382 126.592 139.374 126.569 139.372 126.54C139.295 125.63 139.48 124.864 139.929 124.245C140.166 123.915 140.116 123.865 139.78 124.091C138.481 124.96 137.6 126.201 137.131 127.815C137.104 127.907 137.065 127.945 137.013 127.93C136.895 127.896 136.801 127.793 136.771 127.659C136.45 126.318 136.472 124.978 136.837 123.642C136.868 123.526 136.839 123.507 136.75 123.585C135.702 124.49 135.336 125.792 134.774 126.812C134.532 127.257 134.057 127.546 133.793 128.069C133.783 128.091 133.766 128.097 133.745 128.087C133.738 128.084 133.733 128.083 133.728 128.08C133.719 128.074 133.717 128.069 133.725 128.057C134.213 127.245 134.776 126.355 135.035 125.488C135.208 124.913 135.132 124.876 134.807 125.379C133.439 127.503 132.337 129.565 132.011 132.098C131.937 132.666 131.85 132.666 131.753 132.106C131.25 129.201 131.938 126.771 133.158 124.097C133.162 124.09 133.159 124.082 133.152 124.075C133.145 124.071 133.134 124.073 133.13 124.08C130.986 127.241 130.107 131.414 130.687 135.028C130.787 135.651 130.682 135.69 130.369 135.137C130.312 135.035 130.239 134.845 130.152 134.567C129.538 132.61 129.157 130.609 129.004 128.564C129.002 128.535 128.984 128.521 128.955 128.521C128.926 128.523 128.91 128.537 128.907 128.566C128.804 129.742 128.762 130.919 128.78 132.102C128.784 132.299 128.749 132.482 128.679 132.658C128.642 132.747 128.619 132.745 128.61 132.65C128.253 129.449 128.235 126.835 129.669 123.87C129.773 123.653 129.74 123.634 129.577 123.809C129.161 124.254 128.937 124.915 128.71 125.45C127.992 127.131 127.69 128.845 127.807 130.591C127.926 132.345 128.208 134.241 128.652 136.281C128.662 136.322 128.646 136.347 128.605 136.357L128.542 136.37C128.476 136.388 128.409 136.345 128.391 136.28C127.736 133.766 127.205 131.2 127.116 128.906C127.113 128.829 127.007 128.815 126.984 128.887C126.536 130.281 126.28 131.57 126.219 132.749C126.152 134.016 126.325 135.643 126.265 137.068C126.227 138.007 126.064 138.957 126.266 139.868C126.356 140.281 126.456 140.688 126.569 141.092C126.594 141.183 126.575 141.262 126.514 141.333C126.457 141.395 126.412 141.388 126.374 141.315C125.996 140.562 125.758 139.858 125.659 139.21C125.406 137.528 125.117 135.852 124.794 134.182C124.575 133.056 124.386 131.69 124.466 130.76C124.508 130.301 124.508 129.96 124.464 129.74C124.387 129.351 124.31 129.348 124.233 129.732C123.291 134.367 124.802 138.768 126.184 143.17C126.21 143.248 126.12 143.316 126.052 143.268C126.043 143.26 126.019 143.225 125.98 143.157C123.505 138.889 122.491 134.46 122.055 129.594C122.032 129.338 121.959 129.323 121.837 129.546C121.227 130.679 121.194 132.583 121.162 133.86C121.124 135.436 121.161 136.998 121.275 138.542C121.279 138.613 121.247 138.654 121.177 138.663L121.113 138.673C121.021 138.686 120.934 138.626 120.913 138.536C120.615 137.2 120.396 135.837 120.261 134.445C120.149 133.3 120.053 132.173 119.976 131.061C119.955 130.765 119.871 130.745 119.726 131.005C118.01 134.065 117.554 137.535 117.725 141.033C117.761 141.75 117.674 141.766 117.464 141.08C116.778 138.836 116.529 136.446 116.715 133.909C116.718 133.853 116.694 133.832 116.641 133.849C116.608 133.859 116.589 133.876 116.58 133.903C115.583 137.657 116.486 141.125 117.166 144.806C117.218 145.098 117.124 145.159 116.88 144.987C116.835 144.954 116.772 144.853 116.69 144.682C115.339 141.881 113.939 138.224 113.965 135.146C113.971 134.378 113.879 134.367 113.69 135.111C113.318 136.579 113.059 138.163 112.91 139.867C112.782 141.348 113.425 142.959 113.828 144.433C113.851 144.512 113.857 144.561 113.847 144.574C113.767 144.681 113.686 144.682 113.599 144.582C111.538 142.078 110.925 139.654 110.744 136.487C110.741 136.448 110.721 136.43 110.682 136.43L110.68 136.429C110.641 136.429 110.621 136.449 110.621 136.488C110.367 141.864 112.092 146.75 113.782 151.755C113.795 151.794 113.765 151.835 113.724 151.831C113.699 151.829 113.673 151.826 113.65 151.824C113.601 151.822 113.561 151.801 113.531 151.758C112.29 149.913 111.393 148.404 110.842 147.23C109.489 144.352 108.859 141.17 108.956 137.678C108.957 137.649 108.944 137.636 108.916 137.633L108.913 137.632C108.885 137.63 108.872 137.645 108.868 137.673C108.745 139.09 108.773 140.507 108.953 141.924C109.601 147.03 110.644 151.814 112.958 156.231C113.003 156.319 112.976 156.36 112.877 156.358C112.818 156.357 112.756 156.315 112.696 156.238C110.193 153.047 108.501 149.499 107.619 145.602C107.582 145.438 107.568 145.441 107.579 145.606C107.886 150.772 108.924 155.784 110.694 160.64C110.698 160.656 110.693 160.668 110.679 160.674L110.616 160.7C110.551 160.728 110.473 160.697 110.442 160.633C108.144 156.007 106.649 151.262 105.957 146.396C105.734 144.822 105.772 143.119 106.072 141.287C106.076 141.267 106.068 141.257 106.047 141.258C106.025 141.261 106.004 141.263 105.983 141.264C105.97 141.264 105.96 141.272 105.955 141.284C105.164 143.294 104.61 145.373 104.292 147.511C104.15 148.46 104.007 149.409 103.862 150.358C103.851 150.426 103.78 150.468 103.714 150.442C103.649 150.415 103.608 150.363 103.596 150.282C102.87 145.417 103.973 139.587 106.444 135.323C106.444 135.319 106.444 135.319 106.442 135.317L106.386 135.284C106.349 135.264 106.318 135.27 106.298 135.308C103.892 139.333 102.373 143.675 101.736 148.336C101.659 148.899 101.61 149.242 101.589 149.36C101.436 150.254 101.338 150.25 101.292 149.341C100.693 137.171 108.28 127.488 118 121.095C125.725 116.013 134.214 114.028 143.467 115.138C147.527 115.625 151.49 116.536 155.353 117.872C156.897 118.404 158.354 119.029 159.731 119.741C160.212 119.991 160.266 119.919 159.892 119.526C157.59 117.101 154.592 114.643 151.197 113.904C150.974 113.856 150.962 113.777 151.16 113.664L151.962 113.203C152.051 113.15 152.029 113.018 151.928 112.997C150.732 112.742 149.58 112.848 148.469 113.311C147.967 113.519 147.902 113.427 148.278 113.032C148.748 112.539 149.36 112.164 150.118 111.907C150.698 111.71 150.685 111.65 150.078 111.731C149.343 111.828 146.926 112.343 146.374 112.869C146.153 113.079 146.098 113.042 146.208 112.76C146.602 111.758 147.327 111.343 148.448 110.892C148.542 110.854 148.54 110.824 148.441 110.802C147.408 110.577 146.488 110.785 145.675 111.425C145.61 111.474 145.515 111.439 145.498 111.359L145.482 111.296C145.464 111.22 145.486 111.138 145.54 111.079C145.989 110.578 146.536 110.242 147.181 110.067C147.28 110.04 147.284 109.896 147.185 109.866C145.936 109.463 144.665 109.335 143.369 109.487C143.273 109.498 143.205 109.4 143.243 109.315C143.262 109.272 143.307 109.219 143.375 109.156C143.416 109.121 143.408 109.106 143.355 109.111C143.331 109.114 143.306 109.122 143.286 109.13C143.271 109.137 143.258 109.15 143.247 109.167C143.099 109.406 142.905 109.482 142.668 109.406C141.936 109.167 141.365 109.415 140.954 110.148C140.875 110.293 140.761 110.324 140.618 110.246C140.547 110.208 140.522 110.15 140.546 110.074C140.852 109.013 141.447 108.175 142.329 107.555C142.623 107.346 142.983 107.324 143.327 107.261C143.359 107.255 143.358 107.21 143.326 107.203C142.519 107.075 141.808 107.026 141.023 107.355C140.249 107.679 139.321 108.355 138.498 108.434C138.391 108.446 138.36 108.404 138.409 108.306L139.168 106.798C139.185 106.764 139.177 106.74 139.147 106.721L139.087 106.679C139.05 106.657 139.018 106.663 138.992 106.697C138.363 107.526 138.167 108.445 137.49 109.211C137.297 109.428 137.197 109.391 137.191 109.103C137.172 108.455 137.303 108.093 137.504 107.563C137.839 106.68 137.717 106.613 137.14 107.361C136.789 107.816 136.483 108.401 136.225 109.111C136.187 109.211 136.132 109.223 136.062 109.143C135.688 108.728 136.033 107.818 136.149 107.33C136.175 107.229 136.14 107.196 136.041 107.235C135.798 107.334 135.611 107.496 135.476 107.721C135.425 107.803 135.353 107.849 135.256 107.851C135.185 107.852 135.129 107.884 135.084 107.939C135.031 108.009 134.96 108.034 134.874 108.01C134.411 107.886 134.586 107.349 134.651 107.06C134.696 106.853 134.63 106.804 134.448 106.916C133.787 107.324 133.174 107.232 132.603 106.643C132.52 106.561 132.496 106.462 132.532 106.353C132.981 104.926 134.72 104.109 136.103 104.011C136.12 104.009 136.12 104.007 136.103 104.003C135.372 103.897 134.635 103.621 133.943 103.655C131.961 103.75 130.247 104.945 128.66 105.925C128.119 106.26 128.003 106.148 128.313 105.593C128.404 105.426 128.681 105.17 129.143 104.829C129.436 104.612 129.402 104.525 129.041 104.563C128.574 104.613 128.018 104.838 127.373 105.236C126.814 105.581 126.762 105.517 127.216 105.044C127.528 104.72 127.881 104.44 128.273 104.21C128.451 104.103 128.441 104.077 128.239 104.132C127.083 104.446 126.133 105.068 125.385 106C125.326 106.071 125.215 106.056 125.177 105.973C125.139 105.892 125.148 105.793 125.211 105.677C125.689 104.773 126.367 104.062 127.249 103.546C127.264 103.536 127.264 103.526 127.243 103.514C127.236 103.51 127.229 103.503 127.226 103.494C127.219 103.477 127.21 103.47 127.198 103.476C125.533 104.045 124.15 105.084 123.051 106.594C123.001 106.662 122.943 106.666 122.879 106.608C122.828 106.564 122.809 106.492 122.828 106.425C123.223 105.093 124.722 103.837 125.877 103.169C126.527 102.788 127.595 102.407 129.077 102.019C130.26 101.712 131.447 101.401 132.633 101.093C132.831 101.043 133.021 100.973 133.204 100.879C133.239 100.864 133.24 100.845 133.207 100.826C133.129 100.775 133.116 100.699 133.17 100.599C133.227 100.49 133.311 100.408 133.422 100.356C134.054 100.034 134.732 99.8614 135.455 99.8359C136.337 99.8025 137.209 100.288 138.046 100.616C138.128 100.649 138.218 100.651 138.302 100.627C138.477 100.575 138.514 100.561 138.705 100.61C146.833 102.705 154.389 106.764 160.165 112.926C160.406 113.187 160.483 113.144 160.388 112.802C159.991 111.351 158.809 109.373 157.313 108.607C157.244 108.572 157.22 108.488 157.254 108.423C157.283 108.368 157.333 108.329 157.406 108.305C157.694 108.213 157.775 107.817 157.565 107.519C156.897 106.56 156.026 106.309 154.955 106.77C154.852 106.814 154.749 106.715 154.787 106.61C155.086 105.801 155.571 105.767 156.311 105.457C156.428 105.405 156.432 105.346 156.324 105.279C154.961 104.45 153.636 104.468 152.354 105.33C152.182 105.445 152.132 105.407 152.203 105.213C152.774 103.638 154.479 103.092 156.101 103.385C156.247 103.411 156.259 103.38 156.138 103.296C155.691 102.977 155.303 102.817 154.975 102.815C153.168 102.8 151.409 102.805 149.694 102.826C149.283 102.831 149.257 102.729 149.61 102.523C150.836 101.804 153.459 102.157 154.71 102.627C154.747 102.64 154.772 102.63 154.788 102.594L154.788 102.592C154.803 102.556 154.793 102.53 154.757 102.515C152.967 101.702 151.316 100.154 149.774 100.005C147.902 99.8225 146.072 99.9617 144.288 100.421C143.875 100.526 143.808 100.418 144.086 100.095C144.103 100.075 144.201 100.019 144.379 99.9231C147.115 98.4642 150.325 97.8536 153.247 98.8597C154.162 99.1747 155.051 99.5392 155.918 99.9565C155.947 99.9703 155.979 99.9689 156.003 99.9503L156.083 99.8939C156.101 99.8798 156.101 99.8663 156.08 99.8541C155.422 99.4092 154.863 99.1044 154.398 98.9388C150.133 97.4022 145.413 97.0203 141.019 98.2639C140.922 98.2913 140.819 98.2703 140.74 98.2124L140.679 98.1662C140.634 98.1304 140.64 98.0621 140.692 98.036C144.719 96.1536 148.334 94.9788 152.852 95.9354C152.881 95.9415 152.9 95.9295 152.908 95.9023L152.908 95.9002C152.915 95.87 152.903 95.8518 152.876 95.8441C147.872 94.4432 143.446 94.9613 138.551 96.2647C138.488 96.2798 138.42 96.2516 138.388 96.1946L138.34 96.1117C138.311 96.0611 138.325 96.0303 138.38 96.0159L147.355 93.7015C147.496 93.6642 147.496 93.6363 147.351 93.6197C142.838 93.0608 138.709 93.8615 134.404 95.2589C134.345 95.2779 134.289 95.2823 134.232 95.2705C134.169 95.2598 134.114 95.2485 134.071 95.2376C133.996 95.2201 133.974 95.1271 134.033 95.0789C137.391 92.4049 142.96 91.0902 147.383 91.08C147.404 91.0799 147.417 91.069 147.419 91.0479L147.419 91.0458C147.421 91.0226 147.416 91.0114 147.408 91.0099C143.696 90.4033 140.068 90.6862 136.525 91.8565C135.832 92.0857 135.776 91.9797 136.357 91.54C138.404 89.9873 140.967 89.232 143.66 88.6178C143.712 88.6048 143.752 88.5784 143.775 88.5394C143.827 88.4538 143.799 88.4088 143.698 88.406C141.962 88.3942 140.089 88.3533 138.471 88.5387C136.48 88.7642 134.531 89.2099 132.629 89.8773C132.446 89.9409 132.303 89.9248 132.196 89.8224C132.124 89.753 132.132 89.6369 132.209 89.5801C134.489 87.8763 137.978 86.781 140.636 86.311C141.276 86.1987 141.271 86.1173 140.623 86.0685C136.689 85.7683 132.615 85.9069 128.399 86.4837C128.233 86.5048 128.092 86.4917 127.977 86.4444C127.885 86.4076 127.877 86.2797 127.963 86.2299C128.316 86.0256 128.66 85.8642 128.99 85.7438C132.443 84.4941 135.485 83.5507 139.438 83.7075C139.467 83.7077 139.49 83.6865 139.492 83.6612C139.493 83.6321 139.474 83.6081 139.446 83.6045Z" fill="#0E3B26"/>
<ellipse cx="82.8727" cy="16.7848" rx="82.8727" ry="16.7848" transform="matrix(0.988661 0.150166 -0.150333 0.988635 50.8662 226.953)" fill="#0E3B26"/>
<defs>
<linearGradient id="paint0_linear_692_26" x1="79.166" y1="63.334" x2="79.166" y2="205.834" gradientUnits="userSpaceOnUse">
<stop stop-color="#F6C667"/>
<stop offset="1" stop-color="#E9A93A"/>
</linearGradient>
<linearGradient id="paint1_linear_692_26" x1="-7.91699" y1="150.418" x2="-7.91699" y2="308.751" gradientUnits="userSpaceOnUse">
<stop stop-color="#1ACA18"/>
<stop offset="1" stop-color="#1F7A5C"/>
</linearGradient>
</defs>
</svg>
