<svg width="1003" height="254" viewBox="0 0 1003 254" fill="none" xmlns="http://www.w3.org/2000/svg">
<path d="M126.878 253.967C196.95 253.967 253.756 197.114 253.756 126.983C253.756 56.8524 196.95 0 126.878 0C56.8051 0 0 56.8524 0 126.983C0 197.114 56.8051 253.967 126.878 253.967Z" fill="#2E8B57"/>
<mask id="mask0_659_5" style="mask-type:luminance" maskUnits="userSpaceOnUse" x="13" y="13" width="228" height="228">
<path d="M126.878 240.601C189.574 240.601 240.4 189.733 240.4 126.984C240.4 64.2351 189.574 13.3672 126.878 13.3672C64.1811 13.3672 13.3555 64.2351 13.3555 126.984C13.3555 189.733 64.1811 240.601 126.878 240.601Z" fill="white"/>
</mask>
<g mask="url(#mask0_659_5)">
<path d="M126.877 173.767C160.07 173.767 186.977 146.837 186.977 113.617C186.977 80.3969 160.07 53.4668 126.877 53.4668C93.685 53.4668 66.7773 80.3969 66.7773 113.617C66.7773 146.837 93.685 173.767 126.877 173.767Z" fill="url(#paint0_linear_659_5)"/>
<path d="M260.433 126.984H-6.67773V260.651H260.433V126.984Z" fill="url(#paint1_linear_659_5)"/>
<path opacity="0.8" d="M13.3555 153.716C35.6147 140.35 57.874 140.35 80.1332 153.716C102.393 167.083 124.652 167.083 146.911 153.716C169.17 140.35 191.43 140.35 213.689 153.716C235.948 167.083 258.207 167.083 280.467 153.716" stroke="white" stroke-width="3"/>
<path opacity="0.6" d="M13.3555 180.451C35.6147 167.084 57.874 167.084 80.1332 180.451C102.393 193.817 124.652 193.817 146.911 180.451C169.17 167.084 191.43 167.084 213.689 180.451C235.948 193.817 258.207 193.817 280.467 180.451" stroke="white" stroke-width="2"/>
</g>
<path d="M284.041 103.058C281.929 103.058 280.417 102.746 279.505 102.122C278.593 101.498 278.041 100.682 277.849 99.6744C277.657 98.6664 277.561 97.5864 277.561 96.4344V59.2824C277.561 58.2264 277.657 57.2184 277.849 56.2584C278.041 55.2504 278.593 54.4344 279.505 53.8104C280.417 53.1384 281.977 52.8024 284.185 52.8024C285.673 52.8024 286.753 52.8984 287.425 53.0904C288.145 53.2824 288.649 53.5224 288.937 53.8104C289.273 54.0984 289.609 54.4344 289.945 54.8184L304.849 73.9704H304.417L319.249 54.8904C319.729 54.3624 320.161 53.9544 320.545 53.6664C320.977 53.3784 321.529 53.1624 322.201 53.0184C322.921 52.8744 323.929 52.8024 325.225 52.8024C327.385 52.8024 328.921 53.1384 329.833 53.8104C330.745 54.4344 331.297 55.2504 331.489 56.2584C331.681 57.2664 331.777 58.3224 331.777 59.4264V96.5784C331.777 97.6344 331.681 98.6664 331.489 99.6744C331.297 100.682 330.745 101.498 329.833 102.122C328.921 102.746 327.361 103.058 325.153 103.058C322.993 103.058 321.457 102.746 320.545 102.122C319.633 101.45 319.081 100.61 318.889 99.6024C318.697 98.5464 318.601 97.4904 318.601 96.4344V75.9864L310.177 87.4344C309.985 87.6744 309.697 88.0344 309.313 88.5144C308.929 88.9944 308.377 89.4264 307.657 89.8104C306.937 90.1944 305.929 90.3864 304.633 90.3864C303.337 90.3864 302.305 90.1944 301.537 89.8104C300.817 89.4264 300.265 89.0184 299.881 88.5864C299.497 88.1064 299.209 87.7224 299.017 87.4344L290.665 76.0584V96.5784C290.665 97.6344 290.569 98.6664 290.377 99.6744C290.185 100.682 289.633 101.498 288.721 102.122C287.809 102.746 286.249 103.058 284.041 103.058ZM365.156 102.986C362.996 102.986 361.388 102.626 360.332 101.906C359.324 101.186 358.844 100.37 358.892 99.4584H359.9C359.66 99.7944 359.18 100.25 358.46 100.826C357.788 101.354 356.876 101.858 355.724 102.338C354.572 102.77 353.156 102.986 351.476 102.986C349.316 102.986 347.228 102.506 345.212 101.546C343.244 100.538 341.468 99.1704 339.884 97.4424C338.348 95.7144 337.124 93.7704 336.212 91.6104C335.3 89.4024 334.844 87.0984 334.844 84.6984C334.844 82.3464 335.3 80.0904 336.212 77.9304C337.124 75.7704 338.372 73.8504 339.956 72.1704C341.54 70.4424 343.316 69.0984 345.284 68.1384C347.252 67.1304 349.316 66.6264 351.476 66.6264C353.108 66.6264 354.476 66.8664 355.58 67.3464C356.732 67.8264 357.644 68.3544 358.316 68.9304C359.036 69.5064 359.516 69.9864 359.756 70.3704H358.964C358.916 69.1704 359.396 68.2344 360.404 67.5624C361.46 66.8904 363.068 66.5544 365.228 66.5544C367.388 66.5544 368.9 66.8904 369.764 67.5624C370.676 68.1864 371.228 69.0024 371.42 70.0104C371.612 71.0184 371.708 72.0504 371.708 73.1064V96.5064C371.708 97.5624 371.612 98.5944 371.42 99.6024C371.228 100.61 370.676 101.426 369.764 102.05C368.9 102.674 367.364 102.986 365.156 102.986ZM353.276 89.9544C354.188 89.9544 355.004 89.7144 355.724 89.2344C356.492 88.7544 357.092 88.1304 357.524 87.3624C358.004 86.5464 358.244 85.6824 358.244 84.7704C358.244 83.8104 358.004 82.9464 357.524 82.1784C357.092 81.4104 356.492 80.7864 355.724 80.3064C354.956 79.8264 354.092 79.5864 353.132 79.5864C352.172 79.5864 351.284 79.8264 350.468 80.3064C349.7 80.7864 349.076 81.4344 348.596 82.2504C348.116 83.0184 347.876 83.8824 347.876 84.8424C347.876 85.7544 348.116 86.5944 348.596 87.3624C349.124 88.1304 349.796 88.7544 350.612 89.2344C351.428 89.7144 352.316 89.9544 353.276 89.9544ZM382.482 103.13C380.322 103.13 378.786 102.818 377.874 102.194C376.962 101.522 376.41 100.682 376.218 99.6744C376.074 98.6184 376.002 97.5624 376.002 96.5064V73.0344C376.002 71.9304 376.098 70.8984 376.29 69.9384C376.482 68.9304 377.034 68.1144 377.946 67.4904C378.858 66.8664 380.394 66.5544 382.554 66.5544C384.666 66.5544 386.154 66.8424 387.018 67.4184C387.93 67.9944 388.482 68.6424 388.674 69.3624C388.866 70.0344 388.962 70.5624 388.962 70.9464L387.81 70.5144C387.81 70.5144 388.002 70.2984 388.386 69.8664C388.77 69.4344 389.322 68.9304 390.042 68.3544C390.81 67.7784 391.698 67.2744 392.706 66.8424C393.762 66.4104 394.938 66.1944 396.234 66.1944C396.666 66.1944 397.194 66.2424 397.818 66.3384C398.49 66.3864 399.186 66.5064 399.906 66.6984C400.674 66.8904 401.37 67.1784 401.994 67.5624C402.666 67.9464 403.194 68.4504 403.578 69.0744C404.01 69.6984 404.226 70.4664 404.226 71.3784C404.226 73.7784 403.698 75.8184 402.642 77.4984C401.634 79.1784 400.29 80.0184 398.61 80.0184C397.698 80.0184 397.05 79.9704 396.666 79.8744C396.282 79.7304 395.994 79.6104 395.802 79.5144C395.658 79.3704 395.466 79.2504 395.226 79.1544C395.034 79.0104 394.65 78.9384 394.074 78.9384C393.354 78.9384 392.682 79.0344 392.058 79.2264C391.482 79.3704 390.954 79.6104 390.474 79.9464C390.042 80.2824 389.706 80.6904 389.466 81.1704C389.226 81.6024 389.106 82.0824 389.106 82.6104V96.6504C389.106 97.7064 389.01 98.7384 388.818 99.7464C388.626 100.754 388.074 101.57 387.162 102.194C386.25 102.818 384.69 103.13 382.482 103.13ZM413.92 103.13C411.76 103.13 410.224 102.818 409.312 102.194C408.4 101.522 407.848 100.682 407.656 99.6744C407.512 98.6664 407.44 97.6344 407.44 96.5784V73.1064C407.44 72.0504 407.536 71.0424 407.728 70.0824C407.92 69.0744 408.472 68.2584 409.384 67.6344C410.296 66.9624 411.832 66.6264 413.992 66.6264C416.152 66.6264 417.664 66.9624 418.528 67.6344C419.44 68.2584 419.992 69.0744 420.184 70.0824C420.376 71.0904 420.472 72.1464 420.472 73.2504V96.6504C420.472 97.7064 420.376 98.7384 420.184 99.7464C419.992 100.754 419.44 101.57 418.528 102.194C417.664 102.818 416.128 103.13 413.92 103.13ZM413.92 63.0984C411.76 63.0984 410.224 62.7864 409.312 62.1624C408.4 61.4904 407.848 60.6504 407.656 59.6424C407.512 58.6344 407.44 57.6024 407.44 56.5464C407.44 55.4424 407.536 54.4104 407.728 53.4504C407.92 52.4424 408.472 51.6264 409.384 51.0024C410.296 50.3784 411.832 50.0664 413.992 50.0664C416.152 50.0664 417.664 50.4024 418.528 51.0744C419.44 51.6984 419.992 52.5144 420.184 53.5224C420.376 54.5304 420.472 55.5624 420.472 56.6184C420.472 57.6744 420.376 58.7064 420.184 59.7144C419.992 60.7224 419.44 61.5384 418.528 62.1624C417.664 62.7864 416.128 63.0984 413.92 63.0984ZM431.63 103.058C429.47 103.058 427.934 102.746 427.022 102.122C426.11 101.45 425.558 100.61 425.366 99.6024C425.222 98.5944 425.15 97.5624 425.15 96.5064V72.8184C425.15 71.7624 425.246 70.7544 425.438 69.7944C425.63 68.8344 426.182 68.0664 427.094 67.4904C428.006 66.8664 429.542 66.5544 431.702 66.5544C433.67 66.5544 435.086 66.8184 435.95 67.3464C436.862 67.8264 437.438 68.4264 437.678 69.1464C437.918 69.8664 438.014 70.5384 437.966 71.1624C437.966 71.7384 438.014 72.0984 438.11 72.2424L437.534 72.6744C437.486 71.9544 437.75 71.2344 438.326 70.5144C438.95 69.7944 439.742 69.1464 440.702 68.5704C441.71 67.9464 442.766 67.4664 443.87 67.1304C445.022 66.7464 446.102 66.5544 447.11 66.5544C449.51 66.5544 451.622 67.0104 453.446 67.9224C455.27 68.8344 456.782 70.1304 457.982 71.8104C459.23 73.4424 460.166 75.3624 460.79 77.5704C461.414 79.7784 461.726 82.1784 461.726 84.7704V96.5784C461.726 97.6344 461.63 98.6664 461.438 99.6744C461.246 100.682 460.694 101.498 459.782 102.122C458.918 102.746 457.382 103.058 455.174 103.058C452.966 103.058 451.406 102.746 450.494 102.122C449.582 101.45 449.03 100.61 448.838 99.6024C448.646 98.5944 448.55 97.5624 448.55 96.5064V84.7704C448.55 83.6664 448.334 82.7304 447.902 81.9624C447.518 81.1944 446.942 80.6184 446.174 80.2344C445.454 79.8024 444.542 79.5864 443.438 79.5864C442.382 79.5864 441.446 79.8024 440.63 80.2344C439.862 80.6664 439.262 81.2664 438.83 82.0344C438.398 82.8024 438.182 83.7144 438.182 84.7704V96.5784C438.182 97.6344 438.086 98.6664 437.894 99.6744C437.702 100.682 437.15 101.498 436.238 102.122C435.374 102.746 433.838 103.058 431.63 103.058ZM495.163 102.986C493.003 102.986 491.395 102.626 490.339 101.906C489.331 101.186 488.851 100.37 488.899 99.4584H489.907C489.667 99.7944 489.187 100.25 488.467 100.826C487.795 101.354 486.883 101.858 485.731 102.338C484.579 102.77 483.163 102.986 481.483 102.986C479.323 102.986 477.235 102.506 475.219 101.546C473.251 100.538 471.475 99.1704 469.891 97.4424C468.355 95.7144 467.131 93.7704 466.219 91.6104C465.307 89.4024 464.851 87.0984 464.851 84.6984C464.851 82.3464 465.307 80.0904 466.219 77.9304C467.131 75.7704 468.379 73.8504 469.963 72.1704C471.547 70.4424 473.323 69.0984 475.291 68.1384C477.259 67.1304 479.323 66.6264 481.483 66.6264C483.115 66.6264 484.483 66.8664 485.587 67.3464C486.739 67.8264 487.651 68.3544 488.323 68.9304C489.043 69.5064 489.523 69.9864 489.763 70.3704H488.971C488.923 69.1704 489.403 68.2344 490.411 67.5624C491.467 66.8904 493.075 66.5544 495.235 66.5544C497.395 66.5544 498.907 66.8904 499.771 67.5624C500.683 68.1864 501.235 69.0024 501.427 70.0104C501.619 71.0184 501.715 72.0504 501.715 73.1064V96.5064C501.715 97.5624 501.619 98.5944 501.427 99.6024C501.235 100.61 500.683 101.426 499.771 102.05C498.907 102.674 497.371 102.986 495.163 102.986ZM483.283 89.9544C484.195 89.9544 485.011 89.7144 485.731 89.2344C486.499 88.7544 487.099 88.1304 487.531 87.3624C488.011 86.5464 488.251 85.6824 488.251 84.7704C488.251 83.8104 488.011 82.9464 487.531 82.1784C487.099 81.4104 486.499 80.7864 485.731 80.3064C484.963 79.8264 484.099 79.5864 483.139 79.5864C482.179 79.5864 481.291 79.8264 480.475 80.3064C479.707 80.7864 479.083 81.4344 478.603 82.2504C478.123 83.0184 477.883 83.8824 477.883 84.8424C477.883 85.7544 478.123 86.5944 478.603 87.3624C479.131 88.1304 479.803 88.7544 480.619 89.2344C481.435 89.7144 482.323 89.9544 483.283 89.9544ZM538.507 102.986C536.347 102.986 534.259 102.506 532.243 101.546C530.275 100.538 528.499 99.1944 526.915 97.5144C525.379 95.7864 524.155 93.8184 523.243 91.6104C522.331 89.4024 521.875 87.0984 521.875 84.6984C521.875 82.3944 522.331 80.1624 523.243 78.0024C524.155 75.8424 525.403 73.9224 526.987 72.2424C528.571 70.5144 530.347 69.1464 532.315 68.1384C534.331 67.1304 536.395 66.6264 538.507 66.6264C540.811 66.6264 542.803 67.1304 544.483 68.1384C546.163 69.0984 547.555 70.4184 548.659 72.0984C549.763 73.7784 550.579 75.6984 551.107 77.8584C551.683 80.0184 551.995 82.2504 552.043 84.5544C552.091 86.9064 551.851 89.1864 551.323 91.3944C550.795 93.5544 549.979 95.5224 548.875 97.2984C547.771 99.0264 546.355 100.418 544.627 101.474C542.947 102.482 540.907 102.986 538.507 102.986ZM540.235 90.0264C541.147 90.0264 541.987 89.7864 542.755 89.3064C543.523 88.8264 544.147 88.2024 544.627 87.4344C545.107 86.6184 545.347 85.7544 545.347 84.8424C545.347 83.8824 545.107 83.0184 544.627 82.2504C544.195 81.4824 543.595 80.8584 542.827 80.3784C542.059 79.8984 541.171 79.6584 540.163 79.6584C539.203 79.6584 538.315 79.8984 537.499 80.3784C536.731 80.8104 536.107 81.4344 535.627 82.2504C535.195 83.0184 534.979 83.8824 534.979 84.8424C534.979 85.7544 535.219 86.6184 535.699 87.4344C536.179 88.2024 536.827 88.8264 537.643 89.3064C538.459 89.7864 539.323 90.0264 540.235 90.0264ZM552.043 103.058C550.123 103.058 548.683 102.77 547.723 102.194C546.763 101.618 546.115 100.706 545.779 99.4584V56.6184C545.779 55.5624 545.827 54.5304 545.923 53.5224C546.067 52.5144 546.571 51.6984 547.435 51.0744C548.299 50.4024 549.811 50.0664 551.971 50.0664C554.179 50.0664 555.715 50.3784 556.579 51.0024C557.491 51.6264 558.043 52.4424 558.235 53.4504C558.427 54.4104 558.523 55.4424 558.523 56.5464V96.5064C558.523 97.5624 558.427 98.5944 558.235 99.6024C558.043 100.61 557.491 101.45 556.579 102.122C555.715 102.746 554.203 103.058 552.043 103.058ZM569.662 103.13C567.502 103.13 565.966 102.818 565.054 102.194C564.142 101.522 563.59 100.682 563.398 99.6744C563.254 98.6664 563.182 97.6344 563.182 96.5784V73.1064C563.182 72.0504 563.278 71.0424 563.47 70.0824C563.662 69.0744 564.214 68.2584 565.126 67.6344C566.038 66.9624 567.574 66.6264 569.734 66.6264C571.894 66.6264 573.406 66.9624 574.27 67.6344C575.182 68.2584 575.734 69.0744 575.926 70.0824C576.118 71.0904 576.214 72.1464 576.214 73.2504V96.6504C576.214 97.7064 576.118 98.7384 575.926 99.7464C575.734 100.754 575.182 101.57 574.27 102.194C573.406 102.818 571.87 103.13 569.662 103.13ZM569.662 63.0984C567.502 63.0984 565.966 62.7864 565.054 62.1624C564.142 61.4904 563.59 60.6504 563.398 59.6424C563.254 58.6344 563.182 57.6024 563.182 56.5464C563.182 55.4424 563.278 54.4104 563.47 53.4504C563.662 52.4424 564.214 51.6264 565.126 51.0024C566.038 50.3784 567.574 50.0664 569.734 50.0664C571.894 50.0664 573.406 50.4024 574.27 51.0744C575.182 51.6984 575.734 52.5144 575.926 53.5224C576.118 54.5304 576.214 55.5624 576.214 56.6184C576.214 57.6744 576.118 58.7064 575.926 59.7144C575.734 60.7224 575.182 61.5384 574.27 62.1624C573.406 62.7864 571.87 63.0984 569.662 63.0984ZM622.75 103.85C620.878 103.85 618.79 103.538 616.486 102.914C614.182 102.338 611.854 101.402 609.502 100.106C607.198 98.8104 605.062 97.1304 603.094 95.0664C601.174 93.0024 599.614 90.5304 598.414 87.6504C597.262 84.7704 596.686 81.4344 596.686 77.6424C596.686 73.9944 597.262 70.7784 598.414 67.9944C599.614 65.2104 601.174 62.8104 603.094 60.7944C605.014 58.7784 607.126 57.1464 609.43 55.8984C611.782 54.6504 614.134 53.7384 616.486 53.1624C618.838 52.5384 620.998 52.2264 622.966 52.2264C625.414 52.2264 627.574 52.5384 629.446 53.1624C631.318 53.7384 632.83 54.3624 633.982 55.0344C635.182 55.6584 635.926 56.0664 636.214 56.2584C637.174 56.8824 638.062 57.5784 638.878 58.3464C639.742 59.0664 640.174 60.0504 640.174 61.2984C640.174 61.9224 640.03 62.5704 639.742 63.2424C639.502 63.9144 639.118 64.6104 638.59 65.3304C637.63 66.6744 636.718 67.6584 635.854 68.2824C635.038 68.9064 634.222 69.2184 633.406 69.2184C632.782 69.2184 632.182 69.0744 631.606 68.7864C631.03 68.4984 630.334 68.0904 629.518 67.5624C629.182 67.3224 628.75 67.0584 628.222 66.7704C627.694 66.4344 626.974 66.1464 626.062 65.9064C625.15 65.6184 623.95 65.4744 622.462 65.4744C621.214 65.4744 619.846 65.7144 618.358 66.1944C616.918 66.6264 615.55 67.3464 614.254 68.3544C612.958 69.3144 611.902 70.6104 611.086 72.2424C610.27 73.8264 609.862 75.7464 609.862 78.0024C609.862 80.3064 610.27 82.2504 611.086 83.8344C611.95 85.4184 613.03 86.7144 614.326 87.7224C615.622 88.6824 616.99 89.4024 618.43 89.8824C619.918 90.3144 621.262 90.5304 622.462 90.5304C623.71 90.5304 624.766 90.4344 625.63 90.2424C626.494 90.0024 627.262 89.6904 627.934 89.3064C628.654 88.9224 629.302 88.5384 629.878 88.1544C630.406 87.7704 630.982 87.4344 631.606 87.1464C632.23 86.8584 632.854 86.7144 633.478 86.7144C634.294 86.7144 635.11 87.0504 635.926 87.7224C636.742 88.3944 637.606 89.4264 638.518 90.8184C639.046 91.6344 639.43 92.4024 639.67 93.1224C639.958 93.7944 640.102 94.4184 640.102 94.9944C640.102 96.1944 639.67 97.1544 638.806 97.8744C637.99 98.5944 637.102 99.2424 636.142 99.8184C635.806 100.01 635.086 100.442 633.982 101.114C632.878 101.786 631.39 102.41 629.518 102.986C627.646 103.562 625.39 103.85 622.75 103.85ZM661.26 103.778C659.052 103.778 656.82 103.346 654.564 102.482C652.308 101.57 650.22 100.298 648.3 98.6664C646.428 96.9864 644.916 94.9944 643.764 92.6904C642.66 90.3384 642.108 87.7224 642.108 84.8424C642.108 82.2024 642.612 79.7304 643.62 77.4264C644.628 75.1224 645.996 73.1064 647.724 71.3784C649.5 69.6024 651.516 68.2104 653.772 67.2024C656.076 66.1944 658.524 65.6904 661.116 65.6904C664.668 65.6904 667.884 66.5544 670.764 68.2824C673.644 69.9624 675.948 72.2424 677.676 75.1224C679.404 78.0024 680.268 81.2184 680.268 84.7704C680.268 87.7944 679.692 90.4824 678.54 92.8344C677.388 95.1864 675.876 97.1784 674.004 98.8104C672.132 100.442 670.068 101.666 667.812 102.482C665.604 103.346 663.42 103.778 661.26 103.778ZM661.116 90.6024C661.836 90.6024 662.652 90.4344 663.564 90.0984C664.524 89.7144 665.34 89.0904 666.012 88.2264C666.732 87.3624 667.092 86.1864 667.092 84.6984C667.092 83.4984 666.828 82.4664 666.3 81.6024C665.82 80.7384 665.124 80.0664 664.212 79.5864C663.3 79.1064 662.244 78.8664 661.044 78.8664C659.988 78.8664 659.028 79.1304 658.164 79.6584C657.3 80.1384 656.604 80.8344 656.076 81.7464C655.548 82.6104 655.284 83.6184 655.284 84.7704C655.284 86.2104 655.62 87.3624 656.292 88.2264C656.964 89.0904 657.756 89.7144 658.668 90.0984C659.58 90.4344 660.396 90.6024 661.116 90.6024ZM689.888 103.058C687.728 103.058 686.192 102.746 685.28 102.122C684.368 101.45 683.816 100.61 683.624 99.6024C683.48 98.5944 683.408 97.5624 683.408 96.5064V72.8184C683.408 71.7624 683.504 70.7544 683.696 69.7944C683.888 68.8344 684.44 68.0664 685.352 67.4904C686.264 66.8664 687.8 66.5544 689.96 66.5544C691.928 66.5544 693.344 66.8184 694.208 67.3464C695.12 67.8264 695.696 68.4264 695.936 69.1464C696.176 69.8664 696.272 70.5384 696.224 71.1624C696.224 71.7384 696.272 72.0984 696.368 72.2424L695.792 72.6744C695.744 71.9544 696.008 71.2344 696.584 70.5144C697.208 69.7944 698 69.1464 698.96 68.5704C699.968 67.9464 701.024 67.4664 702.128 67.1304C703.28 66.7464 704.36 66.5544 705.368 66.5544C707.768 66.5544 709.88 67.0104 711.704 67.9224C713.528 68.8344 715.04 70.1304 716.24 71.8104C717.488 73.4424 718.424 75.3624 719.048 77.5704C719.672 79.7784 719.984 82.1784 719.984 84.7704V96.5784C719.984 97.6344 719.888 98.6664 719.696 99.6744C719.504 100.682 718.952 101.498 718.04 102.122C717.176 102.746 715.64 103.058 713.432 103.058C711.224 103.058 709.664 102.746 708.752 102.122C707.84 101.45 707.288 100.61 707.096 99.6024C706.904 98.5944 706.808 97.5624 706.808 96.5064V84.7704C706.808 83.6664 706.592 82.7304 706.16 81.9624C705.776 81.1944 705.2 80.6184 704.432 80.2344C703.712 79.8024 702.8 79.5864 701.696 79.5864C700.64 79.5864 699.704 79.8024 698.888 80.2344C698.12 80.6664 697.52 81.2664 697.088 82.0344C696.656 82.8024 696.44 83.7144 696.44 84.7704V96.5784C696.44 97.6344 696.344 98.6664 696.152 99.6744C695.96 100.682 695.408 101.498 694.496 102.122C693.632 102.746 692.096 103.058 689.888 103.058ZM742.693 103.49C740.725 103.49 738.637 103.106 736.429 102.338C734.269 101.522 732.229 100.346 730.309 98.8104C728.389 97.2264 726.829 95.2584 725.629 92.9064C724.429 90.5544 723.829 87.8184 723.829 84.6984C723.829 81.6264 724.429 78.9384 725.629 76.6344C726.829 74.2824 728.365 72.3384 730.237 70.8024C732.157 69.2664 734.197 68.1144 736.357 67.3464C738.565 66.5304 740.629 66.1224 742.549 66.1224C744.373 66.1224 745.957 66.3144 747.301 66.6984C748.645 67.0824 749.749 67.5144 750.613 67.9944C751.477 68.4264 752.101 68.7624 752.485 69.0024C753.445 69.5784 754.333 70.2504 755.149 71.0184C756.013 71.7384 756.445 72.7224 756.445 73.9704C756.445 74.5944 756.325 75.2424 756.085 75.9144C755.845 76.5384 755.461 77.2584 754.933 78.0744C753.205 80.7144 751.477 82.0344 749.749 82.0344C748.981 82.0344 748.309 81.9144 747.733 81.6744C747.157 81.3864 746.629 81.0744 746.149 80.7384C745.669 80.4024 745.141 80.1144 744.565 79.8744C744.037 79.5864 743.365 79.4424 742.549 79.4424C741.589 79.4424 740.701 79.6824 739.885 80.1624C739.069 80.6424 738.421 81.2904 737.941 82.1064C737.461 82.8744 737.221 83.7624 737.221 84.7704C737.221 85.7784 737.461 86.6904 737.941 87.5064C738.421 88.3224 739.045 88.9704 739.813 89.4504C740.629 89.9304 741.493 90.1704 742.405 90.1704C743.077 90.1704 743.629 90.0984 744.061 89.9544C744.541 89.8104 744.901 89.6664 745.141 89.5224C745.381 89.3304 745.525 89.2344 745.573 89.2344C746.245 88.8504 746.869 88.4904 747.445 88.1544C748.069 87.8184 748.693 87.6504 749.317 87.6504C750.133 87.6504 750.973 87.9624 751.837 88.5864C752.701 89.1624 753.661 90.1224 754.717 91.4664C755.725 92.7144 756.277 93.8904 756.373 94.9944C756.517 96.0504 756.253 97.0584 755.581 98.0184C754.909 98.9304 753.877 99.8184 752.485 100.682C752.341 100.778 751.837 101.066 750.973 101.546C750.157 101.978 749.053 102.41 747.661 102.842C746.269 103.274 744.613 103.49 742.693 103.49ZM789.632 102.986C787.472 102.986 785.864 102.626 784.808 101.906C783.8 101.186 783.32 100.37 783.368 99.4584H784.376C784.136 99.7944 783.656 100.25 782.936 100.826C782.264 101.354 781.352 101.858 780.2 102.338C779.048 102.77 777.632 102.986 775.952 102.986C773.792 102.986 771.704 102.506 769.688 101.546C767.72 100.538 765.944 99.1704 764.36 97.4424C762.824 95.7144 761.6 93.7704 760.688 91.6104C759.776 89.4024 759.32 87.0984 759.32 84.6984C759.32 82.3464 759.776 80.0904 760.688 77.9304C761.6 75.7704 762.848 73.8504 764.432 72.1704C766.016 70.4424 767.792 69.0984 769.76 68.1384C771.728 67.1304 773.792 66.6264 775.952 66.6264C777.584 66.6264 778.952 66.8664 780.056 67.3464C781.208 67.8264 782.12 68.3544 782.792 68.9304C783.512 69.5064 783.992 69.9864 784.232 70.3704H783.44C783.392 69.1704 783.872 68.2344 784.88 67.5624C785.936 66.8904 787.544 66.5544 789.704 66.5544C791.864 66.5544 793.376 66.8904 794.24 67.5624C795.152 68.1864 795.704 69.0024 795.896 70.0104C796.088 71.0184 796.184 72.0504 796.184 73.1064V96.5064C796.184 97.5624 796.088 98.5944 795.896 99.6024C795.704 100.61 795.152 101.426 794.24 102.05C793.376 102.674 791.84 102.986 789.632 102.986ZM777.752 89.9544C778.664 89.9544 779.48 89.7144 780.2 89.2344C780.968 88.7544 781.568 88.1304 782 87.3624C782.48 86.5464 782.72 85.6824 782.72 84.7704C782.72 83.8104 782.48 82.9464 782 82.1784C781.568 81.4104 780.968 80.7864 780.2 80.3064C779.432 79.8264 778.568 79.5864 777.608 79.5864C776.648 79.5864 775.76 79.8264 774.944 80.3064C774.176 80.7864 773.552 81.4344 773.072 82.2504C772.592 83.0184 772.352 83.8824 772.352 84.8424C772.352 85.7544 772.592 86.5944 773.072 87.3624C773.6 88.1304 774.272 88.7544 775.088 89.2344C775.904 89.7144 776.792 89.9544 777.752 89.9544ZM818 103.49C816.656 103.49 815.48 103.226 814.472 102.698C813.512 102.17 812.768 101.378 812.24 100.322L799.496 76.0584C798.44 73.9944 798.104 72.2664 798.488 70.8744C798.872 69.4824 800.168 68.2584 802.376 67.2024C804.632 66.0984 806.408 65.7144 807.704 66.0504C809 66.3864 810.176 67.7544 811.232 70.1544L818 85.5624L824.768 70.1544C825.872 67.6584 827.072 66.2664 828.368 65.9784C829.664 65.6904 831.416 66.0984 833.624 67.2024C835.88 68.3064 837.176 69.5784 837.512 71.0184C837.848 72.4104 837.512 74.0904 836.504 76.0584L823.76 100.322C823.232 101.378 822.488 102.17 821.528 102.698C820.568 103.226 819.392 103.49 818 103.49ZM857.375 103.922C853.775 103.922 850.727 103.346 848.231 102.194C845.735 100.994 843.719 99.4584 842.183 97.5864C840.647 95.6664 839.519 93.6024 838.799 91.3944C838.079 89.1864 837.719 87.0504 837.719 84.9864C837.719 81.1944 838.559 77.8584 840.239 74.9784C841.919 72.0984 844.247 69.8424 847.223 68.2104C850.199 66.5784 853.607 65.7624 857.447 65.7624C860.423 65.7624 862.967 66.2424 865.079 67.2024C867.191 68.1624 868.895 69.3864 870.191 70.8744C871.535 72.3624 872.519 73.9464 873.143 75.6264C873.767 77.3064 874.079 78.8664 874.079 80.3064C874.079 83.0424 873.407 85.1304 872.063 86.5704C870.719 88.0104 868.991 88.7304 866.879 88.7304H851.543C851.735 89.4984 852.119 90.1704 852.695 90.7464C853.319 91.2744 854.087 91.7064 854.999 92.0424C855.911 92.3304 856.895 92.4744 857.951 92.4744C859.007 92.4744 859.943 92.4264 860.759 92.3304C861.575 92.1864 862.271 92.0184 862.847 91.8264C863.471 91.6344 864.023 91.4424 864.503 91.2504C865.031 91.0584 865.487 90.9144 865.871 90.8184C866.303 90.6744 866.711 90.6024 867.095 90.6024C867.959 90.6024 868.751 90.8904 869.471 91.4664C870.191 92.0424 870.839 92.9064 871.415 94.0584C871.751 94.6824 871.991 95.2824 872.135 95.8584C872.279 96.3864 872.351 96.8904 872.351 97.3704C872.351 98.8104 871.751 100.01 870.551 100.97C869.399 101.93 867.719 102.65 865.511 103.13C863.303 103.658 860.591 103.922 857.375 103.922ZM851.543 81.9624H859.607C860.279 81.9624 860.759 81.8184 861.047 81.5304C861.383 81.2424 861.551 80.8104 861.551 80.2344C861.551 79.6104 861.359 79.0824 860.975 78.6504C860.639 78.2184 860.159 77.9064 859.535 77.7144C858.911 77.4744 858.167 77.3544 857.303 77.3544C856.151 77.3544 855.143 77.5944 854.279 78.0744C853.415 78.5064 852.743 79.0824 852.263 79.8024C851.831 80.4744 851.591 81.1944 851.543 81.9624ZM883.81 103.13C881.65 103.13 880.114 102.818 879.202 102.194C878.29 101.522 877.738 100.682 877.546 99.6744C877.402 98.6184 877.33 97.5624 877.33 96.5064V73.0344C877.33 71.9304 877.426 70.8984 877.618 69.9384C877.81 68.9304 878.362 68.1144 879.274 67.4904C880.186 66.8664 881.722 66.5544 883.882 66.5544C885.994 66.5544 887.482 66.8424 888.346 67.4184C889.258 67.9944 889.81 68.6424 890.002 69.3624C890.194 70.0344 890.29 70.5624 890.29 70.9464L889.138 70.5144C889.138 70.5144 889.33 70.2984 889.714 69.8664C890.098 69.4344 890.65 68.9304 891.37 68.3544C892.138 67.7784 893.026 67.2744 894.034 66.8424C895.09 66.4104 896.266 66.1944 897.562 66.1944C897.994 66.1944 898.522 66.2424 899.146 66.3384C899.818 66.3864 900.514 66.5064 901.234 66.6984C902.002 66.8904 902.698 67.1784 903.322 67.5624C903.994 67.9464 904.522 68.4504 904.906 69.0744C905.338 69.6984 905.554 70.4664 905.554 71.3784C905.554 73.7784 905.026 75.8184 903.97 77.4984C902.962 79.1784 901.618 80.0184 899.938 80.0184C899.026 80.0184 898.378 79.9704 897.994 79.8744C897.61 79.7304 897.322 79.6104 897.13 79.5144C896.986 79.3704 896.794 79.2504 896.554 79.1544C896.362 79.0104 895.978 78.9384 895.402 78.9384C894.682 78.9384 894.01 79.0344 893.386 79.2264C892.81 79.3704 892.282 79.6104 891.802 79.9464C891.37 80.2824 891.034 80.6904 890.794 81.1704C890.554 81.6024 890.434 82.0824 890.434 82.6104V96.6504C890.434 97.7064 890.338 98.7384 890.146 99.7464C889.954 100.754 889.402 101.57 888.49 102.194C887.578 102.818 886.018 103.13 883.81 103.13ZM921.78 102.986C919.62 102.986 917.532 102.506 915.516 101.546C913.548 100.538 911.772 99.1944 910.188 97.5144C908.652 95.7864 907.428 93.8184 906.516 91.6104C905.604 89.4024 905.148 87.0984 905.148 84.6984C905.148 82.3944 905.604 80.1624 906.516 78.0024C907.428 75.8424 908.676 73.9224 910.26 72.2424C911.844 70.5144 913.62 69.1464 915.588 68.1384C917.604 67.1304 919.668 66.6264 921.78 66.6264C924.084 66.6264 926.076 67.1304 927.756 68.1384C929.436 69.0984 930.828 70.4184 931.932 72.0984C933.036 73.7784 933.852 75.6984 934.38 77.8584C934.956 80.0184 935.268 82.2504 935.316 84.5544C935.364 86.9064 935.124 89.1864 934.596 91.3944C934.068 93.5544 933.252 95.5224 932.148 97.2984C931.044 99.0264 929.628 100.418 927.9 101.474C926.22 102.482 924.18 102.986 921.78 102.986ZM923.508 90.0264C924.42 90.0264 925.26 89.7864 926.028 89.3064C926.796 88.8264 927.42 88.2024 927.9 87.4344C928.38 86.6184 928.62 85.7544 928.62 84.8424C928.62 83.8824 928.38 83.0184 927.9 82.2504C927.468 81.4824 926.868 80.8584 926.1 80.3784C925.332 79.8984 924.444 79.6584 923.436 79.6584C922.476 79.6584 921.588 79.8984 920.772 80.3784C920.004 80.8104 919.38 81.4344 918.9 82.2504C918.468 83.0184 918.252 83.8824 918.252 84.8424C918.252 85.7544 918.492 86.6184 918.972 87.4344C919.452 88.2024 920.1 88.8264 920.916 89.3064C921.732 89.7864 922.596 90.0264 923.508 90.0264ZM935.316 103.058C933.396 103.058 931.956 102.77 930.996 102.194C930.036 101.618 929.388 100.706 929.052 99.4584V56.6184C929.052 55.5624 929.1 54.5304 929.196 53.5224C929.34 52.5144 929.844 51.6984 930.708 51.0744C931.572 50.4024 933.084 50.0664 935.244 50.0664C937.452 50.0664 938.988 50.3784 939.852 51.0024C940.764 51.6264 941.316 52.4424 941.508 53.4504C941.7 54.4104 941.796 55.4424 941.796 56.5464V96.5064C941.796 97.5624 941.7 98.5944 941.508 99.6024C941.316 100.61 940.764 101.45 939.852 102.122C938.988 102.746 937.476 103.058 935.316 103.058ZM964.672 103.922C961.072 103.922 958.024 103.346 955.528 102.194C953.032 100.994 951.016 99.4584 949.48 97.5864C947.944 95.6664 946.816 93.6024 946.096 91.3944C945.376 89.1864 945.016 87.0504 945.016 84.9864C945.016 81.1944 945.856 77.8584 947.536 74.9784C949.216 72.0984 951.544 69.8424 954.52 68.2104C957.496 66.5784 960.904 65.7624 964.744 65.7624C967.72 65.7624 970.264 66.2424 972.376 67.2024C974.488 68.1624 976.192 69.3864 977.488 70.8744C978.832 72.3624 979.816 73.9464 980.44 75.6264C981.064 77.3064 981.376 78.8664 981.376 80.3064C981.376 83.0424 980.704 85.1304 979.36 86.5704C978.016 88.0104 976.288 88.7304 974.176 88.7304H958.84C959.032 89.4984 959.416 90.1704 959.992 90.7464C960.616 91.2744 961.384 91.7064 962.296 92.0424C963.208 92.3304 964.192 92.4744 965.248 92.4744C966.304 92.4744 967.24 92.4264 968.056 92.3304C968.872 92.1864 969.568 92.0184 970.144 91.8264C970.768 91.6344 971.32 91.4424 971.8 91.2504C972.328 91.0584 972.784 90.9144 973.168 90.8184C973.6 90.6744 974.008 90.6024 974.392 90.6024C975.256 90.6024 976.048 90.8904 976.768 91.4664C977.488 92.0424 978.136 92.9064 978.712 94.0584C979.048 94.6824 979.288 95.2824 979.432 95.8584C979.576 96.3864 979.648 96.8904 979.648 97.3704C979.648 98.8104 979.048 100.01 977.848 100.97C976.696 101.93 975.016 102.65 972.808 103.13C970.6 103.658 967.888 103.922 964.672 103.922ZM958.84 81.9624H966.904C967.576 81.9624 968.056 81.8184 968.344 81.5304C968.68 81.2424 968.848 80.8104 968.848 80.2344C968.848 79.6104 968.656 79.0824 968.272 78.6504C967.936 78.2184 967.456 77.9064 966.832 77.7144C966.208 77.4744 965.464 77.3544 964.6 77.3544C963.448 77.3544 962.44 77.5944 961.576 78.0744C960.712 78.5064 960.04 79.0824 959.56 79.8024C959.128 80.4744 958.888 81.1944 958.84 81.9624Z" fill="#0E3B26"/>
<path d="M294.843 199.204C293.298 199.204 291.98 199.014 290.891 198.634C289.827 198.254 288.953 197.811 288.269 197.304C287.585 196.772 287.066 196.291 286.711 195.86C286.356 195.43 286.141 195.164 286.065 195.062C285.558 194.429 285.242 193.859 285.115 193.352C285.014 192.846 285.09 192.339 285.343 191.832C285.622 191.326 286.078 190.768 286.711 190.16C287.294 189.603 287.864 189.299 288.421 189.248C288.978 189.172 289.523 189.286 290.055 189.59C290.612 189.894 291.144 190.338 291.651 190.92C292.259 191.604 292.778 192.073 293.209 192.326C293.64 192.554 294.134 192.668 294.691 192.668C295.375 192.668 295.932 192.592 296.363 192.44C296.794 192.263 297.11 192.01 297.313 191.68C297.516 191.326 297.617 190.882 297.617 190.35C297.617 189.92 297.402 189.59 296.971 189.362C296.54 189.109 295.97 188.894 295.261 188.716C294.577 188.539 293.804 188.349 292.943 188.146C292.082 187.918 291.233 187.627 290.397 187.272C289.89 187.07 289.396 186.816 288.915 186.512C288.434 186.208 287.978 185.866 287.547 185.486C287.142 185.081 286.787 184.612 286.483 184.08C286.179 183.523 285.938 182.902 285.761 182.218C285.609 181.534 285.533 180.762 285.533 179.9C285.533 178.355 285.913 176.974 286.673 175.758C287.458 174.542 288.522 173.58 289.865 172.87C291.233 172.161 292.778 171.806 294.501 171.806C295.742 171.806 296.806 171.908 297.693 172.11C298.58 172.313 299.302 172.554 299.859 172.832C300.442 173.111 300.885 173.377 301.189 173.63C301.493 173.858 301.683 174.01 301.759 174.086C302.595 174.846 303.051 175.505 303.127 176.062C303.203 176.594 302.899 177.367 302.215 178.38C301.455 179.47 300.708 180.09 299.973 180.242C299.238 180.369 298.39 180.128 297.427 179.52C297.224 179.368 297.022 179.204 296.819 179.026C296.616 178.824 296.338 178.659 295.983 178.532C295.654 178.38 295.147 178.304 294.463 178.304C294.21 178.304 293.956 178.355 293.703 178.456C293.45 178.532 293.234 178.646 293.057 178.798C292.88 178.925 292.728 179.09 292.601 179.292C292.5 179.495 292.449 179.71 292.449 179.938C292.449 180.47 292.652 180.888 293.057 181.192C293.462 181.471 293.994 181.686 294.653 181.838C295.337 181.99 296.084 182.142 296.895 182.294C297.706 182.446 298.529 182.649 299.365 182.902C300.049 183.13 300.708 183.422 301.341 183.776C301.974 184.131 302.532 184.587 303.013 185.144C303.494 185.702 303.874 186.398 304.153 187.234C304.457 188.045 304.609 189.046 304.609 190.236C304.609 191.883 304.292 193.289 303.659 194.454C303.026 195.594 302.202 196.519 301.189 197.228C300.201 197.912 299.137 198.406 297.997 198.71C296.882 199.04 295.831 199.204 294.843 199.204ZM329.839 193.998C330.219 194.758 330.422 195.404 330.447 195.936C330.472 196.468 330.308 196.937 329.953 197.342C329.598 197.748 329.028 198.153 328.243 198.558C327.027 199.141 326.09 199.318 325.431 199.09C324.772 198.888 324.152 198.166 323.569 196.924L317.109 183.7L310.725 196.962C310.117 198.153 309.484 198.85 308.825 199.052C308.166 199.28 307.242 199.103 306.051 198.52C305.266 198.14 304.683 197.748 304.303 197.342C303.948 196.937 303.784 196.468 303.809 195.936C303.834 195.404 304.037 194.758 304.417 193.998L313.955 174.238C314.259 173.63 314.702 173.149 315.285 172.794C315.893 172.414 316.514 172.224 317.147 172.224C317.603 172.224 318.021 172.313 318.401 172.49C318.806 172.642 319.174 172.87 319.503 173.174C319.832 173.478 320.098 173.846 320.301 174.276L329.839 193.998ZM311.105 193.314L313.993 187.386H320.263L323.151 193.314H311.105ZM335.423 198.786C334.283 198.786 333.472 198.622 332.991 198.292C332.509 197.938 332.218 197.494 332.117 196.962C332.015 196.405 331.965 195.848 331.965 195.29V175.682C331.965 175.125 332.015 174.58 332.117 174.048C332.218 173.516 332.509 173.086 332.991 172.756C333.472 172.402 334.295 172.224 335.461 172.224H343.099C344.061 172.224 345.1 172.427 346.215 172.832C347.329 173.212 348.381 173.808 349.369 174.618C350.357 175.429 351.167 176.442 351.801 177.658C352.434 178.874 352.751 180.318 352.751 181.99C352.751 183.156 352.573 184.245 352.219 185.258C351.889 186.272 351.383 187.196 350.699 188.032C350.04 188.843 349.229 189.565 348.267 190.198C347.329 190.806 346.253 191.288 345.037 191.642H338.919V195.328C338.919 195.886 338.868 196.43 338.767 196.962C338.665 197.494 338.374 197.938 337.893 198.292C337.411 198.622 336.588 198.786 335.423 198.786ZM351.345 197.874C350.205 198.736 349.305 199.078 348.647 198.9C347.988 198.748 347.279 198.166 346.519 197.152L339.527 187.652L347.431 186.664L352.143 193.01C352.649 193.745 352.966 194.366 353.093 194.872C353.245 195.379 353.181 195.86 352.903 196.316C352.624 196.772 352.105 197.292 351.345 197.874ZM338.919 184.726H343.099C343.327 184.726 343.593 184.688 343.897 184.612C344.226 184.511 344.53 184.359 344.809 184.156C345.087 183.928 345.315 183.637 345.493 183.282C345.695 182.928 345.797 182.484 345.797 181.952C345.797 181.42 345.67 180.952 345.417 180.546C345.163 180.116 344.821 179.786 344.391 179.558C343.985 179.305 343.529 179.178 343.023 179.178H338.919V184.726ZM358.09 198.786C357.001 198.786 356.216 198.622 355.734 198.292C355.253 197.963 354.949 197.532 354.822 197C354.696 196.468 354.632 195.898 354.632 195.29V175.644C354.632 175.087 354.683 174.542 354.784 174.01C354.886 173.478 355.177 173.048 355.658 172.718C356.14 172.364 356.963 172.199 358.128 172.224H364.664C366.463 172.224 368.16 172.566 369.756 173.25C371.352 173.934 372.758 174.884 373.974 176.1C375.216 177.291 376.178 178.684 376.862 180.28C377.572 181.876 377.926 183.574 377.926 185.372C377.926 187.222 377.572 188.957 376.862 190.578C376.178 192.2 375.216 193.631 373.974 194.872C372.758 196.088 371.34 197.051 369.718 197.76C368.122 198.444 366.4 198.786 364.55 198.786H358.09ZM361.586 191.832H364.664C365.804 191.832 366.856 191.554 367.818 190.996C368.781 190.414 369.541 189.654 370.098 188.716C370.681 187.754 370.972 186.69 370.972 185.524C370.972 184.359 370.681 183.295 370.098 182.332C369.541 181.37 368.781 180.61 367.818 180.052C366.856 179.47 365.792 179.178 364.626 179.178H361.586V191.832ZM383.371 198.824C382.231 198.824 381.42 198.66 380.939 198.33C380.457 197.976 380.166 197.532 380.065 197C379.963 196.443 379.913 195.886 379.913 195.328V175.682C379.913 174.365 380.166 173.466 380.673 172.984C381.205 172.478 382.142 172.224 383.485 172.224H397.393C397.975 172.224 398.52 172.275 399.027 172.376C399.559 172.478 399.989 172.769 400.319 173.25C400.673 173.732 400.851 174.555 400.851 175.72C400.851 176.86 400.673 177.671 400.319 178.152C399.989 178.634 399.559 178.925 399.027 179.026C398.495 179.128 397.937 179.178 397.355 179.178H386.867V182.56H393.897C394.479 182.56 394.999 182.611 395.455 182.712C395.911 182.788 396.278 183.029 396.557 183.434C396.835 183.84 396.975 184.549 396.975 185.562C396.975 186.525 396.835 187.222 396.557 187.652C396.278 188.058 395.898 188.298 395.417 188.374C394.935 188.45 394.403 188.488 393.821 188.488H386.867V191.87H397.393C397.975 191.87 398.52 191.921 399.027 192.022C399.559 192.124 399.989 192.415 400.319 192.896C400.673 193.378 400.851 194.201 400.851 195.366C400.851 196.506 400.673 197.317 400.319 197.798C399.989 198.28 399.559 198.571 399.027 198.672C398.495 198.774 397.937 198.824 397.355 198.824H383.371ZM416.071 199.204C414.247 199.204 412.525 198.837 410.903 198.102C409.307 197.368 407.889 196.354 406.647 195.062C405.406 193.77 404.431 192.276 403.721 190.578C403.037 188.881 402.695 187.07 402.695 185.144C402.695 183.295 403.05 181.572 403.759 179.976C404.469 178.355 405.444 176.936 406.685 175.72C407.952 174.479 409.409 173.516 411.055 172.832C412.702 172.123 414.463 171.768 416.337 171.768C417.148 171.768 418.022 171.844 418.959 171.996C419.897 172.148 420.809 172.389 421.695 172.718C422.607 173.022 423.393 173.402 424.051 173.858C424.583 174.213 425.065 174.593 425.495 174.998C425.951 175.404 426.179 175.91 426.179 176.518C426.179 176.822 426.103 177.152 425.951 177.506C425.799 177.861 425.584 178.241 425.305 178.646C424.824 179.356 424.343 179.875 423.861 180.204C423.38 180.508 422.924 180.66 422.493 180.66C422.215 180.66 421.923 180.597 421.619 180.47C421.341 180.318 420.948 180.09 420.441 179.786C420.289 179.685 419.998 179.558 419.567 179.406C419.137 179.229 418.617 179.077 418.009 178.95C417.427 178.798 416.806 178.722 416.147 178.722C414.957 178.722 413.867 179.014 412.879 179.596C411.891 180.154 411.106 180.926 410.523 181.914C409.941 182.902 409.649 184.004 409.649 185.22C409.649 186.462 409.953 187.614 410.561 188.678C411.169 189.717 411.967 190.566 412.955 191.224C413.969 191.858 415.058 192.174 416.223 192.174C416.679 192.174 417.123 192.162 417.553 192.136C418.009 192.111 418.453 192.06 418.883 191.984C419.314 191.908 419.694 191.807 420.023 191.68V188.412H417.211C416.755 188.412 416.325 188.374 415.919 188.298C415.514 188.197 415.185 187.944 414.931 187.538C414.678 187.133 414.551 186.436 414.551 185.448C414.551 184.46 414.691 183.764 414.969 183.358C415.248 182.953 415.603 182.712 416.033 182.636C416.464 182.56 416.895 182.522 417.325 182.522H423.975C424.989 182.548 425.698 182.738 426.103 183.092C426.509 183.422 426.749 183.827 426.825 184.308C426.927 184.79 426.977 185.296 426.977 185.828V193.618C426.977 194.328 426.673 195.062 426.065 195.822C425.457 196.557 424.634 197.19 423.595 197.722C422.962 198.052 422.253 198.318 421.467 198.52C420.682 198.748 419.833 198.913 418.921 199.014C418.035 199.141 417.085 199.204 416.071 199.204ZM433.162 198.824C432.047 198.824 431.249 198.66 430.768 198.33C430.286 197.976 429.995 197.532 429.894 197C429.792 196.468 429.742 195.911 429.742 195.328V175.606C429.742 175.049 429.792 174.517 429.894 174.01C429.995 173.504 430.286 173.086 430.768 172.756C431.274 172.427 432.098 172.262 433.238 172.262C434.352 172.262 435.112 172.402 435.518 172.68C435.923 172.959 436.29 173.314 436.62 173.744L446.12 186.512V175.606C446.12 175.049 446.17 174.517 446.272 174.01C446.398 173.504 446.702 173.086 447.184 172.756C447.665 172.427 448.476 172.262 449.616 172.262C450.781 172.262 451.592 172.44 452.048 172.794C452.529 173.124 452.82 173.554 452.922 174.086C453.023 174.618 453.074 175.176 453.074 175.758V195.366C453.074 195.924 453.023 196.468 452.922 197C452.82 197.532 452.529 197.976 452.048 198.33C451.566 198.66 450.743 198.824 449.578 198.824C448.716 198.824 448.058 198.748 447.602 198.596C447.171 198.47 446.804 198.204 446.5 197.798L436.658 184.802V195.366C436.658 195.924 436.607 196.468 436.506 197C436.404 197.532 436.113 197.976 435.632 198.33C435.15 198.66 434.327 198.824 433.162 198.824ZM480.355 193.998C480.735 194.758 480.937 195.404 480.963 195.936C480.988 196.468 480.823 196.937 480.469 197.342C480.114 197.748 479.544 198.153 478.759 198.558C477.543 199.141 476.605 199.318 475.947 199.09C475.288 198.888 474.667 198.166 474.085 196.924L467.625 183.7L461.241 196.962C460.633 198.153 459.999 198.85 459.341 199.052C458.682 199.28 457.757 199.103 456.567 198.52C455.781 198.14 455.199 197.748 454.819 197.342C454.464 196.937 454.299 196.468 454.325 195.936C454.35 195.404 454.553 194.758 454.933 193.998L464.471 174.238C464.775 173.63 465.218 173.149 465.801 172.794C466.409 172.414 467.029 172.224 467.663 172.224C468.119 172.224 468.537 172.313 468.917 172.49C469.322 172.642 469.689 172.87 470.019 173.174C470.348 173.478 470.614 173.846 470.817 174.276L480.355 193.998ZM461.621 193.314L464.509 187.386H470.779L473.667 193.314H461.621Z" fill="#0E3B26"/>
<line x1="288.543" y1="124.982" x2="977.543" y2="124.489" stroke="#0E3B26" stroke-width="4"/>
<path d="M191.946 89.4747C191.94 89.4395 191.907 89.4159 191.873 89.42L191.83 89.4258C191.794 89.4315 191.771 89.4641 191.776 89.4989L192.205 92.4377C192.211 92.4729 192.244 92.4964 192.278 92.4926L192.321 92.4858C192.356 92.4809 192.38 92.4486 192.374 92.4134L191.946 89.4747ZM157.61 79.9632C156.055 79.2103 153.959 78.955 152.262 79.6324C152.105 79.6948 152.108 79.7356 152.277 79.7544C155.201 80.1133 157.271 80.7993 159.749 81.6674C159.828 81.6963 159.838 81.678 159.778 81.6192C159.126 80.9815 158.413 80.3537 157.61 79.9632ZM158.441 78.3755C158.411 78.3585 158.389 78.3384 158.371 78.3139C158.363 78.3034 158.36 78.3049 158.361 78.3164C158.36 78.3215 158.361 78.3269 158.366 78.3297C159.198 79.3029 160.039 80.4718 160.892 81.8372C160.963 81.9514 161.061 82.0284 161.187 82.0696L161.562 82.1959C161.721 82.2462 161.761 82.1977 161.688 82.0493C160.937 80.5024 159.854 79.2786 158.441 78.3755ZM163.773 83.1556C163.818 83.1771 163.866 83.1317 163.849 83.0859C163.258 81.4768 162.414 80.0147 161.312 78.7026C161.29 78.6741 161.264 78.6733 161.234 78.6945L161.174 78.7428C161.168 78.7471 161.169 78.7545 161.173 78.7593C162.021 79.7348 162.486 80.9971 162.568 82.5488C162.57 82.5967 162.594 82.6323 162.637 82.6502L163.773 83.1556ZM116.757 69.0285C117.375 68.8597 117.915 68.4821 118.619 68.4053C118.651 68.403 118.668 68.3839 118.666 68.3529L118.663 68.3501C118.662 68.3286 118.649 68.3193 118.625 68.3176C117.914 68.2993 117.276 68.5049 116.711 68.9347C116.567 69.0442 116.584 69.0759 116.757 69.0285ZM110.556 65.5391C110.002 65.7606 109.44 65.9739 108.972 66.3558C108.95 66.3741 108.947 66.395 108.965 66.4196L108.964 66.4215C108.978 66.4414 108.994 66.4479 109.009 66.441L110.626 65.5713C110.634 65.5677 110.633 65.5559 110.627 65.5501C110.622 65.5462 110.618 65.5435 110.616 65.5411C110.6 65.5315 110.579 65.5302 110.556 65.5391ZM108.876 61.638C109.697 61.5209 110.298 61.7225 111.005 61.7275C111.05 61.7273 111.054 61.7186 111.012 61.6955C110.992 61.6852 110.969 61.6764 110.943 61.6724C110.882 61.6661 110.842 61.6599 110.826 61.6523C110.199 61.4179 109.547 61.3549 108.869 61.4647C108.83 61.47 108.812 61.4922 108.817 61.533L108.822 61.597C108.824 61.628 108.844 61.6403 108.876 61.638ZM114.13 62.1144C114.154 62.0758 113.998 61.9363 113.784 61.802C113.571 61.6685 113.376 61.588 113.353 61.6267C113.328 61.6652 113.485 61.804 113.698 61.9395C113.912 62.0726 114.106 62.1531 114.13 62.1144ZM168.833 56.3089C169.893 56.5816 170.801 56.8831 171.858 57.4339C171.891 57.4516 171.914 57.4426 171.927 57.4067L171.946 57.3488C171.95 57.3401 171.946 57.3322 171.939 57.3291C171.011 56.6753 169.98 56.3185 168.841 56.2577C168.658 56.2459 168.655 56.2641 168.833 56.3089ZM113.485 45.5884C112.187 45.4765 110.666 45.4831 108.925 45.6058C105.543 45.8435 102.773 46.1144 100.612 46.4215C100.575 46.4251 100.538 46.3988 100.535 46.3612L100.526 46.2905C100.516 46.2128 100.566 46.1411 100.642 46.1185C105.481 44.7502 110.247 43.8421 115.298 43.8835C115.315 43.8841 115.323 43.8781 115.326 43.862C115.326 43.8588 115.327 43.8549 115.325 43.8514C115.326 43.8447 115.324 43.8392 115.317 43.8409C109.198 43.4217 103.123 44.5873 97.0139 44.3542C96.5191 44.3352 96.4751 44.1841 96.882 43.9012C96.8952 43.8939 96.9996 43.871 97.2003 43.8331C101.67 42.974 106.033 42.4153 110.294 42.1517C110.895 42.1124 110.897 42.0479 110.303 41.9559C105.879 41.2653 101.41 40.5875 96.9486 39.7138C96.8949 39.7035 96.8737 39.6401 96.9066 39.5968C96.9631 39.5262 97.0358 39.4919 97.1245 39.4943C100.816 39.5295 104.476 39.6691 108.105 39.9062C108.274 39.9179 108.277 39.8986 108.116 39.8519C107.828 39.7674 107.484 39.6943 107.082 39.632C103.044 39.0086 98.9432 38.5757 94.7845 38.3287C94.6846 38.3225 94.6418 38.2707 94.66 38.1691L94.6817 38.06C94.6958 37.9847 94.7575 37.9274 94.835 37.9248C98.1995 37.742 101.561 37.7765 104.92 38.0307C104.932 38.0294 104.938 38.0211 104.942 37.9998L104.942 37.9978C104.943 37.9762 104.935 37.9657 104.914 37.9624C99.5477 37.0953 94.1432 36.6617 88.6985 36.6574C88.6676 36.6566 88.6509 36.6395 88.6484 36.6085L88.644 36.5457C88.6428 36.5064 88.6606 36.4854 88.6999 36.479C97.8987 35.3194 107.569 36.4428 116.286 39.5599C128.2 43.8217 135.355 53.5222 138.041 65.5622C138.048 65.5943 138.069 65.6102 138.102 65.6028L138.104 65.6031C138.136 65.5968 138.151 65.5774 138.147 65.5448C137.278 58.5635 138.469 51.6801 142.43 45.9993C146.397 40.3124 152.37 35.5813 158.333 32.3959C162.08 30.3947 165.921 29.1991 169.854 28.808C169.888 28.806 169.918 28.8107 169.943 28.8218C169.986 28.8398 170.009 28.861 170.012 28.8853C170.022 28.9466 169.986 29.009 169.925 29.0275C168.669 29.4224 167.417 29.8293 166.174 30.2527C163.565 31.1388 161.114 32.3465 158.821 33.8731C158.805 33.8851 158.803 33.8993 158.811 33.9171C158.821 33.9359 158.837 33.9384 158.855 33.9291C161.736 32.3872 164.597 31.1451 167.779 30.5272C169.686 30.1549 171.773 29.7443 173.717 29.8576C173.789 29.8614 173.808 29.9584 173.745 29.9898C173.522 30.0999 173.295 30.1647 173.064 30.1846C170.337 30.4186 167.789 31.0819 165.418 32.1762C165.085 32.329 165.101 32.3771 165.463 32.3248C166.701 32.1399 167.936 31.9223 169.159 31.676C169.638 31.58 169.683 31.6663 169.288 31.9346C169.162 32.0203 168.965 32.1249 168.693 32.2461C165.309 33.7705 161.487 34.8775 158.029 36.6714C158 36.6868 157.995 36.7097 158.007 36.7382L158.009 36.7405C158.021 36.7694 158.044 36.7771 158.072 36.7649C160.249 35.8953 162.825 35.5875 165.15 35.3872C167.603 35.1737 170.389 35.0695 173.51 35.0739C173.711 35.0739 173.879 35.1436 174.024 35.2817L174.078 35.3303C174.148 35.3969 174.111 35.5161 174.015 35.5299C171.32 35.9249 169.079 36.2342 167.288 36.4575C165.401 36.6905 163.58 36.9834 161.831 37.3326C161.441 37.4097 161.446 37.439 161.84 37.4227C165.046 37.2992 168.24 37.4368 171.424 37.8307C171.471 37.8353 171.497 37.8856 171.479 37.928L171.446 38.0003C171.409 38.0765 171.332 38.1262 171.249 38.1278C165.916 38.2009 160.71 39.0366 155.626 40.6364C155.608 40.6409 155.604 40.6547 155.608 40.6751L155.609 40.6774C155.616 40.6998 155.629 40.7071 155.651 40.7004C159.877 39.689 164.15 39.4809 168.466 40.0772C168.652 40.1036 168.76 40.1203 168.787 40.1318C169.155 40.2774 169.143 40.3789 168.752 40.436C167.689 40.5935 166.69 40.706 165.494 40.7708C162.34 40.9386 159.253 41.5018 156.236 42.4546C156.208 42.4648 156.191 42.4932 156.199 42.5215L156.217 42.5912C156.219 42.5946 156.222 42.5971 156.226 42.5957C159.135 42.0005 162.511 42.1601 165.269 43.3131C165.594 43.4501 165.593 43.5842 165.266 43.7163C165.243 43.7252 165.14 43.7214 164.958 43.7045C160.765 43.3246 156.822 43.723 153.151 45.9107C153.12 45.9265 153.113 45.952 153.13 45.9868L153.129 45.9887C153.146 46.0223 153.173 46.0314 153.208 46.0174C155.518 45.0407 158.537 45.1141 160.954 45.6235C161.027 45.6401 161.073 45.7142 161.052 45.7854C161.022 45.9034 160.924 45.9628 160.762 45.9662C157.146 46.0671 153.679 46.819 150.547 48.6892C150.522 48.7052 150.515 48.736 150.534 48.7594L150.575 48.8166C150.583 48.8251 150.592 48.8286 150.603 48.823C151.592 48.3879 152.263 48.1314 152.615 48.058C155.916 47.3627 160.003 47.5457 163.03 49.1323C163.37 49.3132 163.648 49.5119 163.856 49.7341C164.044 49.9345 164.005 49.9998 163.739 49.9328C161.269 49.2982 158.421 48.8087 156.042 49.238C154.876 49.4498 153.549 49.943 152.062 50.7231C152.03 50.7398 152.022 50.7624 152.037 50.7933L152.039 50.7936C152.054 50.825 152.076 50.8337 152.107 50.8207C154.74 49.7218 158.272 50.365 160.837 50.8848C160.955 50.9074 160.954 50.934 160.839 50.9669C160.633 51.0218 160.446 51.0379 160.276 51.0168C157.228 50.612 154.425 50.4924 151.488 51.559C150.246 52.0085 149.042 52.5458 147.881 53.1666C147.857 53.1795 147.849 53.2 147.862 53.2238L147.864 53.2262C147.878 53.2501 147.895 53.2576 147.921 53.2451C151.736 51.3579 155.46 51.5446 159.5 52.4884C159.573 52.5038 159.617 52.5827 159.589 52.6558L159.562 52.7211C159.549 52.7601 159.519 52.7793 159.477 52.7747C158.347 52.6937 157.215 52.6824 156.083 52.7445C152.779 52.9275 149.772 54.3999 147.297 56.5485C147.272 56.5704 147.268 56.5968 147.29 56.6261L147.292 56.6264C147.313 56.6563 147.34 56.6584 147.368 56.6361C150.152 54.4373 153.491 54.1639 156.83 55.1537C157.426 55.3307 157.413 55.4154 156.792 55.4029C154.653 55.3655 152.2 55.5594 150.38 56.9055C149.378 57.647 148.475 58.4281 147.67 59.2476C147.27 59.6542 147.319 59.7157 147.815 59.4333C149.118 58.6937 150.495 57.8099 152.205 57.7651C152.244 57.7639 152.276 57.7927 152.279 57.8291L152.287 57.8985C152.298 57.9743 152.262 58.0195 152.186 58.0315C150.537 58.283 149.447 59.0616 148.144 59.7928C147.883 59.937 147.894 59.9624 148.175 59.8669C149.143 59.5359 151.069 59.2137 151.885 59.9997C152.265 60.3629 152.197 60.4827 151.687 60.3634C150.58 60.1019 147.365 61.2969 146.541 62.0951C146.53 62.1059 146.542 62.1211 146.554 62.1165C147.985 61.501 149.333 61.5345 150.605 62.2145C150.782 62.3101 150.806 62.4171 150.675 62.533C150.633 62.572 150.573 62.5873 150.517 62.5734C149.656 62.3751 148.828 62.4687 148.038 62.8511C147.827 62.9507 147.836 63.0355 148.059 63.1043C148.475 63.2284 148.864 63.4766 149.223 63.8471C149.276 63.9008 149.303 63.9535 149.307 64.0044C149.309 64.0358 149.305 64.0662 149.293 64.0934C149.263 64.1701 149.209 64.1889 149.136 64.1485C148.663 63.8927 148.154 63.794 147.609 63.8519C147.518 63.8616 147.44 63.9003 147.379 63.9683L146.417 64.9878C146.354 65.0542 146.383 65.165 146.47 65.1931C146.839 65.3119 147.179 65.4876 147.49 65.7184C147.62 65.816 147.597 66.0135 147.449 66.0774C145.136 67.0826 144.055 70.7753 143.854 73.0287C143.835 73.2416 143.884 73.2571 143.996 73.0741C149.05 64.9524 155.13 58.0425 163.92 53.7614C164.177 53.6351 164.244 53.7031 164.12 53.9605L163.931 54.3554C163.913 54.3909 163.924 54.4144 163.964 54.4245C163.99 54.4318 164.009 54.4244 164.027 54.4033C164.82 53.4774 166.802 52.0132 168.121 52.5542C168.318 52.6351 168.314 52.707 168.112 52.7717L165.826 53.5034C165.799 53.5113 165.79 53.5244 165.794 53.5428L165.796 53.5451C165.8 53.5643 165.813 53.5716 165.836 53.5658C167.385 53.1297 169.813 53.1094 171.129 53.5371C171.532 53.6669 171.883 53.743 172.186 53.7629C173.768 53.8717 175.125 54.1315 176.261 54.5502C177.913 55.1581 180.534 56.7002 181.146 58.4788C181.163 58.5265 181.14 58.581 181.093 58.6044C181.009 58.6423 180.93 58.6154 180.855 58.5252C179.374 56.7229 177.797 55.9831 175.705 55.0966C175.681 55.0856 175.66 55.0916 175.649 55.117L175.649 55.119C175.638 55.1439 175.647 55.165 175.671 55.176C176.797 55.6694 178.513 56.825 178.826 58.1121C178.91 58.4542 178.815 58.5139 178.539 58.2954C178.138 57.9745 177.802 57.5063 177.371 57.2086C176.905 56.8843 176.461 56.6297 176.039 56.4491C175.758 56.3257 175.732 56.3653 175.965 56.5675C176.331 56.8814 176.535 57.2803 176.581 57.7664C176.591 57.8998 176.447 57.9932 176.33 57.9247C174.553 56.9018 172.222 55.3623 170.041 55.7384C169.76 55.7889 169.476 55.8098 169.188 55.8015C169.181 55.8024 169.181 55.8024 169.188 55.8035C170.587 56.1524 171.956 56.8919 172.769 58.1254C172.842 58.238 172.784 58.3919 172.653 58.4296C172.041 58.6094 171.522 58.9346 171.096 59.4053C171.046 59.4604 170.983 59.4837 170.907 59.4792C170.324 59.4345 169.778 59.268 169.269 58.9827C169.25 58.9726 169.232 58.9843 169.21 59.012L169.21 59.0139C169.189 59.0449 169.194 59.0723 169.225 59.0936C169.794 59.502 170.116 60.0203 170.183 60.6532C170.227 61.0564 170.134 61.0925 169.905 60.7565C169.432 60.068 168.769 59.3645 167.939 59.0247C167.81 58.9705 167.791 58.9986 167.878 59.106C168.067 59.3344 168.36 59.4914 168.527 59.6855C168.968 60.2026 169.194 60.7477 169.209 61.3177C169.215 61.5613 169.147 61.5813 169.007 61.3843L167.376 59.0665C167.363 59.0479 167.347 59.0454 167.328 59.059L167.279 59.0978C167.251 59.1172 167.247 59.1405 167.267 59.1702C167.67 59.7519 168.219 60.5078 168.26 61.1275C168.266 61.2264 168.223 61.2557 168.131 61.22C166.88 60.704 164.452 58.8499 163.139 59.5165C163.029 59.5717 163.037 59.602 163.159 59.6063C163.766 59.6282 164.306 59.8242 164.78 60.1941C164.833 60.2362 164.831 60.3166 164.775 60.3542C164.715 60.3953 164.638 60.3999 164.539 60.3705C163.792 60.1443 163.028 60.0617 162.251 60.1213C162.225 60.1253 162.21 60.1395 162.211 60.1655L162.211 60.1687C162.209 60.1942 162.223 60.2116 162.252 60.2129C163.337 60.2923 165.966 61.6709 166.185 62.8538C166.222 63.0588 166.158 63.0992 165.989 62.9732C165.358 62.4903 164.596 61.9726 163.741 61.9991C162.571 62.0368 161.445 62.2713 160.36 62.7019C160.335 62.7126 160.328 62.7308 160.336 62.7538L160.336 62.7558C160.344 62.7809 160.361 62.7888 160.388 62.7804C161.127 62.5688 161.894 62.4707 162.689 62.4877C162.722 62.4888 162.752 62.514 162.754 62.5482L162.759 62.6357C162.761 62.6702 162.74 62.6981 162.705 62.7039C160.691 63.008 159.548 63.4152 158.015 64.243C158.005 64.2486 158.012 64.2611 158.022 64.2605C158.482 64.185 158.954 63.9775 159.39 64.0326C159.937 64.1 160.374 64.3391 160.7 64.7496C160.854 64.9488 160.815 65.0028 160.579 64.9134C159.708 64.5866 158.819 64.5211 157.91 64.719C157.788 64.7456 157.786 64.7791 157.901 64.8241C158.672 65.1084 159.338 65.5462 159.904 66.1315C160.101 66.3373 160.057 66.4297 159.775 66.4073C159.049 66.353 158.408 65.821 157.619 65.9766C157.016 66.0978 156.413 66.2034 155.808 66.2997C155.787 66.3036 155.774 66.3162 155.778 66.3406L155.777 66.3437C155.779 66.3654 155.785 66.3755 155.792 66.3747C156.969 66.3722 158.05 66.6925 159.036 67.3388C159.078 67.3667 159.082 67.4015 159.048 67.4365C159.03 67.4532 159.016 67.4695 159.002 67.4851C158.996 67.4914 158.988 67.4943 158.981 67.4932C158.068 67.3226 155.382 66.9535 154.679 67.6895C154.613 67.762 154.626 67.8003 154.724 67.803C155.405 67.8343 156.068 67.9584 156.711 68.1757C157.117 68.3132 157.109 68.4026 156.682 68.4449C153.536 68.7532 150.388 72.3967 148.341 74.9373C148.206 75.1024 148.235 75.1347 148.421 75.0365C154.805 71.6717 162.038 69.804 169.294 69.9329C183.064 70.1781 194.178 79.9321 196.973 93.2633C197.366 95.1253 197.642 97.5936 197.806 100.667C197.809 100.751 197.771 100.786 197.687 100.766L197.608 100.75C197.587 100.743 197.575 100.73 197.571 100.707C196.824 95.7163 195.384 90.8081 192.963 86.4531C192.716 86.0121 192.095 85.0954 191.103 83.7083C191.086 83.6839 191.067 83.681 191.044 83.6993L191.043 83.699C191.018 83.7169 191.015 83.7358 191.033 83.7584C194.443 88.5754 195.839 93.8162 195.836 99.2843C195.838 100.1 195.733 100.892 195.527 101.665C195.511 101.73 195.439 101.76 195.381 101.724C195.324 101.691 195.264 101.597 195.256 101.524C194.917 98.9314 194.342 96.399 193.532 93.9254C193.509 93.857 193.497 93.859 193.493 93.9306C193.251 99.1923 192.003 104.199 189.755 108.95C189.73 109.004 189.664 109.025 189.61 108.994L189.549 108.958C189.506 108.935 189.493 108.9 189.507 108.856C190.423 105.879 191.008 102.953 191.259 100.078C191.427 98.1336 191.579 96.6585 191.708 95.6543C191.709 95.6359 191.701 95.6247 191.682 95.6197L191.68 95.6194C191.664 95.6169 191.654 95.6193 191.649 95.6312C190.982 98.2372 189.981 100.705 188.651 103.038C188.429 103.424 188.327 103.401 188.345 102.971C188.349 102.935 188.383 102.808 188.448 102.59C189.39 99.4881 190.194 95.9899 190.245 92.9465C190.264 91.7141 190.169 89.8526 189.958 87.3613C189.955 87.3217 189.934 87.3019 189.893 87.3028L189.824 87.3067C189.792 87.3091 189.766 87.3357 189.766 87.3699C189.777 88.0497 189.788 88.7191 189.799 89.3825C189.851 92.6915 189.209 95.8031 187.863 98.723C187.846 98.7638 187.799 98.7856 187.755 98.7715C187.711 98.7575 187.684 98.715 187.694 98.6701C188.155 96.1619 188.772 93.8683 189 91.4347C189.016 91.247 188.994 91.0343 188.932 90.8006C188.902 90.6959 188.876 90.6959 188.848 90.8019C188.675 91.4607 188.514 92.119 188.361 92.7756C188.304 93.0217 188.27 93.1506 188.26 93.1664C187.895 93.6312 187.726 93.5691 187.756 92.977C187.81 91.8654 187.98 90.6398 187.957 89.5801C187.914 87.6818 187.673 85.9009 187.231 84.2368C187.033 83.4815 186.935 83.4929 186.936 84.2745C186.946 86.7955 186.508 90.2859 185.055 92.5731C184.987 92.676 184.93 92.6724 184.883 92.5611C184.787 92.3465 184.739 92.1278 184.741 91.9092C184.762 88.4652 184.686 86.1834 183.877 83.2197C183.762 82.795 183.621 82.4462 183.46 82.1685C183.424 82.1059 183.326 82.1384 183.335 82.212C183.726 84.9098 183.784 87.2174 183.417 89.8575C183.394 90.02 183.335 90.0348 183.241 89.8984C183.24 89.895 183.235 89.8491 183.225 89.7536C182.918 86.3813 181.86 83.2624 180.05 80.3976C179.998 80.3149 179.939 80.2605 179.874 80.2308C179.813 80.2048 179.748 80.2617 179.77 80.3251C180.325 81.9304 181.047 84.0549 181.126 85.6081C181.166 86.3905 181.054 86.4147 180.794 85.6744C179.726 82.646 178.28 79.8065 176.46 77.1566C176.443 77.1293 176.42 77.1257 176.393 77.1431L176.343 77.1767C176.284 77.216 176.263 77.2963 176.3 77.36C178.256 80.7853 178.711 84.522 178.165 88.3133C178.11 88.6794 178.053 88.9286 177.987 89.0599C177.789 89.4522 177.671 89.4339 177.632 89.005C177.568 88.2858 177.493 87.4949 177.409 86.6282C177.044 82.8982 175.581 79.5924 173.609 76.4549C173.595 76.4362 173.579 76.4306 173.558 76.4449L173.556 76.4446C173.536 76.4561 173.532 76.4719 173.542 76.495C175.381 79.9073 176.313 83.9462 176.695 87.7881C176.7 87.8345 176.676 87.8618 176.63 87.8691L176.566 87.8777C176.536 87.8832 176.518 87.8703 176.511 87.8403C175.752 83.9056 174.235 80.1334 171.592 77.3016C171.114 76.7877 171.035 76.8429 171.36 77.4669C172.529 79.7277 173.602 82.971 173.542 85.7361C173.539 85.8183 173.472 85.8788 173.391 85.8736C173.315 85.8691 173.264 85.8281 173.237 85.7497C172.85 84.6318 172.406 83.5361 171.91 82.4642C171.471 81.5117 170.758 79.7787 170.041 78.8214C169.645 78.2903 168.954 77.6237 167.968 76.8197C167.944 76.8015 167.924 76.8024 167.904 76.8263L167.903 76.8283C167.883 76.8517 167.887 76.8721 167.911 76.889C170.076 78.5357 170.687 81.3921 170.478 83.9228C170.45 84.2403 170.381 84.2493 170.267 83.9499C169.439 81.7707 168.6 79.9129 167.034 78.1551C166.348 77.3832 165.425 76.7592 164.553 76.2258C163.712 75.7104 163.655 75.7851 164.38 76.4539C166.117 78.0523 166.496 80.2023 166.646 82.6036C166.654 82.708 166.511 82.7479 166.463 82.6546C165.925 81.5967 165.42 80.3626 164.808 79.4545C164.191 78.5445 163.474 77.7121 162.659 76.9633C162.644 76.9486 162.628 76.9493 162.613 76.9635L162.611 76.9632C162.596 76.9775 162.594 76.9936 162.608 77.0103C163.456 78.0436 164.047 79.025 164.716 80.0801C165.39 81.1486 165.512 82.2183 165.949 83.346C165.996 83.4637 165.954 83.5152 165.828 83.5031C165.719 83.4909 165.634 83.3718 165.575 83.1469C165.25 81.9104 164.745 80.7557 164.068 79.6815C164.064 79.6768 164.055 79.6722 164.05 79.6746C164.042 79.6774 164.039 79.6842 164.04 79.6916C164.286 80.5885 164.422 81.5127 164.447 82.4713C164.453 82.7345 164.369 82.9694 164.333 83.2516C164.322 83.3346 164.354 83.3953 164.428 83.4305C176.417 89.2668 186.713 101.917 185.902 115.832C185.744 118.527 185.179 121.365 184.209 124.347C184.196 124.386 184.172 124.397 184.134 124.382L184.055 124.348C184.017 124.332 184 124.303 184.007 124.258C185.012 118.495 185.033 112.522 183.076 106.992C183.065 106.964 183.048 106.956 183.022 106.965L183.02 106.964C182.992 106.971 182.985 106.99 182.992 107.018C184.635 112.391 184.42 117.896 182.219 122.962C182.064 123.32 181.98 123.507 181.965 123.526C181.478 124.175 181.322 124.107 181.498 123.329C182.013 121.06 182.32 118.761 182.424 116.433C182.435 116.158 182.373 116.141 182.237 116.38C179.957 120.405 177.154 123.901 173.826 126.869C173.661 127.015 173.497 127.114 173.329 127.168C173.195 127.212 173.172 127.177 173.259 127.063C173.957 126.176 174.652 125.288 175.341 124.402C177.526 121.581 179.194 118.478 180.347 115.094C180.643 114.224 180.936 113.354 181.227 112.487C181.231 112.475 181.226 112.471 181.217 112.467L181.158 112.444C181.12 112.427 181.074 112.447 181.059 112.485C179.503 116.051 177.898 118.884 174.741 121.255C173.984 121.823 173.881 121.723 174.433 120.956C175.841 118.993 177.197 116.741 178.498 114.202C178.861 113.489 179.286 112.367 179.77 110.834C179.78 110.804 179.763 110.77 179.732 110.758L179.67 110.737C179.65 110.731 179.636 110.736 179.629 110.754C178.852 112.865 177.163 114.779 175.529 116.228C175.309 116.423 175.239 116.378 175.316 116.094C175.332 116.034 175.378 115.931 175.451 115.785C177.046 112.631 178.38 109.878 178.687 106.305C178.707 106.068 178.681 106.064 178.608 106.29C177.651 109.282 176.066 111.89 173.858 114.118C173.581 114.394 173.486 114.345 173.571 113.963C174.337 110.463 176.133 107.185 176.369 103.852C176.411 103.255 176.333 103.241 176.138 103.804C175.612 105.321 174.934 106.772 174.107 108.156C173.977 108.374 173.918 108.355 173.926 108.104C174.009 105.549 174.343 103.122 174.085 100.539C174.074 100.431 174.058 100.371 174.039 100.356C173.954 100.3 173.896 100.331 173.87 100.45L173.134 103.743C173.115 103.822 173.026 103.863 172.955 103.823C172.873 103.779 172.829 103.681 172.818 103.532C172.667 101.665 172.384 99.8616 171.964 98.1253C171.907 97.8928 171.856 97.8949 171.812 98.1309C171.132 101.809 169.757 105.097 167.308 108.002C167.184 108.149 167.052 108.237 166.914 108.26C166.83 108.276 166.763 108.192 166.797 108.114C167.778 105.801 168.5 104.013 168.96 102.755C170.037 99.8037 170.308 96.8161 169.768 93.792C169.733 93.5893 169.711 93.5912 169.703 93.7972C169.533 98.0959 167.786 102.327 165.9 106.172C165.869 106.238 165.824 106.245 165.772 106.194L165.728 106.151C165.713 106.139 165.711 106.125 165.718 106.109C166.747 103.283 167.625 100.329 167.515 97.3639C167.472 96.2563 167.319 94.8722 167.05 93.2077C167.045 93.1657 167.019 93.1452 166.978 93.1481L166.92 93.1536C166.916 93.1531 166.914 93.1555 166.913 93.1599C166.919 94.0958 166.954 95.0849 166.778 95.9835C166.429 97.7925 165.793 99.5043 164.878 101.115C164.822 101.215 164.75 101.271 164.664 101.281C164.583 101.291 164.553 101.257 164.577 101.177C165.558 97.9125 165.507 94.6782 164.422 91.4765C164.259 90.9941 164.202 91.0065 164.255 91.5124C164.553 94.3207 164.113 97.0105 162.944 99.5823C162.922 99.6293 162.885 99.6474 162.836 99.6378C162.815 99.6313 162.794 99.6241 162.774 99.6137C162.745 99.5946 162.731 99.5659 162.735 99.5302C162.802 98.9111 162.866 98.2934 162.926 97.6753C163.188 95.0351 162.745 92.5243 161.593 90.1465C161.293 89.525 160.952 89.0221 160.574 88.6395C160.22 88.279 160.185 88.3078 160.469 88.7244C161.546 90.3019 161.748 93.437 161.476 95.3302C161.465 95.4125 161.421 95.4342 161.348 95.3971C161.281 95.3621 161.242 95.3106 161.236 95.2428C161.004 92.9421 160.158 89.7672 157.946 88.5856C157.875 88.5487 157.793 88.6082 157.808 88.6867C158 89.7096 158.101 90.7522 158.109 91.8154C158.11 92.078 158.107 92.2187 158.102 92.2376C157.904 92.815 157.742 92.8044 157.619 92.206C157.31 90.7442 157.092 89.4294 156.473 87.8163C156.452 87.7627 156.392 87.7316 156.334 87.7492L156.274 87.7689C156.246 87.7771 156.236 87.7941 156.243 87.8218C156.769 89.7036 156.927 91.5746 156.499 93.3186C156.465 93.4549 156.391 93.4847 156.273 93.4106L156.202 93.3666C156.18 93.3539 156.17 93.3278 156.172 93.3043C156.272 92.361 156.214 91.4279 155.995 90.5074C155.956 90.3405 155.729 90.3198 155.66 90.474C155.44 90.9718 155.16 91.3678 154.821 91.6625C154.368 92.0589 154.24 91.9708 154.438 91.4028C154.791 90.3975 154.547 89.2613 154.267 88.2653C154.129 87.7762 154.025 87.7811 153.954 88.287L153.786 89.4656C153.714 89.9766 153.61 89.9811 153.473 89.4841C153.216 88.5432 153.033 87.5547 152.245 86.7743C152.167 86.7002 152.133 86.7159 152.142 86.8232C152.17 87.1982 152.155 87.5736 152.097 87.9516C152.021 88.4181 151.881 88.4395 151.67 88.0145C150.933 86.53 149.299 85.0826 147.695 84.5503C147.619 84.5241 147.554 84.6098 147.598 84.6775C148.006 85.2911 148.627 85.8505 148.991 86.3569C157.778 98.4857 161.461 113.513 156.456 127.984C154.223 134.447 150.171 138.854 144.732 142.74C144.7 142.764 144.658 142.76 144.63 142.734L144.567 142.676C144.514 142.627 144.516 142.579 144.571 142.532C148.604 139.007 152.116 134.464 153.802 129.343C153.811 129.315 153.801 129.297 153.777 129.288L153.775 129.288C153.747 129.279 153.728 129.288 153.719 129.313C151.498 135.258 147.085 139.758 141.654 142.881C141.577 142.924 141.506 142.935 141.437 142.912C141.341 142.881 141.332 142.834 141.409 142.769C143.959 140.579 146.701 137.878 148.354 134.932C148.477 134.718 148.446 134.694 148.266 134.866C147.942 135.174 147.592 135.492 147.16 135.689C144.898 136.734 142.55 137.625 140.117 138.361C140.034 138.387 139.973 138.363 139.93 138.287L139.895 138.226C139.873 138.186 139.881 138.159 139.92 138.141C141.344 137.477 142.709 136.733 144.022 135.91C144.604 135.546 145.519 134.87 146.766 133.888C148.357 132.63 149.926 131.793 151.314 130.063C151.335 130.038 151.334 130.014 151.308 129.993L151.307 129.99C151.283 129.969 151.259 129.971 151.234 129.993C148.269 133.003 144.386 134.87 140.484 136.182C140.053 136.327 139.993 136.234 140.306 135.905C140.314 135.896 140.4 135.852 140.564 135.771C144.241 133.973 147.427 131.582 150.129 128.598C150.417 128.282 150.374 128.23 150.006 128.445C149.575 128.695 149.1 129.11 148.656 129.385C146.372 130.81 144.09 131.795 141.716 132.87C141.424 133 141.153 133.052 140.901 133.025C140.757 133.008 140.739 132.952 140.849 132.856C142.381 131.54 143.968 130.478 145.646 129.361C147.778 127.941 149.351 126.201 150.846 124.156C150.977 123.979 150.952 123.956 150.776 124.085C149.201 125.242 147.806 126.426 145.839 127.261C144.204 127.954 142.552 128.615 140.89 129.239C140.761 129.289 140.646 129.305 140.551 129.29C140.459 129.276 140.432 129.157 140.508 129.101C142.395 127.756 144.776 126.449 146.28 125.298C147.658 124.246 149.498 122.656 150.304 121.149C150.518 120.751 150.461 120.709 150.133 121.016C148.461 122.597 146.658 124.008 144.722 125.249C144.583 125.338 144.536 125.304 144.581 125.145C144.62 125.009 144.72 124.875 144.877 124.746C147.305 122.751 149.14 120.355 150.381 117.559C150.541 117.201 150.484 117.161 150.208 117.441C148.247 119.428 145.989 120.997 143.437 122.145C143.359 122.179 143.265 122.152 143.222 122.078L143.191 122.028C143.176 122.001 143.184 121.967 143.21 121.949C146.924 119.584 149.875 116.479 152.063 112.634C152.067 112.628 152.062 112.616 152.046 112.607C152.024 112.592 152.004 112.596 151.989 112.616C149.11 116.17 144.936 118.586 140.548 119.745C139.876 119.923 139.199 120.039 138.514 120.094C138.43 120.1 138.371 120.01 138.413 119.937C138.476 119.829 138.568 119.749 138.693 119.699C140.751 118.84 143.156 117.925 144.849 116.88C147.34 115.345 149.287 113.245 150.69 110.584C150.704 110.557 150.695 110.523 150.668 110.51L150.666 110.506C150.632 110.49 150.608 110.495 150.589 110.525C148.393 113.941 144.51 116.326 140.839 117.959C140.808 117.973 140.782 117.967 140.766 117.938L140.715 117.86C140.69 117.822 140.696 117.792 140.736 117.77C144.2 115.654 147.151 113.621 148.697 109.68C148.856 109.271 148.796 109.236 148.516 109.575C146.484 112.029 143.903 113.62 140.773 114.344C140.741 114.352 140.719 114.339 140.712 114.307L140.691 114.192C140.684 114.16 140.698 114.135 140.728 114.123C143.485 113.094 146.486 111.483 148.296 109.127C148.703 108.598 148.647 108.542 148.123 108.956C146.451 110.279 144.501 111.15 142.505 111.865C142.456 111.882 142.402 111.861 142.377 111.816L142.341 111.756C142.324 111.724 142.333 111.702 142.366 111.687C143.871 111.023 144.825 110.578 145.229 110.351C147.718 108.944 149.603 106.954 150.881 104.385C150.895 104.354 150.887 104.328 150.858 104.312L150.856 104.312C150.827 104.295 150.803 104.3 150.784 104.329C149.283 106.808 147.457 108.502 144.808 109.678C144.033 110.022 143.273 110.397 142.529 110.803C142.5 110.818 142.48 110.813 142.462 110.787C142.445 110.759 142.45 110.737 142.476 110.719C143.271 110.144 144.095 109.609 144.946 109.113C145.165 108.986 145.333 108.87 145.442 108.769C145.621 108.602 145.608 108.583 145.398 108.711C144.413 109.312 143.368 109.844 142.262 110.313C141.914 110.458 141.654 110.492 141.481 110.415C141.303 110.338 141.303 110.255 141.478 110.17C142.214 109.815 142.975 109.399 143.766 108.923C146.533 107.252 148.349 104.322 149.413 101.348C149.419 101.324 149.411 101.308 149.391 101.3L149.389 101.3C149.368 101.292 149.35 101.304 149.336 101.336C148.294 103.785 146.743 105.85 144.677 107.528C144.614 107.581 144.517 107.566 144.468 107.497L144.418 107.43C144.4 107.406 144.404 107.37 144.425 107.349C144.823 106.959 145.149 106.514 145.402 106.015C145.599 105.625 145.549 105.593 145.246 105.919C144.692 106.518 143.889 106.964 143.23 107.477C143.203 107.498 143.16 107.492 143.14 107.463L143.074 107.364C143.053 107.332 143.06 107.289 143.089 107.267C144.011 106.543 144.591 106.013 144.829 105.681C146.11 103.881 147.099 101.939 147.793 99.849C147.815 99.7798 147.781 99.7075 147.716 99.6802L147.66 99.6569C147.643 99.6523 147.633 99.6556 147.626 99.669C147.055 100.818 146.415 101.929 145.706 102.999C145.655 103.076 145.628 103.066 145.622 102.977C145.617 102.86 145.631 102.768 145.665 102.699C146.015 102.025 146.334 101.38 146.62 100.76C146.711 100.561 146.683 100.54 146.53 100.701C145.747 101.541 145.03 102.299 143.983 102.848C143.914 102.883 143.836 102.83 143.846 102.754C143.854 102.688 143.888 102.619 143.948 102.544C145.614 100.533 146.189 98.0449 146.878 95.216C146.892 95.1532 146.867 95.1257 146.804 95.1303L146.725 95.1346C146.71 95.1343 146.699 95.1399 146.695 95.1557C146.018 96.977 143.949 98.83 142.058 99.3299C141.943 99.3604 141.857 99.2246 141.934 99.1333C143.314 97.4912 145.049 95.4665 145.466 93.3333C145.541 92.9437 145.466 92.9104 145.24 93.2386C144.461 94.3732 143.451 95.2404 142.213 95.8425C142.068 95.9127 141.983 95.8689 141.96 95.7093L141.947 95.6351C141.94 95.5856 141.962 95.5363 142.003 95.5087C143.114 94.7341 144.111 93.9773 144.269 92.6164C144.549 90.1887 143.563 88.07 142.176 86.1169C142.134 86.0565 142.044 86.0694 142.019 86.1377C141.444 87.7816 140.888 89.4555 140.256 91.0692C136.491 100.704 133.185 109.63 130.588 119.576C127.901 129.867 125.931 140.386 124.678 151.13C124.088 156.193 123.778 161.16 123.914 166.182C124.029 170.457 124.321 174.722 124.785 178.974C125.454 185.096 126.275 191.219 126.704 197.365C126.71 197.474 126.767 197.548 126.872 197.583L130.604 198.847C130.855 198.931 131.121 198.963 131.386 198.939C132.283 198.859 133.244 198.799 134.271 198.758C137.872 198.614 141.277 199.622 143.692 202.251C143.745 202.31 143.816 202.352 143.891 202.376C159.733 207.035 175.596 211.55 191.482 215.924C191.503 215.93 191.511 215.941 191.505 215.962L191.493 216.025C191.482 216.083 191.444 216.108 191.384 216.099C142.38 208.515 93.3791 200.913 44.3775 193.289C43.9005 193.215 43.5096 193.145 43.2096 193.079C43.1099 193.056 43.1113 193.047 43.2139 193.051L88.4083 194.373C88.5208 194.376 88.6266 194.316 88.6803 194.216C90.5698 190.775 93.8099 189.281 97.6105 189.916C100.288 190.364 102.839 191.764 105.187 193.082C106.26 193.684 107.307 194.113 108.33 194.37C109.657 194.703 111.438 194.601 112.966 194.718C113.002 194.721 113.033 194.694 113.033 194.658C113.342 175.166 115.659 155.907 119.983 136.88C121.244 131.327 122.831 125.572 124.737 119.614C127.182 111.982 130.294 104.444 133.549 97.1251C135.169 93.4816 136.358 90.5116 137.466 87.0529C137.657 86.4499 137.814 85.8444 137.932 85.2353C137.947 85.1583 137.92 85.1355 137.849 85.1697C135.592 86.2458 133.452 87.5275 131.428 89.0142C129.465 90.4584 128.947 92.0639 130.359 94.1599C130.537 94.4249 130.49 94.4758 130.216 94.3102C129.074 93.6213 128.379 92.629 128.128 91.3278C128.089 91.1279 128.038 91.1219 127.966 91.3153C127.285 93.2124 127.569 94.922 128.812 96.4443C128.988 96.6614 128.944 96.7268 128.678 96.642C127.887 96.3948 127.013 94.9084 126.676 94.1946C126.405 93.6187 126.285 93.0067 126.317 92.3551C126.319 92.3245 126.303 92.3054 126.272 92.3027L126.211 92.2952C126.18 92.2904 126.161 92.3052 126.154 92.3372C125.589 94.8777 125.79 97.3518 126.753 99.7584C126.773 99.8092 126.72 99.8586 126.668 99.8361C126.603 99.8094 126.54 99.7606 126.481 99.6914C124.962 97.9009 124.428 95.1519 125.496 92.9764C125.719 92.5174 125.678 92.4916 125.372 92.8994C123.731 95.0616 124.972 98.7847 125.482 101.047C125.517 101.197 125.464 101.241 125.322 101.183C125.315 101.18 125.292 101.16 125.248 101.116C125.225 101.096 125.207 101.069 125.195 101.04C124.264 99.0241 123.984 97.076 123.628 94.9135C123.609 94.7895 123.452 94.7459 123.37 94.8416C122.585 95.747 122.204 96.7335 122.229 97.7993C122.293 100.415 123.56 102.836 124.609 104.9C124.627 104.937 124.614 104.978 124.58 104.999C124.558 105.01 124.536 105.013 124.515 105.013C124.498 105.013 124.482 105.003 124.466 104.988C122.309 102.916 120.374 99.6662 119.963 96.4174C119.961 96.4005 119.951 96.3865 119.936 96.38L119.868 96.3518C119.802 96.3231 119.77 96.3439 119.773 96.4166C119.976 101.384 121.954 105.275 125.141 108.981C125.182 109.028 125.168 109.1 125.115 109.133L125.042 109.174C125.012 109.191 124.984 109.189 124.958 109.166C121.258 105.757 117.286 102.212 117.713 96.9562C117.716 96.9177 117.698 96.8982 117.659 96.8975L117.657 96.8972C117.619 96.8933 117.599 96.912 117.596 96.9498C117.483 98.3966 117.605 99.7203 117.963 100.928C119.054 104.602 121.024 107.814 123.876 110.564C123.9 110.584 123.898 110.606 123.878 110.629L123.829 110.681C123.786 110.728 123.713 110.728 123.667 110.685C121.864 109.019 120.572 107.595 119.793 106.411C118.709 104.76 118.247 103.4 117.728 101.719C117.721 101.698 117.702 101.685 117.68 101.687C117.658 101.691 117.643 101.708 117.642 101.73C117.506 105.773 120.012 109.484 122.05 112.774C122.131 112.905 122.173 112.985 122.176 113.017C122.202 113.235 122.128 113.279 121.951 113.146C118.809 110.762 116.761 107.122 115.867 103.358C115.801 103.087 115.702 103.071 115.566 103.316C114.745 104.81 115.741 109.316 116.163 110.984C116.175 111.032 116.159 111.068 116.115 111.09C116.094 111.102 116.071 111.107 116.048 111.106C116.031 111.106 116.017 111.099 116.008 111.085C115.76 110.742 115.58 110.428 115.473 110.142C114.755 108.254 114.193 106.356 113.788 104.452C113.734 104.194 113.638 104.179 113.502 104.406C112.958 105.309 112.303 106.29 112.24 107.347C112.141 109.044 112.857 111.081 113.398 112.667C113.529 113.05 113.437 113.118 113.118 112.864C113.094 112.846 113.018 112.743 112.887 112.554C111.636 110.769 110.869 108.842 110.215 106.839C109.915 105.92 109.798 105.943 109.862 106.909C110.107 110.518 111.909 114.66 113.421 118.094C113.526 118.329 113.585 118.483 113.596 118.552C113.653 118.924 113.557 118.971 113.305 118.689C111.32 116.475 109.651 114.022 108.295 111.331C107.699 110.147 107.286 108.794 106.863 107.505C106.854 107.482 106.838 107.472 106.813 107.478C106.789 107.484 106.779 107.499 106.783 107.523C107.769 112.598 109.893 117.298 112.228 121.869C112.244 121.9 112.234 121.937 112.205 121.957L112.149 121.991C112.09 122.028 112.013 122.011 111.972 121.954C109.609 118.732 107.288 115.411 105.836 111.659C105.827 111.641 105.814 111.634 105.794 111.638L105.794 111.64C105.774 111.647 105.767 111.66 105.771 111.68C105.844 111.982 105.933 112.28 106.038 112.575C107.603 116.957 109.41 121.26 111.457 125.478C111.47 125.505 111.468 125.533 111.45 125.554L111.396 125.625C111.329 125.713 111.265 125.713 111.199 125.623C108.675 122.15 106.578 118.441 104.907 114.494C104.838 114.332 104.808 114.339 104.812 114.515C104.902 118.263 105.255 121.979 105.503 125.643C105.534 126.092 105.428 126.129 105.183 125.75C105.059 125.557 104.973 125.058 104.902 124.835C104.062 122.198 103.384 119.545 102.866 116.875C102.862 116.855 102.845 116.843 102.825 116.845C102.805 116.849 102.791 116.866 102.79 116.885C102.885 121.179 103.757 125.007 104.819 129.84C104.838 129.92 104.794 130.002 104.718 130.031L104.648 130.059C104.61 130.074 104.567 130.056 104.553 130.018C102.984 125.524 101.391 120.481 101.149 115.287C101.147 115.255 101.131 115.238 101.099 115.238L101.097 115.24C101.066 115.24 101.048 115.257 101.046 115.29C100.951 121.88 102.132 127.481 102.872 133.606C102.878 133.663 102.854 133.695 102.799 133.706L102.737 133.715C102.725 133.72 102.716 133.714 102.711 133.699C101.922 130.699 101.171 127.691 100.454 124.668C98.6217 116.934 100.272 109.167 104.381 102.452C106.636 98.7643 109.669 95.3324 113.478 92.155C117.946 88.4317 123.13 85.1669 128.548 83.0415C128.812 82.9361 128.805 82.8556 128.529 82.795C127.138 82.5014 125.718 82.6342 124.268 83.1929C122.958 83.6992 122.569 84.2409 121.987 85.22C121.823 85.4951 121.718 85.4768 121.671 85.1586C121.608 84.7453 121.608 84.3396 121.67 83.9404C121.737 83.4955 121.246 83.1821 120.872 83.4265C120.112 83.922 119.554 84.5758 119.197 85.3843C119.089 85.63 118.97 85.6374 118.836 85.4057L118.75 85.2594C118.601 84.9979 118.569 84.7244 118.654 84.4345C118.888 83.6562 119.327 83.0263 119.976 82.5479C120.074 82.4743 120.065 82.4552 119.947 82.4877C118.843 82.7977 117.181 84.8336 117.183 85.9972C117.184 86.2864 117.109 86.3058 116.962 86.0601C116.251 84.8848 117.016 83.3372 117.717 82.3177C117.953 81.9745 117.909 81.9314 117.583 82.1917C116.505 83.0445 115.825 84.1478 115.541 85.5004C115.529 85.5583 115.492 85.5796 115.434 85.5634C115.411 85.5579 115.392 85.5443 115.373 85.5269C115.358 85.5133 115.349 85.4922 115.346 85.4651C115.234 84.624 115.372 83.9042 115.76 83.3088C115.965 82.9918 115.917 82.948 115.615 83.173C114.449 84.0379 113.687 85.2306 113.324 86.7505C113.303 86.8372 113.269 86.8742 113.22 86.8626C113.109 86.8361 113.017 86.7445 112.983 86.6215C112.626 85.3904 112.585 84.1455 112.864 82.8881C112.888 82.7793 112.86 82.7628 112.78 82.8392C111.849 83.7271 111.568 84.952 111.093 85.9251C110.887 86.3493 110.46 86.6391 110.239 87.1366C110.231 87.1572 110.215 87.164 110.195 87.1557C110.188 87.1526 110.183 87.1519 110.179 87.1492C110.17 87.1445 110.168 87.1402 110.175 87.1288C110.591 86.3521 111.074 85.5009 111.275 84.6837C111.41 84.1421 111.337 84.1111 111.058 84.5924C109.885 86.6266 108.955 88.5913 108.766 90.9587C108.723 91.4889 108.643 91.4927 108.528 90.9777C107.93 88.3022 108.459 86.0147 109.471 83.4764C109.474 83.4697 109.471 83.4619 109.464 83.4557C109.458 83.4526 109.448 83.4551 109.444 83.4618C107.597 86.4939 106.968 90.4088 107.669 93.7389C107.79 94.3128 107.694 94.3536 107.38 93.8549C107.322 93.7624 107.245 93.5893 107.152 93.3346C106.494 91.5449 106.051 89.7041 105.817 87.812C105.814 87.7846 105.797 87.7727 105.77 87.7737C105.743 87.7768 105.729 87.7912 105.727 87.8179C105.685 88.9145 105.698 90.0096 105.768 91.1075C105.781 91.29 105.756 91.4617 105.7 91.6283C105.67 91.7127 105.648 91.7114 105.635 91.6236C105.16 88.6671 105.026 86.2405 106.223 83.422C106.31 83.2166 106.279 83.2005 106.135 83.3701C105.769 83.8018 105.591 84.4257 105.404 84.9334C104.814 86.5265 104.61 88.132 104.798 89.7484C104.986 91.3714 105.334 93.1199 105.837 94.994C105.848 95.0316 105.835 95.0554 105.797 95.0673L105.739 95.0821C105.679 95.1014 105.615 95.0648 105.595 95.0049C104.875 92.7 104.266 90.3409 104.081 88.214C104.075 88.143 103.975 88.1348 103.957 88.2022C103.604 89.5172 103.424 90.7259 103.421 91.8236C103.416 93.0034 103.649 94.5064 103.658 95.8322C103.665 96.7062 103.556 97.5957 103.784 98.433C103.887 98.8122 103.997 99.1853 104.12 99.5556C104.149 99.6394 104.134 99.7133 104.08 99.7824C104.03 99.842 103.988 99.8374 103.95 99.7715C103.565 99.0897 103.313 98.4467 103.192 97.849C102.881 96.2981 102.538 94.7544 102.163 93.2182C101.91 92.183 101.672 90.9229 101.705 90.0548C101.723 89.6274 101.708 89.31 101.657 89.1083C101.569 88.7498 101.496 88.7507 101.443 89.111C100.777 93.4578 102.376 97.4771 103.857 101.503C103.885 101.574 103.805 101.641 103.739 101.6C103.73 101.593 103.706 101.561 103.667 101.5C101.179 97.6476 100.039 93.5806 99.415 89.0807C99.3822 88.8446 99.3136 88.834 99.211 89.0463C98.6953 90.1256 98.7506 91.8957 98.7785 93.083C98.8137 94.548 98.9185 95.9968 99.094 97.4259C99.1007 97.4918 99.0729 97.5311 99.0086 97.5425L98.9489 97.555C98.8646 97.571 98.7815 97.519 98.7579 97.4367C98.4213 96.2089 98.1568 94.9531 97.9689 93.6668C97.8129 92.6084 97.6735 91.566 97.5518 90.5367C97.5195 90.2632 97.4401 90.2476 97.3172 90.4963C95.8624 93.4147 95.5956 96.6578 95.9115 99.8992C95.9769 100.563 95.8969 100.582 95.6719 99.954C94.9343 97.9012 94.5955 95.6928 94.654 93.3287C94.6548 93.2764 94.631 93.2582 94.5826 93.2765C94.5523 93.2871 94.5353 93.303 94.5289 93.3291C93.7725 96.8604 94.7664 100.04 95.5622 103.428C95.6238 103.697 95.5397 103.758 95.3054 103.609C95.2618 103.581 95.1989 103.489 95.1149 103.334C93.7356 100.793 92.2727 97.4603 92.1578 94.6008C92.1288 93.887 92.043 93.881 91.9011 94.5808C91.6224 95.9609 91.4528 97.4437 91.3917 99.0329C91.3387 100.414 92.0085 101.881 92.4488 103.231C92.4738 103.305 92.4814 103.349 92.4721 103.362C92.4033 103.465 92.328 103.47 92.243 103.38C90.2175 101.148 89.5397 98.9247 89.2293 95.9917C89.2253 95.9548 89.2059 95.9393 89.1698 95.941L89.1674 95.9406C89.1309 95.9422 89.1134 95.9613 89.115 95.9978C89.1216 101.002 90.9416 105.462 92.7347 110.034C92.7485 110.069 92.723 110.109 92.6849 110.107C92.6613 110.106 92.6373 110.105 92.6157 110.104C92.5701 110.104 92.5317 110.086 92.5018 110.048C91.2674 108.39 90.3672 107.03 89.8034 105.964C88.4187 103.352 87.6911 100.425 87.6241 97.1777C87.6234 97.1509 87.6107 97.1397 87.5843 97.1376L87.582 97.1373C87.556 97.1361 87.544 97.1507 87.5423 97.1775C87.4913 98.4989 87.5813 99.8136 87.8116 101.121C88.6425 105.834 89.8255 110.23 92.1717 114.228C92.2171 114.307 92.194 114.347 92.1025 114.349C92.047 114.351 91.9876 114.315 91.9286 114.246C89.4623 111.395 87.7334 108.177 86.7394 104.597C86.6978 104.446 86.6853 104.449 86.7023 104.603C87.2194 109.386 88.4079 113.994 90.2688 118.424C90.2734 118.439 90.2692 118.451 90.2567 118.456L90.1992 118.483C90.1398 118.512 90.0668 118.487 90.0346 118.429C87.6947 114.236 86.094 109.897 85.2329 105.409C84.9552 103.958 84.9141 102.374 85.11 100.659C85.1128 100.641 85.105 100.631 85.0853 100.633C85.0653 100.637 85.0456 100.64 85.0263 100.642C85.0142 100.642 85.0057 100.65 85.0015 100.662C84.3578 102.564 83.9373 104.519 83.7383 106.52C83.6489 107.407 83.5593 108.295 83.4674 109.182C83.46 109.246 83.3957 109.289 83.3341 109.267C83.2725 109.246 83.2318 109.199 83.2171 109.124C82.3242 104.639 83.0863 99.1749 85.1868 95.1035C85.1873 95.1003 85.1873 95.1003 85.1853 95.098L85.1315 95.0699C85.0958 95.0531 85.0681 95.0601 85.0508 95.0965C82.9997 98.9426 81.7849 103.043 81.4035 107.401C81.3578 107.927 81.3276 108.247 81.3129 108.358C81.2118 109.196 81.1205 109.196 81.0368 108.354C79.9333 97.0786 86.5381 87.7448 95.2701 81.3702C102.21 76.303 109.998 74.0782 118.634 74.6926C122.423 74.9615 126.142 75.6294 129.786 76.6967C131.243 77.1215 132.623 77.6357 133.932 78.2349C134.39 78.4453 134.437 78.376 134.072 78.0283C131.827 75.8795 128.934 73.7323 125.751 73.1981C125.542 73.1637 125.527 73.0912 125.706 72.9774L126.43 72.5125C126.51 72.4601 126.483 72.3382 126.389 72.3236C125.268 72.1407 124.203 72.2906 123.193 72.7709C122.736 72.986 122.673 72.9039 123.004 72.5197C123.417 72.0406 123.968 71.6648 124.66 71.3921C125.19 71.1831 125.175 71.1279 124.615 71.2311C123.937 71.3543 121.717 71.9407 121.229 72.4541C121.034 72.6593 120.981 72.6273 121.071 72.3606C121.391 71.4119 122.045 70.9943 123.065 70.5245C123.15 70.4854 123.147 70.4579 123.054 70.4414C122.086 70.2789 121.241 70.5137 120.516 71.1445C120.458 71.1932 120.368 71.1648 120.348 71.0916L120.331 71.034C120.31 70.9639 120.327 70.8871 120.374 70.8295C120.769 70.3443 121.262 70.0069 121.852 69.8153C121.943 69.7863 121.94 69.6527 121.847 69.6291C120.67 69.3104 119.484 69.2493 118.289 69.4485C118.2 69.4633 118.132 69.3754 118.164 69.2948C118.18 69.2537 118.219 69.2021 118.279 69.1413C118.316 69.1066 118.308 69.093 118.259 69.0999C118.237 69.1037 118.214 69.1126 118.196 69.1211C118.182 69.1283 118.171 69.141 118.161 69.1569C118.034 69.3852 117.858 69.4652 117.634 69.4047C116.944 69.2164 116.426 69.4724 116.077 70.1711C116.01 70.3091 115.906 70.3438 115.77 70.2771C115.703 70.245 115.677 70.1926 115.695 70.1212C115.932 69.1213 116.447 68.3164 117.237 67.7009C117.5 67.4941 117.833 67.457 118.15 67.3831C118.179 67.3764 118.176 67.3344 118.146 67.3297C117.391 67.2471 116.73 67.2333 116.016 67.5739C115.312 67.9096 114.482 68.5797 113.721 68.6901C113.623 68.7059 113.592 68.6681 113.633 68.5753L114.27 67.1401C114.284 67.1084 114.275 67.0866 114.247 67.0696L114.19 67.0338C114.154 67.015 114.124 67.0216 114.102 67.0545C113.555 67.8524 113.415 68.7148 112.821 69.457C112.651 69.667 112.557 69.6371 112.539 69.3697C112.492 68.769 112.598 68.4274 112.76 67.9259C113.031 67.0906 112.915 67.0335 112.414 67.7549C112.108 68.1926 111.851 68.7495 111.643 69.421C111.612 69.5153 111.562 69.5293 111.493 69.4578C111.127 69.0894 111.407 68.2284 111.492 67.7699C111.512 67.6749 111.478 67.6459 111.388 67.6867C111.167 67.7897 111 67.9489 110.886 68.1642C110.842 68.2421 110.777 68.2877 110.687 68.2947C110.622 68.2987 110.571 68.3303 110.532 68.3839C110.485 68.4509 110.421 68.4772 110.339 68.4593C109.904 68.3653 110.043 67.8582 110.09 67.5869C110.122 67.3927 110.059 67.3507 109.895 67.4628C109.3 67.871 108.727 67.8133 108.171 67.2916C108.09 67.2191 108.064 67.1283 108.092 67.0254C108.444 65.6805 110.022 64.8431 111.301 64.6904C111.316 64.6875 111.316 64.6855 111.3 64.683C110.617 64.6172 109.921 64.394 109.281 64.4569C107.445 64.6338 105.909 65.8212 104.48 66.8026C103.993 67.1379 103.881 67.0387 104.143 66.5097C104.22 66.3503 104.466 66.1005 104.879 65.7628C105.141 65.5486 105.105 65.4689 104.772 65.5206C104.341 65.5876 103.836 65.8222 103.255 66.2205C102.751 66.5659 102.7 66.5091 103.1 66.0498C103.375 65.7344 103.69 65.4582 104.043 65.227C104.204 65.1196 104.194 65.0962 104.009 65.1563C102.95 65.5003 102.096 66.1205 101.445 67.0199C101.393 67.0881 101.289 67.0792 101.25 67.0042C101.211 66.9308 101.216 66.8376 101.269 66.7273C101.671 65.8668 102.269 65.1759 103.064 64.6571C103.077 64.6467 103.076 64.6373 103.057 64.627C103.05 64.6239 103.043 64.6177 103.04 64.6099C103.033 64.5943 103.024 64.5881 103.013 64.5937C101.493 65.1973 100.257 66.2246 99.3056 67.6763C99.262 67.7418 99.2082 67.7479 99.1464 67.6968C99.0971 67.6581 99.0759 67.592 99.0904 67.5293C99.3978 66.2742 100.732 65.041 101.774 64.3686C102.36 63.9856 103.334 63.5829 104.691 63.1566C105.775 62.8177 106.863 62.4761 107.949 62.1368C108.131 62.0811 108.304 62.007 108.47 61.9118C108.501 61.8961 108.502 61.8784 108.47 61.8623C108.395 61.8188 108.38 61.7491 108.426 61.653C108.473 61.5498 108.548 61.4699 108.648 61.416C109.221 61.0887 109.841 60.8981 110.512 60.8419C111.328 60.7712 112.159 61.1826 112.95 61.4499C113.028 61.4764 113.112 61.4749 113.188 61.4485C113.349 61.3919 113.382 61.3773 113.562 61.4143C121.198 62.9948 128.392 66.4243 134.028 71.8865C134.264 72.1182 134.333 72.0749 134.23 71.7618C133.797 70.4322 132.61 68.6478 131.188 68.004C131.123 67.9742 131.096 67.8979 131.125 67.8355C131.15 67.7837 131.194 67.745 131.261 67.719C131.524 67.6207 131.581 67.2498 131.373 66.982C130.71 66.1217 129.891 65.9279 128.917 66.4045C128.824 66.45 128.724 66.3621 128.754 66.2635C128.995 65.4981 129.444 65.4445 130.117 65.1234C130.223 65.0698 130.224 65.0155 130.12 64.9579C128.818 64.2494 127.59 64.3256 126.439 65.1835C126.285 65.2987 126.236 65.2654 126.294 65.0816C126.753 63.5932 128.311 63.0095 129.829 63.2088C129.965 63.2268 129.975 63.1972 129.859 63.1243C129.43 62.8487 129.063 62.7172 128.758 62.7301C127.081 62.7972 125.449 62.8811 123.859 62.9783C123.478 63.0012 123.449 62.9079 123.767 62.7001C124.873 61.9774 127.322 62.1875 128.504 62.5678C128.538 62.5783 128.562 62.5674 128.574 62.5335L128.575 62.5311C128.587 62.4972 128.576 62.4737 128.542 62.4611C126.845 61.7866 125.243 60.4236 123.806 60.3546C122.061 60.2694 120.368 60.481 118.734 60.9874C118.355 61.1041 118.288 61.0071 118.532 60.694C118.547 60.6746 118.635 60.6189 118.796 60.5213C121.27 59.0433 124.22 58.3319 126.977 59.1347C127.84 59.3861 128.681 59.6846 129.505 60.0331C129.532 60.0446 129.562 60.0419 129.584 60.0235L129.655 59.9676C129.671 59.9536 129.671 59.9411 129.651 59.9307C129.02 59.5471 128.488 59.2893 128.049 59.1564C124.022 57.9213 119.625 57.779 115.604 59.1317C115.515 59.1614 115.419 59.1465 115.342 59.0964L115.283 59.0562C115.24 59.025 115.243 58.9613 115.29 58.9347C118.942 57.0054 122.243 55.7517 126.479 56.4367C126.507 56.4411 126.523 56.4291 126.529 56.4035L126.53 56.4015C126.534 56.3732 126.522 56.3568 126.497 56.3508C121.79 55.2751 117.707 55.9553 113.224 57.3861C113.166 57.4029 113.102 57.3797 113.069 57.3283L113.021 57.2534C112.991 57.2078 113.003 57.1786 113.054 57.1627L121.278 54.6095C121.407 54.5685 121.406 54.5426 121.27 54.5337C117.057 54.2177 113.263 55.1471 109.33 56.6386C109.276 56.6589 109.225 56.6655 109.171 56.6571C109.112 56.65 109.06 56.642 109.02 56.6338C108.95 56.6209 108.925 56.5356 108.978 56.4881C111.974 53.8537 117.082 52.3822 121.186 52.1736C121.206 52.1726 121.217 52.1619 121.218 52.1422L121.218 52.1403C121.219 52.1186 121.213 52.1085 121.206 52.1074C117.734 51.7111 114.381 52.1371 111.145 53.3834C110.513 53.6274 110.456 53.5315 110.975 53.097C112.805 51.5629 115.149 50.7462 117.621 50.0545C117.669 50.0402 117.704 50.0138 117.724 49.9766C117.768 49.8947 117.741 49.8542 117.647 49.8562C116.035 49.9233 114.295 49.9696 112.802 50.2146C110.964 50.5137 109.176 51.0153 107.441 51.7206C107.275 51.7879 107.141 51.7794 107.037 51.6891C106.968 51.6279 106.97 51.5198 107.039 51.4635C109.077 49.7786 112.265 48.6045 114.711 48.0483C115.299 47.9152 115.292 47.8399 114.688 47.8238C111.024 47.7219 107.25 48.034 103.364 48.7594C103.211 48.7864 103.079 48.7806 102.97 48.7419C102.883 48.7119 102.87 48.5934 102.948 48.5433C103.266 48.3377 103.578 48.1724 103.879 48.0456C107.026 46.7297 109.807 45.7166 113.482 45.6844C113.509 45.6833 113.529 45.6626 113.531 45.639C113.53 45.6119 113.511 45.5905 113.485 45.5884Z" fill="#0E3B26"/>
<ellipse cx="112.727" cy="206.096" rx="76.9899" ry="15.6061" transform="rotate(5.86742 112.727 206.096)" fill="#0E3B26"/>
<defs>
<linearGradient id="paint0_linear_659_5" x1="66.7773" y1="53.4668" x2="66.7773" y2="173.767" gradientUnits="userSpaceOnUse">
<stop stop-color="#F6C667"/>
<stop offset="1" stop-color="#E9A93A"/>
</linearGradient>
<linearGradient id="paint1_linear_659_5" x1="-6.67773" y1="126.984" x2="-6.67773" y2="260.651" gradientUnits="userSpaceOnUse">
<stop stop-color="#5FBF9F"/>
<stop offset="1" stop-color="#1F7A5C"/>
</linearGradient>
</defs>
</svg>
