<svg width="322" height="69" viewBox="0 0 322 69" fill="none" xmlns="http://www.w3.org/2000/svg">
<path d="M14.8278 14.72L14.9878 16.06L9.96781 27.24C9.96781 27.24 9.91448 27.3533 9.80781 27.58C9.71448 27.8067 9.61448 28.08 9.50781 28.4C9.40115 28.7067 9.32781 29 9.28781 29.28H9.08781L8.80781 28.02L14.8278 14.72ZM2.52781 27.54V29H0.307813V28.8C0.321146 28.8 0.374479 28.8 0.467813 28.8C0.574479 28.8 0.627813 28.8 0.627813 28.8C0.987813 28.8 1.30781 28.6933 1.58781 28.48C1.86781 28.2533 2.03448 27.94 2.08781 27.54H2.52781ZM3.10781 27.86C3.10781 27.8733 3.10781 27.8867 3.10781 27.9C3.10781 27.9133 3.10781 27.9333 3.10781 27.96C3.10781 28.1733 3.18115 28.3733 3.32781 28.56C3.48781 28.7333 3.67448 28.82 3.88781 28.82H4.18781V29H2.96781V27.86H3.10781ZM3.58781 14.72H3.78781L4.18781 15.9L3.00781 29H1.92781L3.58781 14.72ZM3.78781 14.72L9.54781 27.18L9.08781 29.28L3.40781 16.96L3.78781 14.72ZM15.0078 14.72L16.7278 29H15.1678L14.0678 16.88L14.8278 14.72H15.0078ZM16.1278 27.54H16.5478C16.6145 27.94 16.7878 28.2533 17.0678 28.48C17.3478 28.6933 17.6611 28.8 18.0078 28.8C18.0078 28.8 18.0611 28.8 18.1678 28.8C18.2745 28.8 18.3278 28.8 18.3278 28.8V29H16.1278V27.54ZM15.0678 27.86H15.2078V29H13.9878V28.82H14.2878C14.5145 28.82 14.7011 28.7333 14.8478 28.56C14.9945 28.3733 15.0678 28.1733 15.0678 27.96C15.0678 27.9333 15.0678 27.9133 15.0678 27.9C15.0678 27.8867 15.0678 27.8733 15.0678 27.86ZM25.8011 14.72L31.7211 28.88H30.0211L25.4011 16.62L25.8011 14.72ZM21.5011 27.54C21.4078 27.8067 21.3944 28.0333 21.4611 28.22C21.5278 28.4067 21.6344 28.5533 21.7811 28.66C21.9411 28.7533 22.1011 28.8 22.2611 28.8H22.4411V29H18.4211V28.8C18.4211 28.8 18.4544 28.8 18.5211 28.8C18.5744 28.8 18.6011 28.8 18.6011 28.8C18.9078 28.8 19.2211 28.7067 19.5411 28.52C19.8744 28.32 20.1478 27.9933 20.3611 27.54H21.5011ZM25.8011 14.72L25.9811 16.12L20.9611 28.94H19.7611L24.8811 16.78C24.8811 16.78 24.9144 16.7 24.9811 16.54C25.0611 16.3667 25.1478 16.16 25.2411 15.92C25.3478 15.68 25.4344 15.4467 25.5011 15.22C25.5811 14.9933 25.6211 14.8267 25.6211 14.72H25.8011ZM28.6211 23.54V24.14H22.3611V23.54H28.6211ZM29.5211 27.54H31.1611C31.3611 27.9933 31.6278 28.32 31.9611 28.52C32.2944 28.7067 32.6144 28.8 32.9211 28.8C32.9211 28.8 32.9478 28.8 33.0011 28.8C33.0544 28.8 33.0811 28.8 33.0811 28.8V29H28.5811V28.8H28.7611C29.0144 28.8 29.2411 28.6933 29.4411 28.48C29.6411 28.2533 29.6678 27.94 29.5211 27.54ZM36.6394 15H39.4594C40.0594 15 40.5994 15.0867 41.0794 15.26C41.5727 15.4333 41.986 15.6867 42.3194 16.02C42.6527 16.34 42.906 16.7333 43.0794 17.2C43.266 17.6533 43.3594 18.1733 43.3594 18.76C43.3594 19.4 43.206 20.0133 42.8994 20.6C42.606 21.1867 42.1994 21.6667 41.6794 22.04C41.1727 22.4 40.5994 22.58 39.9594 22.58C40.186 22.6733 40.4327 22.8667 40.6994 23.16C40.966 23.44 41.1994 23.7133 41.3994 23.98C41.3994 23.98 41.486 24.1133 41.6594 24.38C41.846 24.6333 42.0727 24.9467 42.3394 25.32C42.6194 25.6933 42.8994 26.06 43.1794 26.42C43.4594 26.78 43.6994 27.0667 43.8994 27.28C44.166 27.5733 44.4327 27.8333 44.6994 28.06C44.966 28.2867 45.2527 28.4667 45.5594 28.6C45.8794 28.7333 46.2327 28.8 46.6194 28.8V29H45.5194C44.906 29 44.3727 28.9067 43.9194 28.72C43.4794 28.5333 43.106 28.3067 42.7994 28.04C42.4927 27.76 42.2327 27.4933 42.0194 27.24C41.9794 27.1867 41.866 27.0333 41.6794 26.78C41.506 26.5267 41.2927 26.2267 41.0394 25.88C40.7994 25.52 40.5594 25.1667 40.3194 24.82C40.0794 24.4733 39.8727 24.18 39.6994 23.94C39.526 23.6867 39.426 23.54 39.3994 23.5C39.146 23.1667 38.866 22.86 38.5594 22.58C38.2527 22.3 37.9194 22.16 37.5594 22.16V21.96C37.5594 21.96 37.6594 21.9667 37.8594 21.98C38.0727 21.98 38.326 21.9733 38.6194 21.96C38.966 21.9467 39.346 21.8933 39.7594 21.8C40.1727 21.7067 40.5594 21.5133 40.9194 21.22C41.2794 20.9267 41.5527 20.48 41.7394 19.88C41.7794 19.7333 41.8127 19.5533 41.8394 19.34C41.866 19.1133 41.8727 18.8933 41.8594 18.68C41.846 17.7733 41.6127 17.0533 41.1594 16.52C40.7194 15.9733 40.126 15.68 39.3794 15.64C39.006 15.6133 38.6194 15.6067 38.2194 15.62C37.8327 15.62 37.506 15.62 37.2394 15.62C36.9727 15.62 36.8394 15.62 36.8394 15.62C36.8394 15.6067 36.8194 15.5533 36.7794 15.46C36.7527 15.3533 36.7194 15.2533 36.6794 15.16C36.6527 15.0533 36.6394 15 36.6394 15ZM36.8994 15V29H35.5994V15H36.8994ZM35.6594 27.54V29H34.0594V28.8C34.0594 28.8 34.0994 28.8 34.1794 28.8C34.2727 28.8 34.3194 28.8 34.3194 28.8C34.666 28.8 34.9594 28.68 35.1994 28.44C35.4527 28.1867 35.586 27.8867 35.5994 27.54H35.6594ZM35.6594 16.46H35.5994C35.586 16.1133 35.4527 15.82 35.1994 15.58C34.9594 15.3267 34.666 15.2 34.3194 15.2C34.3194 15.2 34.2727 15.2 34.1794 15.2C34.0994 15.2 34.0594 15.2 34.0594 15.2V15H35.6594V16.46ZM36.8394 27.54H36.8994C36.8994 27.8867 37.026 28.1867 37.2794 28.44C37.5327 28.68 37.8327 28.8 38.1794 28.8C38.1794 28.8 38.2194 28.8 38.2994 28.8C38.3794 28.8 38.4194 28.8 38.4194 28.8V29H36.8394V27.54ZM49.8291 15V29H48.5291V15H49.8291ZM48.5891 27.54V29H46.9891V28.8C46.9891 28.8 47.0291 28.8 47.1091 28.8C47.2024 28.8 47.2491 28.8 47.2491 28.8C47.5957 28.8 47.8891 28.68 48.1291 28.44C48.3824 28.1867 48.5157 27.8867 48.5291 27.54H48.5891ZM48.5891 16.46H48.5291C48.5157 16.1133 48.3824 15.82 48.1291 15.58C47.8891 15.3267 47.5957 15.2 47.2491 15.2C47.2491 15.2 47.2024 15.2 47.1091 15.2C47.0291 15.2 46.9891 15.2 46.9891 15.2V15H48.5891V16.46ZM49.7691 27.54H49.8291C49.8424 27.8867 49.9691 28.1867 50.2091 28.44C50.4624 28.68 50.7624 28.8 51.1091 28.8C51.1091 28.8 51.1491 28.8 51.2291 28.8C51.3091 28.8 51.3557 28.8 51.3691 28.8V29H49.7691V27.54ZM49.7691 16.46V15H51.3691V15.2C51.3557 15.2 51.3091 15.2 51.2291 15.2C51.1491 15.2 51.1091 15.2 51.1091 15.2C50.7624 15.2 50.4624 15.3267 50.2091 15.58C49.9691 15.82 49.8424 16.1133 49.8291 16.46H49.7691ZM55.0669 14.7L66.6869 27.1L66.8669 29.28L55.2469 16.9L55.0669 14.7ZM55.1069 27.58V29H53.4469V28.8C53.4469 28.8 53.5069 28.8 53.6269 28.8C53.7469 28.8 53.8135 28.8 53.8269 28.8C54.1602 28.8 54.4469 28.68 54.6869 28.44C54.9269 28.2 55.0469 27.9133 55.0469 27.58H55.1069ZM55.9669 27.58C55.9669 27.9133 56.0869 28.2 56.3269 28.44C56.5669 28.68 56.8535 28.8 57.1869 28.8C57.2002 28.8 57.2669 28.8 57.3869 28.8C57.5069 28.8 57.5669 28.8 57.5669 28.8V29H55.9069V27.58H55.9669ZM55.0669 14.7L55.9469 15.82L55.9669 29H55.0469V17.2C55.0469 16.52 55.0135 15.9333 54.9469 15.44C54.8935 14.9467 54.8669 14.7 54.8669 14.7H55.0669ZM66.8669 15V26.72C66.8669 27.1467 66.8802 27.56 66.9069 27.96C66.9335 28.3467 66.9602 28.6667 66.9869 28.92C67.0269 29.16 67.0469 29.28 67.0469 29.28H66.8669L65.9669 28.22V15H66.8669ZM68.4669 15V15.2C68.4669 15.2 68.4069 15.2 68.2869 15.2C68.1669 15.2 68.1069 15.2 68.1069 15.2C67.7735 15.2 67.4869 15.32 67.2469 15.56C67.0069 15.7867 66.8802 16.0733 66.8669 16.42H66.8069V15H68.4669ZM64.3469 15H66.0069V16.42H65.9669C65.9535 16.0733 65.8269 15.7867 65.5869 15.56C65.3602 15.32 65.0735 15.2 64.7269 15.2C64.7269 15.2 64.6669 15.2 64.5469 15.2C64.4269 15.2 64.3602 15.2 64.3469 15.2V15ZM76.2503 14.72L82.1703 28.88H80.4703L75.8503 16.62L76.2503 14.72ZM71.9503 27.54C71.857 27.8067 71.8436 28.0333 71.9103 28.22C71.977 28.4067 72.0836 28.5533 72.2303 28.66C72.3903 28.7533 72.5503 28.8 72.7103 28.8H72.8903V29H68.8703V28.8C68.8703 28.8 68.9036 28.8 68.9703 28.8C69.0236 28.8 69.0503 28.8 69.0503 28.8C69.357 28.8 69.6703 28.7067 69.9903 28.52C70.3236 28.32 70.597 27.9933 70.8103 27.54H71.9503ZM76.2503 14.72L76.4303 16.12L71.4103 28.94H70.2103L75.3303 16.78C75.3303 16.78 75.3636 16.7 75.4303 16.54C75.5103 16.3667 75.597 16.16 75.6903 15.92C75.797 15.68 75.8836 15.4467 75.9503 15.22C76.0303 14.9933 76.0703 14.8267 76.0703 14.72H76.2503ZM79.0703 23.54V24.14H72.8103V23.54H79.0703ZM79.9703 27.54H81.6103C81.8103 27.9933 82.077 28.32 82.4103 28.52C82.7436 28.7067 83.0636 28.8 83.3703 28.8C83.3703 28.8 83.397 28.8 83.4503 28.8C83.5036 28.8 83.5303 28.8 83.5303 28.8V29H79.0303V28.8H79.2103C79.4636 28.8 79.6903 28.6933 79.8903 28.48C80.0903 28.2533 80.117 27.94 79.9703 27.54ZM96.2886 15C97.7153 15 98.9619 15.2933 100.029 15.88C101.109 16.4533 101.949 17.2667 102.549 18.32C103.162 19.3733 103.469 20.6 103.469 22C103.469 23.4 103.162 24.6267 102.549 25.68C101.949 26.72 101.109 27.5333 100.029 28.12C98.9619 28.7067 97.7153 29 96.2886 29H92.0086L91.9886 28.4C91.9886 28.4 92.1286 28.4 92.4086 28.4C92.7019 28.4 93.0619 28.4 93.4886 28.4C93.9286 28.4 94.3619 28.4 94.7886 28.4C95.2153 28.4 95.5686 28.4 95.8486 28.4C96.1419 28.4 96.2886 28.4 96.2886 28.4C97.4353 28.4 98.4286 28.1333 99.2686 27.6C100.122 27.0667 100.782 26.32 101.249 25.36C101.729 24.4 101.969 23.28 101.969 22C101.969 20.72 101.729 19.6 101.249 18.64C100.782 17.68 100.122 16.9333 99.2686 16.4C98.4153 15.8667 97.4219 15.6 96.2886 15.6C96.2886 15.6 96.1353 15.6 95.8286 15.6C95.5353 15.6 95.1619 15.6 94.7086 15.6C94.2686 15.6 93.8219 15.6 93.3686 15.6C92.9286 15.6 92.5553 15.6 92.2486 15.6C91.9419 15.6 91.7886 15.6 91.7886 15.6V15H96.2886ZM92.3486 15V29H91.0486V15H92.3486ZM91.1086 27.54V29H89.5086V28.8C89.5086 28.8 89.5486 28.8 89.6286 28.8C89.7219 28.8 89.7686 28.8 89.7686 28.8C90.1153 28.8 90.4086 28.68 90.6486 28.44C90.9019 28.1867 91.0353 27.8867 91.0486 27.54H91.1086ZM91.1086 16.46H91.0486C91.0486 16.1133 90.9219 15.82 90.6686 15.58C90.4153 15.3267 90.1153 15.2 89.7686 15.2C89.7686 15.2 89.7286 15.2 89.6486 15.2C89.5686 15.2 89.5286 15.2 89.5286 15.2L89.5086 15H91.1086V16.46ZM108.091 15V29H106.791V15H108.091ZM106.851 27.54V29H105.251V28.8C105.251 28.8 105.291 28.8 105.371 28.8C105.464 28.8 105.511 28.8 105.511 28.8C105.857 28.8 106.151 28.68 106.391 28.44C106.644 28.1867 106.777 27.8867 106.791 27.54H106.851ZM106.851 16.46H106.791C106.777 16.1133 106.644 15.82 106.391 15.58C106.151 15.3267 105.857 15.2 105.511 15.2C105.511 15.2 105.464 15.2 105.371 15.2C105.291 15.2 105.251 15.2 105.251 15.2V15H106.851V16.46ZM108.031 27.54H108.091C108.104 27.8867 108.231 28.1867 108.471 28.44C108.724 28.68 109.024 28.8 109.371 28.8C109.371 28.8 109.411 28.8 109.491 28.8C109.571 28.8 109.617 28.8 109.631 28.8V29H108.031V27.54ZM108.031 16.46V15H109.631V15.2C109.617 15.2 109.571 15.2 109.491 15.2C109.411 15.2 109.371 15.2 109.371 15.2C109.024 15.2 108.724 15.3267 108.471 15.58C108.231 15.82 108.104 16.1133 108.091 16.46H108.031ZM130.009 23.16L129.769 26.3C129.422 26.8733 128.982 27.3867 128.449 27.84C127.929 28.28 127.309 28.6333 126.589 28.9C125.882 29.1533 125.069 29.28 124.149 29.28C122.762 29.2667 121.529 28.96 120.449 28.36C119.369 27.76 118.522 26.92 117.909 25.84C117.309 24.7467 117.009 23.46 117.009 21.98C117.009 20.5267 117.309 19.26 117.909 18.18C118.509 17.0867 119.349 16.24 120.429 15.64C121.522 15.0267 122.802 14.72 124.269 14.72C125.255 14.72 126.142 14.8533 126.929 15.12C127.729 15.3733 128.422 15.6933 129.009 16.08L129.409 18.9H129.229C128.935 17.7267 128.335 16.84 127.429 16.24C126.522 15.6267 125.469 15.32 124.269 15.32C123.095 15.32 122.075 15.6 121.209 16.16C120.355 16.7067 119.689 17.48 119.209 18.48C118.742 19.4667 118.509 20.6267 118.509 21.96C118.509 23.2933 118.742 24.46 119.209 25.46C119.689 26.46 120.349 27.24 121.189 27.8C122.042 28.36 123.029 28.6533 124.149 28.68C125.095 28.68 125.969 28.5067 126.769 28.16C127.582 27.8 128.262 27.22 128.809 26.42C129.355 25.6067 129.702 24.52 129.849 23.16H130.009ZM139.584 14.72C141.011 14.72 142.264 15.0267 143.344 15.64C144.424 16.24 145.264 17.0867 145.864 18.18C146.477 19.2733 146.784 20.5467 146.784 22C146.784 23.4533 146.477 24.7267 145.864 25.82C145.264 26.9133 144.424 27.7667 143.344 28.38C142.264 28.98 141.011 29.28 139.584 29.28C138.171 29.28 136.924 28.98 135.844 28.38C134.764 27.7667 133.917 26.9133 133.304 25.82C132.704 24.7267 132.404 23.4533 132.404 22C132.404 20.5467 132.704 19.2733 133.304 18.18C133.917 17.0867 134.764 16.24 135.844 15.64C136.924 15.0267 138.171 14.72 139.584 14.72ZM139.584 28.68C140.717 28.68 141.704 28.4 142.544 27.84C143.397 27.28 144.057 26.5 144.524 25.5C145.004 24.5 145.244 23.3333 145.244 22C145.244 20.6667 145.004 19.5 144.524 18.5C144.057 17.5 143.397 16.72 142.544 16.16C141.704 15.6 140.717 15.32 139.584 15.32C138.464 15.32 137.477 15.6 136.624 16.16C135.784 16.72 135.124 17.5 134.644 18.5C134.177 19.5 133.944 20.6667 133.944 22C133.944 23.3333 134.177 24.5 134.644 25.5C135.124 26.5 135.784 27.28 136.624 27.84C137.477 28.4 138.464 28.68 139.584 28.68ZM149.891 14.7L161.511 27.1L161.691 29.28L150.071 16.9L149.891 14.7ZM149.931 27.58V29H148.271V28.8C148.271 28.8 148.331 28.8 148.451 28.8C148.571 28.8 148.638 28.8 148.651 28.8C148.984 28.8 149.271 28.68 149.511 28.44C149.751 28.2 149.871 27.9133 149.871 27.58H149.931ZM150.791 27.58C150.791 27.9133 150.911 28.2 151.151 28.44C151.391 28.68 151.678 28.8 152.011 28.8C152.024 28.8 152.091 28.8 152.211 28.8C152.331 28.8 152.391 28.8 152.391 28.8V29H150.731V27.58H150.791ZM149.891 14.7L150.771 15.82L150.791 29H149.871V17.2C149.871 16.52 149.838 15.9333 149.771 15.44C149.718 14.9467 149.691 14.7 149.691 14.7H149.891ZM161.691 15V26.72C161.691 27.1467 161.704 27.56 161.731 27.96C161.758 28.3467 161.784 28.6667 161.811 28.92C161.851 29.16 161.871 29.28 161.871 29.28H161.691L160.791 28.22V15H161.691ZM163.291 15V15.2C163.291 15.2 163.231 15.2 163.111 15.2C162.991 15.2 162.931 15.2 162.931 15.2C162.598 15.2 162.311 15.32 162.071 15.56C161.831 15.7867 161.704 16.0733 161.691 16.42H161.631V15H163.291ZM159.171 15H160.831V16.42H160.791C160.778 16.0733 160.651 15.7867 160.411 15.56C160.184 15.32 159.898 15.2 159.551 15.2C159.551 15.2 159.491 15.2 159.371 15.2C159.251 15.2 159.184 15.2 159.171 15.2V15ZM177.997 23.16L177.757 26.3C177.41 26.8733 176.97 27.3867 176.437 27.84C175.917 28.28 175.297 28.6333 174.577 28.9C173.87 29.1533 173.057 29.28 172.137 29.28C170.75 29.2667 169.517 28.96 168.437 28.36C167.357 27.76 166.51 26.92 165.897 25.84C165.297 24.7467 164.997 23.46 164.997 21.98C164.997 20.5267 165.297 19.26 165.897 18.18C166.497 17.0867 167.337 16.24 168.417 15.64C169.51 15.0267 170.79 14.72 172.257 14.72C173.244 14.72 174.13 14.8533 174.917 15.12C175.717 15.3733 176.41 15.6933 176.997 16.08L177.397 18.9H177.217C176.924 17.7267 176.324 16.84 175.417 16.24C174.51 15.6267 173.457 15.32 172.257 15.32C171.084 15.32 170.064 15.6 169.197 16.16C168.344 16.7067 167.677 17.48 167.197 18.48C166.73 19.4667 166.497 20.6267 166.497 21.96C166.497 23.2933 166.73 24.46 167.197 25.46C167.677 26.46 168.337 27.24 169.177 27.8C170.03 28.36 171.017 28.6533 172.137 28.68C173.084 28.68 173.957 28.5067 174.757 28.16C175.57 27.8 176.25 27.22 176.797 26.42C177.344 25.6067 177.69 24.52 177.837 23.16H177.997ZM186.172 14.72L192.092 28.88H190.392L185.772 16.62L186.172 14.72ZM181.872 27.54C181.779 27.8067 181.766 28.0333 181.832 28.22C181.899 28.4067 182.006 28.5533 182.152 28.66C182.312 28.7533 182.472 28.8 182.632 28.8H182.812V29H178.792V28.8C178.792 28.8 178.826 28.8 178.892 28.8C178.946 28.8 178.972 28.8 178.972 28.8C179.279 28.8 179.592 28.7067 179.912 28.52C180.246 28.32 180.519 27.9933 180.732 27.54H181.872ZM186.172 14.72L186.352 16.12L181.332 28.94H180.132L185.252 16.78C185.252 16.78 185.286 16.7 185.352 16.54C185.432 16.3667 185.519 16.16 185.612 15.92C185.719 15.68 185.806 15.4467 185.872 15.22C185.952 14.9933 185.992 14.8267 185.992 14.72H186.172ZM188.992 23.54V24.14H182.732V23.54H188.992ZM189.892 27.54H191.532C191.732 27.9933 191.999 28.32 192.332 28.52C192.666 28.7067 192.986 28.8 193.292 28.8C193.292 28.8 193.319 28.8 193.372 28.8C193.426 28.8 193.452 28.8 193.452 28.8V29H188.952V28.8H189.132C189.386 28.8 189.612 28.6933 189.812 28.48C190.012 28.2533 190.039 27.94 189.892 27.54ZM205.57 29.28L199.37 15.12H201.07L205.97 27.38L205.57 29.28ZM205.57 29.28L205.39 27.88L210.71 15.06H211.91L206.49 27.22C206.49 27.22 206.45 27.3067 206.37 27.48C206.304 27.64 206.217 27.84 206.11 28.08C206.017 28.32 205.93 28.5533 205.85 28.78C205.784 29.0067 205.75 29.1733 205.75 29.28H205.57ZM210.15 16.44C210.297 16.04 210.27 15.7333 210.07 15.52C209.87 15.3067 209.644 15.2 209.39 15.2H209.21V15H213.23V15.2C213.23 15.2 213.197 15.2 213.13 15.2C213.077 15.2 213.05 15.2 213.05 15.2C212.757 15.2 212.444 15.3 212.11 15.5C211.777 15.6867 211.504 16.0067 211.29 16.46L210.15 16.44ZM201.61 16.44L199.95 16.46C199.75 16.0067 199.484 15.6867 199.15 15.5C198.817 15.3 198.497 15.2 198.19 15.2C198.19 15.2 198.164 15.2 198.11 15.2C198.057 15.2 198.03 15.2 198.03 15.2V15H202.53V15.2H202.35C202.097 15.2 201.87 15.3067 201.67 15.52C201.484 15.7333 201.464 16.04 201.61 16.44ZM217.075 15V29H215.775V15H217.075ZM222.475 28.38V29H217.015V28.38H222.475ZM221.615 21.8V22.4H217.015V21.8H221.615ZM222.475 15V15.62H217.015V15H222.475ZM223.695 25.76L222.535 29H219.215L219.935 28.38C220.642 28.38 221.215 28.2733 221.655 28.06C222.108 27.8333 222.475 27.52 222.755 27.12C223.035 26.72 223.282 26.2667 223.495 25.76H223.695ZM221.615 22.36V23.68H221.415V23.38C221.415 23.1133 221.322 22.8867 221.135 22.7C220.948 22.5 220.722 22.4 220.455 22.4V22.36H221.615ZM221.615 20.52V21.84H220.455V21.8C220.722 21.7867 220.948 21.6867 221.135 21.5C221.322 21.3 221.415 21.0667 221.415 20.8V20.52H221.615ZM222.475 15.56V17.16H222.275V16.8C222.275 16.48 222.162 16.2067 221.935 15.98C221.708 15.74 221.428 15.6133 221.095 15.6V15.56H222.475ZM222.475 14.64V15.22L220.035 15C220.328 15 220.635 14.98 220.955 14.94C221.288 14.9 221.595 14.8533 221.875 14.8C222.155 14.7467 222.355 14.6933 222.475 14.64ZM215.835 27.54V29H214.235V28.8C214.235 28.8 214.275 28.8 214.355 28.8C214.448 28.8 214.495 28.8 214.495 28.8C214.842 28.8 215.135 28.68 215.375 28.44C215.628 28.1867 215.762 27.8867 215.775 27.54H215.835ZM215.835 16.46H215.775C215.775 16.1133 215.648 15.82 215.395 15.58C215.142 15.3267 214.842 15.2 214.495 15.2C214.495 15.2 214.455 15.2 214.375 15.2C214.295 15.2 214.255 15.2 214.255 15.2L214.235 15H215.835V16.46ZM228.163 15H230.983C231.583 15 232.123 15.0867 232.603 15.26C233.096 15.4333 233.509 15.6867 233.843 16.02C234.176 16.34 234.429 16.7333 234.603 17.2C234.789 17.6533 234.883 18.1733 234.883 18.76C234.883 19.4 234.729 20.0133 234.423 20.6C234.129 21.1867 233.723 21.6667 233.203 22.04C232.696 22.4 232.123 22.58 231.483 22.58C231.709 22.6733 231.956 22.8667 232.223 23.16C232.489 23.44 232.723 23.7133 232.923 23.98C232.923 23.98 233.009 24.1133 233.183 24.38C233.369 24.6333 233.596 24.9467 233.863 25.32C234.143 25.6933 234.423 26.06 234.703 26.42C234.983 26.78 235.223 27.0667 235.423 27.28C235.689 27.5733 235.956 27.8333 236.223 28.06C236.489 28.2867 236.776 28.4667 237.083 28.6C237.403 28.7333 237.756 28.8 238.143 28.8V29H237.043C236.429 29 235.896 28.9067 235.443 28.72C235.003 28.5333 234.629 28.3067 234.323 28.04C234.016 27.76 233.756 27.4933 233.543 27.24C233.503 27.1867 233.389 27.0333 233.203 26.78C233.029 26.5267 232.816 26.2267 232.563 25.88C232.323 25.52 232.083 25.1667 231.843 24.82C231.603 24.4733 231.396 24.18 231.223 23.94C231.049 23.6867 230.949 23.54 230.923 23.5C230.669 23.1667 230.389 22.86 230.083 22.58C229.776 22.3 229.443 22.16 229.083 22.16V21.96C229.083 21.96 229.183 21.9667 229.383 21.98C229.596 21.98 229.849 21.9733 230.143 21.96C230.489 21.9467 230.869 21.8933 231.283 21.8C231.696 21.7067 232.083 21.5133 232.443 21.22C232.803 20.9267 233.076 20.48 233.263 19.88C233.303 19.7333 233.336 19.5533 233.363 19.34C233.389 19.1133 233.396 18.8933 233.383 18.68C233.369 17.7733 233.136 17.0533 232.683 16.52C232.243 15.9733 231.649 15.68 230.903 15.64C230.529 15.6133 230.143 15.6067 229.743 15.62C229.356 15.62 229.029 15.62 228.763 15.62C228.496 15.62 228.363 15.62 228.363 15.62C228.363 15.6067 228.343 15.5533 228.303 15.46C228.276 15.3533 228.243 15.2533 228.203 15.16C228.176 15.0533 228.163 15 228.163 15ZM228.423 15V29H227.123V15H228.423ZM227.183 27.54V29H225.583V28.8C225.583 28.8 225.623 28.8 225.703 28.8C225.796 28.8 225.843 28.8 225.843 28.8C226.189 28.8 226.483 28.68 226.723 28.44C226.976 28.1867 227.109 27.8867 227.123 27.54H227.183ZM227.183 16.46H227.123C227.109 16.1133 226.976 15.82 226.723 15.58C226.483 15.3267 226.189 15.2 225.843 15.2C225.843 15.2 225.796 15.2 225.703 15.2C225.623 15.2 225.583 15.2 225.583 15.2V15H227.183V16.46ZM228.363 27.54H228.423C228.423 27.8867 228.549 28.1867 228.803 28.44C229.056 28.68 229.356 28.8 229.703 28.8C229.703 28.8 229.743 28.8 229.823 28.8C229.903 28.8 229.943 28.8 229.943 28.8V29H228.363V27.54ZM245.293 15C246.719 15 247.966 15.2933 249.033 15.88C250.113 16.4533 250.953 17.2667 251.553 18.32C252.166 19.3733 252.473 20.6 252.473 22C252.473 23.4 252.166 24.6267 251.553 25.68C250.953 26.72 250.113 27.5333 249.033 28.12C247.966 28.7067 246.719 29 245.293 29H241.013L240.993 28.4C240.993 28.4 241.133 28.4 241.413 28.4C241.706 28.4 242.066 28.4 242.493 28.4C242.933 28.4 243.366 28.4 243.793 28.4C244.219 28.4 244.573 28.4 244.853 28.4C245.146 28.4 245.293 28.4 245.293 28.4C246.439 28.4 247.433 28.1333 248.273 27.6C249.126 27.0667 249.786 26.32 250.253 25.36C250.733 24.4 250.973 23.28 250.973 22C250.973 20.72 250.733 19.6 250.253 18.64C249.786 17.68 249.126 16.9333 248.273 16.4C247.419 15.8667 246.426 15.6 245.293 15.6C245.293 15.6 245.139 15.6 244.833 15.6C244.539 15.6 244.166 15.6 243.713 15.6C243.273 15.6 242.826 15.6 242.373 15.6C241.933 15.6 241.559 15.6 241.253 15.6C240.946 15.6 240.793 15.6 240.793 15.6V15H245.293ZM241.353 15V29H240.053V15H241.353ZM240.113 27.54V29H238.513V28.8C238.513 28.8 238.553 28.8 238.632 28.8C238.726 28.8 238.773 28.8 238.773 28.8C239.119 28.8 239.413 28.68 239.653 28.44C239.906 28.1867 240.039 27.8867 240.053 27.54H240.113ZM240.113 16.46H240.053C240.053 16.1133 239.926 15.82 239.673 15.58C239.419 15.3267 239.119 15.2 238.773 15.2C238.773 15.2 238.733 15.2 238.653 15.2C238.573 15.2 238.533 15.2 238.533 15.2L238.513 15H240.113V16.46ZM257.095 15V29H255.795V15H257.095ZM262.495 28.38V29H257.035V28.38H262.495ZM261.635 21.8V22.4H257.035V21.8H261.635ZM262.495 15V15.62H257.035V15H262.495ZM263.715 25.76L262.555 29H259.235L259.955 28.38C260.661 28.38 261.235 28.2733 261.675 28.06C262.128 27.8333 262.495 27.52 262.775 27.12C263.055 26.72 263.301 26.2667 263.515 25.76H263.715ZM261.635 22.36V23.68H261.435V23.38C261.435 23.1133 261.341 22.8867 261.155 22.7C260.968 22.5 260.741 22.4 260.475 22.4V22.36H261.635ZM261.635 20.52V21.84H260.475V21.8C260.741 21.7867 260.968 21.6867 261.155 21.5C261.341 21.3 261.435 21.0667 261.435 20.8V20.52H261.635ZM262.495 15.56V17.16H262.295V16.8C262.295 16.48 262.181 16.2067 261.955 15.98C261.728 15.74 261.448 15.6133 261.115 15.6V15.56H262.495ZM262.495 14.64V15.22L260.055 15C260.348 15 260.655 14.98 260.975 14.94C261.308 14.9 261.615 14.8533 261.895 14.8C262.175 14.7467 262.375 14.6933 262.495 14.64ZM255.855 27.54V29H254.255V28.8C254.255 28.8 254.295 28.8 254.375 28.8C254.468 28.8 254.515 28.8 254.515 28.8C254.861 28.8 255.155 28.68 255.395 28.44C255.648 28.1867 255.781 27.8867 255.795 27.54H255.855ZM255.855 16.46H255.795C255.795 16.1133 255.668 15.82 255.415 15.58C255.161 15.3267 254.861 15.2 254.515 15.2C254.515 15.2 254.475 15.2 254.395 15.2C254.315 15.2 254.275 15.2 254.275 15.2L254.255 15H255.855V16.46Z" fill="#0D3530"/>
<path d="M0.00390625 42.9961L248.004 44.0555" stroke="#0D3530"/>
<path d="M173.833 57.4545C173.782 57.0227 173.575 56.6875 173.211 56.4489C172.848 56.2102 172.402 56.0909 171.873 56.0909C171.487 56.0909 171.149 56.1534 170.859 56.2784C170.572 56.4034 170.348 56.5753 170.186 56.794C170.027 57.0128 169.947 57.2614 169.947 57.5398C169.947 57.7727 170.002 57.973 170.113 58.1406C170.227 58.3054 170.372 58.4432 170.548 58.554C170.724 58.6619 170.909 58.7514 171.102 58.8224C171.295 58.8906 171.473 58.946 171.635 58.9886L172.521 59.2273C172.748 59.2869 173.001 59.3693 173.279 59.4744C173.561 59.5795 173.829 59.723 174.085 59.9048C174.343 60.0838 174.556 60.3139 174.724 60.5952C174.892 60.8764 174.975 61.2216 174.975 61.6307C174.975 62.1023 174.852 62.5284 174.605 62.9091C174.36 63.2898 174.002 63.5923 173.531 63.8168C173.062 64.0412 172.493 64.1534 171.822 64.1534C171.197 64.1534 170.656 64.0526 170.199 63.8509C169.744 63.6491 169.386 63.3679 169.125 63.0071C168.866 62.6463 168.72 62.2273 168.686 61.75H169.777C169.805 62.0795 169.916 62.3523 170.109 62.5682C170.305 62.7812 170.552 62.9403 170.85 63.0455C171.152 63.1477 171.475 63.1989 171.822 63.1989C172.225 63.1989 172.588 63.1335 172.909 63.0028C173.23 62.8693 173.484 62.6847 173.672 62.4489C173.859 62.2102 173.953 61.9318 173.953 61.6136C173.953 61.3239 173.872 61.0881 173.71 60.9062C173.548 60.7244 173.335 60.5767 173.071 60.4631C172.806 60.3494 172.521 60.25 172.214 60.1648L171.14 59.858C170.458 59.6619 169.919 59.3821 169.521 59.0185C169.123 58.6548 168.924 58.179 168.924 57.5909C168.924 57.1023 169.056 56.6761 169.321 56.3125C169.588 55.946 169.946 55.6619 170.395 55.4602C170.846 55.2557 171.35 55.1534 171.907 55.1534C172.47 55.1534 172.97 55.2543 173.407 55.456C173.845 55.6548 174.191 55.9276 174.447 56.2741C174.706 56.6207 174.842 57.0142 174.856 57.4545H173.833ZM177.071 64H175.963L179.168 55.2727H180.259L183.463 64H182.355L179.747 56.6534H179.679L177.071 64ZM177.48 60.5909H181.946V61.5284H177.48V60.5909ZM184.822 64V55.2727H187.771C188.453 55.2727 189.013 55.3892 189.45 55.6222C189.888 55.8523 190.212 56.169 190.422 56.5724C190.632 56.9759 190.737 57.4347 190.737 57.9489C190.737 58.4631 190.632 58.919 190.422 59.3168C190.212 59.7145 189.889 60.027 189.455 60.2543C189.02 60.4787 188.464 60.5909 187.788 60.5909H185.402V59.6364H187.754C188.22 59.6364 188.595 59.5682 188.879 59.4318C189.166 59.2955 189.374 59.1023 189.501 58.8523C189.632 58.5994 189.697 58.2983 189.697 57.9489C189.697 57.5994 189.632 57.294 189.501 57.0327C189.371 56.7713 189.162 56.5696 188.875 56.4276C188.588 56.2827 188.209 56.2102 187.737 56.2102H185.879V64H184.822ZM188.93 60.0795L191.078 64H189.851L187.737 60.0795H188.93ZM195.191 64H192.498V55.2727H195.311C196.157 55.2727 196.882 55.4474 197.484 55.7969C198.086 56.1435 198.548 56.642 198.869 57.2926C199.19 57.9403 199.35 58.7159 199.35 59.6193C199.35 60.5284 199.189 61.3111 198.865 61.9673C198.541 62.6207 198.069 63.1236 197.45 63.4759C196.831 63.8253 196.078 64 195.191 64ZM193.555 63.0625H195.123C195.845 63.0625 196.443 62.9233 196.917 62.6449C197.392 62.3665 197.745 61.9702 197.978 61.456C198.211 60.9418 198.328 60.3295 198.328 59.6193C198.328 58.9148 198.213 58.3082 197.983 57.7997C197.752 57.2884 197.409 56.8963 196.951 56.6236C196.494 56.348 195.924 56.2102 195.243 56.2102H193.555V63.0625ZM201.123 64V55.2727H206.39V56.2102H202.18V59.1591H206.118V60.0966H202.18V63.0625H206.458V64H201.123ZM214.261 58C214.167 57.7131 214.044 57.456 213.89 57.2287C213.74 56.9986 213.559 56.8026 213.349 56.6406C213.142 56.4787 212.906 56.3551 212.642 56.2699C212.377 56.1847 212.088 56.142 211.772 56.142C211.255 56.142 210.785 56.2756 210.362 56.5426C209.939 56.8097 209.602 57.2031 209.352 57.723C209.102 58.2429 208.977 58.8807 208.977 59.6364C208.977 60.392 209.103 61.0298 209.356 61.5497C209.609 62.0696 209.951 62.4631 210.383 62.7301C210.815 62.9972 211.301 63.1307 211.841 63.1307C212.341 63.1307 212.781 63.0241 213.162 62.8111C213.545 62.5952 213.843 62.2912 214.056 61.8991C214.272 61.5043 214.38 61.0398 214.38 60.5057L214.704 60.5739H212.079V59.6364H215.403V60.5739C215.403 61.2926 215.25 61.9176 214.943 62.4489C214.639 62.9801 214.218 63.392 213.681 63.6847C213.147 63.9744 212.534 64.1193 211.841 64.1193C211.068 64.1193 210.389 63.9375 209.804 63.5739C209.221 63.2102 208.767 62.6932 208.44 62.0227C208.116 61.3523 207.954 60.5568 207.954 59.6364C207.954 58.946 208.047 58.3253 208.231 57.7741C208.419 57.2202 208.683 56.7486 209.024 56.3594C209.365 55.9702 209.768 55.6719 210.234 55.4645C210.7 55.2571 211.213 55.1534 211.772 55.1534C212.233 55.1534 212.662 55.223 213.059 55.3622C213.46 55.4986 213.816 55.6932 214.129 55.946C214.444 56.196 214.707 56.4957 214.917 56.8452C215.127 57.1918 215.272 57.5767 215.352 58H214.261ZM224.134 55.2727V64H223.111L218.355 57.1477H218.27V64H217.213V55.2727H218.236L223.009 62.142H223.094V55.2727H224.134ZM226.606 64H225.498L228.703 55.2727H229.794L232.998 64H231.89L229.282 56.6534H229.214L226.606 64ZM227.015 60.5909H231.481V61.5284H227.015V60.5909Z" fill="#0D3530"/>
<path d="M316.008 39.0066C316.008 39.0922 316.008 39.1779 316.008 39.2661C315.919 39.2661 315.83 39.2661 315.738 39.2661C315.702 39.3432 315.666 39.4204 315.628 39.4998C315.466 39.7879 315.305 39.9698 315.061 40.1965C314.982 40.2715 314.902 40.3465 314.82 40.4237C314.736 40.5019 314.652 40.5801 314.565 40.6607C313.967 41.2253 313.388 41.7917 312.846 42.407C312.532 42.7509 312.191 43.0675 311.849 43.3851C311.594 43.6377 311.353 43.8955 311.113 44.1615C310.611 44.7167 310.09 45.2518 309.563 45.7852C308.785 46.5756 308.015 47.3713 307.253 48.1761C307.027 48.4121 306.799 48.6421 306.56 48.8663C305.782 48.6226 305.013 48.3621 304.248 48.0834C303.137 47.7244 302.163 47.6551 300.992 47.6582C300.837 47.6561 300.682 47.654 300.522 47.6519C298.644 47.6508 297.124 48.2138 295.442 48.9474C295.173 49.0644 294.903 49.181 294.633 49.2965C294.39 49.4004 294.148 49.5057 293.906 49.6111C292.229 50.2365 290.088 50.0687 288.474 49.3853C288.253 49.2931 288.033 49.201 287.812 49.1091C287.692 49.059 287.572 49.0089 287.448 48.9572C286.847 48.7071 286.244 48.4606 285.64 48.2177C285.483 48.1546 285.327 48.0916 285.165 48.0266C282.606 47.1646 279.547 47.536 277.153 48.638C276.949 48.7343 276.747 48.8333 276.547 48.9355C275.866 49.2718 275.866 49.2718 275.485 49.1937C275.184 48.944 274.946 48.6799 274.699 48.3798C274.541 48.1897 274.541 48.1897 274.38 47.9957C274.264 47.8535 274.148 47.7113 274.032 47.569C273.902 47.4105 273.772 47.2521 273.642 47.0937C273.331 46.7141 273.021 46.3339 272.712 45.9525C272.556 45.7627 272.395 45.5767 272.234 45.3909C272.008 45.1041 272.008 45.1041 272.008 44.8446C272.097 44.8349 272.185 44.8251 272.277 44.8151C273.945 44.6306 275.607 44.4325 277.264 44.1721C278.089 44.0427 278.916 43.9247 279.743 43.8067C279.882 43.7868 280.021 43.7668 280.164 43.7462C281.215 43.5967 282.267 43.4581 283.319 43.321C284.368 43.184 285.416 43.0432 286.464 42.9012C286.632 42.8784 286.8 42.8556 286.974 42.8321C287.416 42.7722 287.858 42.7122 288.3 42.6522C291.158 42.2644 294.017 41.8812 296.877 41.5046C297.041 41.483 297.205 41.4614 297.374 41.4391C297.537 41.4176 297.7 41.3961 297.868 41.374C299.95 41.0995 302.03 40.8176 304.106 40.5045C304.974 40.374 305.843 40.2573 306.716 40.1548C308.069 39.9952 309.42 39.8185 310.772 39.644C311.255 39.5817 311.738 39.5198 312.221 39.4579C312.53 39.4181 312.838 39.3784 313.146 39.3386C313.29 39.3202 313.434 39.3018 313.582 39.2829C313.716 39.2655 313.849 39.2482 313.987 39.2303C314.162 39.2077 314.162 39.2077 314.341 39.1847C314.655 39.1418 314.655 39.1418 314.943 39.0661C315.299 38.983 315.643 38.9986 316.008 39.0066Z" fill="#1F3660"/>
<path d="M281.98 49.0081C282.084 49.0054 282.188 49.0028 282.295 49.0001C283.866 48.9904 285.236 49.5209 286.652 50.1186C289.018 51.1105 291.63 51.807 294.202 50.9757C294.627 50.8138 295.036 50.6283 295.446 50.4359C295.856 50.2559 296.268 50.08 296.681 49.9045C296.783 49.8608 296.885 49.8171 296.991 49.7721C299.528 48.7025 302.022 48.8309 304.58 49.7567C305.392 50.0621 306.186 50.3914 306.959 50.777C309.616 52.09 311.924 51.7145 314.668 50.9436C314.876 50.8806 315.084 50.8167 315.291 50.7518C316.88 50.2582 318.349 50.1367 320.008 50.4359C320.008 50.5197 320.008 50.6035 320.008 50.6898C319.896 50.6901 319.784 50.6904 319.669 50.6908C317.788 50.7502 316.284 51.4662 314.666 52.3194C312.576 53.4149 309.998 53.7628 307.668 53.1855C306.499 52.8513 305.363 52.4021 304.235 51.9635C302.627 51.3431 300.54 51.0881 298.875 51.6893C298.665 51.7795 298.455 51.8702 298.247 51.9658C297.264 52.4116 296.255 52.8106 295.253 53.2168C294.983 53.3263 294.714 53.4378 294.446 53.55C292.489 54.2532 289.891 54.0896 287.97 53.3552C287.788 53.2884 287.788 53.2884 287.601 53.2203C287.186 53.0616 286.778 52.8917 286.368 52.7205C286.005 52.5714 285.641 52.423 285.277 52.2747C285.023 52.1712 284.769 52.0674 284.516 51.9634C284.399 51.9155 284.282 51.8676 284.161 51.8182C284.056 51.7751 283.951 51.7319 283.843 51.6874C283.178 51.426 282.614 51.4236 281.905 51.4196C281.793 51.417 281.681 51.4144 281.565 51.4117C280.046 51.4029 278.696 51.8795 277.3 52.4032C274.685 53.3505 271.984 53.8885 269.282 52.8475C268.524 52.5162 267.78 52.1604 267.042 51.7921C265.958 51.2513 264.971 50.7971 263.734 50.7294C263.596 50.7211 263.458 50.7128 263.316 50.7042C263.214 50.6994 263.113 50.6947 263.008 50.6898C263.008 50.606 263.008 50.5222 263.008 50.4359C264.744 49.9263 266.501 50.4408 268.15 50.9658C271.265 51.9519 273.818 51.8297 276.789 50.432C277.06 50.3009 277.33 50.1679 277.599 50.0345C279.018 49.3404 280.391 49.0178 281.98 49.0081Z" fill="#23385D"/>
<path d="M305.199 57.5439C306.371 58.0473 307.387 58.3015 308.68 58.3908C308.809 58.4008 308.937 58.4108 309.069 58.421C309.382 58.4451 309.695 58.4679 310.008 58.4896C309.3 59.1341 308.185 59.141 307.236 59.1508C306.132 59.1438 305.175 58.9336 304.131 58.6112C300.755 57.5887 298.371 57.7194 295.146 59.0782C292.665 60.1189 290.029 60.3224 287.434 59.4624C286.661 59.1873 285.909 58.8801 285.158 58.5595C285.033 58.5063 284.908 58.4532 284.779 58.3984C284.672 58.3514 284.565 58.3044 284.454 58.2559C281.982 57.3554 279.489 57.9319 277.099 58.7513C275.771 59.1413 274.337 59.061 273.008 58.7328C273.008 58.6526 273.008 58.5723 273.008 58.4896C273.214 58.4718 273.214 58.4718 273.424 58.4535C274.937 58.3105 276.15 57.9688 277.519 57.3594C279.937 56.2886 282.367 55.7137 285.01 56.4847C285.323 56.5847 285.633 56.6895 285.943 56.7961C289.177 57.9035 291.68 58.2313 294.881 56.9104C298.678 55.3513 301.561 55.9477 305.199 57.5439Z" fill="#22375C"/>
<path d="M293.008 0C293.331 0 293.331 0 293.684 0.324891C293.755 0.396409 293.826 0.467927 293.9 0.541612C294.149 0.787695 294.407 1.02115 294.669 1.25402C299.552 5.60009 299.552 5.60009 301.407 7.92857C301.552 8.09946 301.697 8.26987 301.843 8.43989C304.157 11.1475 306.095 14.0415 307.868 17.1008C307.941 17.227 308.015 17.3532 308.09 17.4832C310.639 21.9169 312.349 26.7442 313.592 31.656C313.634 31.821 313.676 31.986 313.719 32.156C313.776 32.3876 313.776 32.3876 313.834 32.624C313.884 32.828 313.884 32.828 313.935 33.0361C314.008 33.4332 314.011 33.7994 314.006 34.2017C313.905 34.2148 313.804 34.228 313.7 34.2415C312.392 34.4118 311.084 34.5832 309.776 34.7555C309.618 34.7764 309.618 34.7764 309.456 34.7976C306.229 35.2232 303.007 35.6731 299.791 36.1687C298.342 36.3916 296.892 36.6037 295.438 36.7978C295.288 36.8181 295.138 36.8384 294.983 36.8594C294.843 36.8779 294.702 36.8963 294.557 36.9154C294.433 36.9318 294.309 36.9481 294.181 36.965C293.792 37.0022 293.399 37 293.008 37C293.008 24.79 293.008 12.58 293.008 0Z" fill="#23A2A1"/>
<path d="M277.435 35.02C277.079 35.3683 276.701 35.4062 276.225 35.5096C271.216 36.679 265.661 39.3191 262.742 43.6067C262.368 44.2064 262.07 44.8105 261.811 45.4652C261.748 45.6099 261.748 45.6099 261.683 45.7574C261.035 47.448 261.292 49.5649 261.945 51.2101C262.573 52.5477 263.423 53.5662 264.482 54.6048C264.554 54.6782 264.627 54.7517 264.701 54.8274C270.63 60.7936 281.767 62.5912 289.971 62.714C290.717 62.7221 291.464 62.7241 292.21 62.724C292.671 62.7243 293.133 62.7267 293.594 62.7292C296.395 62.7365 299.102 62.502 301.856 62.0144C301.971 61.9943 302.086 61.9743 302.204 61.9537C308.357 60.8781 314.515 58.9873 319.366 54.9965C319.572 54.843 319.572 54.843 319.783 54.6864C320.611 53.9476 321.312 53.054 321.903 52.124C322.037 52.3852 322.037 52.3852 321.936 52.7361C321.551 53.7337 321.113 54.555 320.434 55.3882C320.327 55.5226 320.219 55.6571 320.109 55.7957C315.031 61.9993 305.612 64.3128 297.916 65.4254C297.658 65.4628 297.658 65.4628 297.395 65.501C296.841 65.5761 296.286 65.6427 295.73 65.7028C295.619 65.7149 295.508 65.727 295.394 65.7394C293.143 65.9752 290.898 66.005 288.637 65.998C288.149 65.9965 287.662 65.9974 287.174 65.9989C284.489 66.0059 281.783 65.9935 279.134 65.5055C278.719 65.4327 278.304 65.3845 277.886 65.3356C270.925 64.4337 262.98 62.2679 257.805 57.3467C257.696 57.248 257.587 57.1494 257.475 57.0478C255.441 55.1583 254.104 52.8454 254.008 50.0513C254.092 47.0857 255.77 44.7265 257.886 42.734C259.185 41.5537 260.672 40.5813 262.216 39.7348C262.393 39.6373 262.569 39.5383 262.745 39.4381C265.83 37.6812 269.308 36.6185 272.761 35.8034C272.984 35.7495 273.207 35.6956 273.429 35.6417C276.247 34.9683 276.247 34.9683 277.435 35.02Z" fill="#25A19E"/>
<path d="M290.881 15C290.923 15 290.965 15 291.008 15C291.008 21.7475 291.008 28.4951 291.008 35.4471C286.927 36.0897 286.927 36.0897 284.97 36.3837C284.709 36.423 284.448 36.4625 284.188 36.5022C281.392 36.9285 281.392 36.9285 280.008 37C280.497 35.9082 280.998 34.8271 281.553 33.7688C282.504 31.935 283.399 30.0717 284.304 28.2137C284.545 27.7194 284.786 27.2253 285.027 26.7312C285.342 26.0868 285.656 25.4424 285.97 24.7979C286.132 24.4643 286.295 24.1308 286.458 23.7972C286.544 23.6211 286.629 23.4449 286.715 23.2687C287.672 21.3065 287.672 21.3065 288.127 20.407C288.171 20.32 288.215 20.2331 288.26 20.1435C288.442 19.7846 288.623 19.4258 288.804 19.0671C288.94 18.7993 289.075 18.5315 289.21 18.2636C289.254 18.1768 289.298 18.09 289.343 18.0006C289.715 17.2602 290.079 16.5155 290.439 15.7684C290.741 15.1432 290.741 15.1432 290.881 15Z" fill="#25A1A0"/>
</svg>
